AsbirMonoItalic-ItalicRegular.ufo
<glyph name="exclam" format="2">
  <advance width="600"/>
  <unicode hex="0021"/>
  <outline>
    <contour>
      <point x="263" y="209" type="curve"/>
      <point x="318" y="209" type="line"/>
      <point x="339" y="279"/>
      <point x="374" y="400"/>
      <point x="391" y="480" type="curve" smooth="yes"/>
      <point x="439" y="710" type="line"/>
      <point x="353" y="710" type="line"/>
      <point x="305" y="480" type="line" smooth="yes"/>
      <point x="288" y="400"/>
      <point x="272" y="279"/>
    </contour>
    <component base="period"/>
  </outline>
</glyph>
<glyph name="quotedbl" format="2">
  <advance width="600"/>
  <unicode hex="0022"/>
  <outline>
    <contour>
      <point x="373" y="353" type="line"/>
      <point x="443" y="353" type="line"/>
      <point x="528" y="630" type="line"/>
      <point x="545" y="710" type="line"/>
      <point x="449" y="710" type="line"/>
    </contour>
    <contour>
      <point x="187" y="353" type="line"/>
      <point x="257" y="353" type="line"/>
      <point x="341" y="710" type="line"/>
      <point x="245" y="710" type="line"/>
      <point x="228" y="630" type="line"/>
    </contour>
  </outline>
</glyph>
<glyph name="numbersign" format="2">
  <advance width="600"/>
  <unicode hex="0023"/>
  <outline>
    <contour>
      <point x="241" y="0" type="line"/>
      <point x="313" y="0" type="line"/>
      <point x="596" y="710" type="line"/>
      <point x="524" y="710" type="line"/>
    </contour>
    <contour>
      <point x="36" y="197" type="line"/>
      <point x="484" y="197" type="line"/>
      <point x="511" y="267" type="line"/>
      <point x="63" y="267" type="line"/>
    </contour>
    <contour>
      <point x="44" y="0" type="line"/>
      <point x="116" y="0" type="line"/>
      <point x="399" y="710" type="line"/>
      <point x="327" y="710" type="line"/>
    </contour>
    <contour>
      <point x="128" y="440" type="line"/>
      <point x="576" y="440" type="line"/>
      <point x="602" y="510" type="line"/>
      <point x="154" y="510" type="line"/>
    </contour>
  </outline>
</glyph>
<glyph name="dollar" format="2">
  <advance width="600"/>
  <unicode hex="0024"/>
  <outline>
    <contour>
      <point x="187" y="-90" type="line"/>
      <point x="261" y="-90" type="line"/>
      <point x="451" y="800" type="line"/>
      <point x="377" y="800" type="line"/>
    </contour>
    <contour>
      <point x="255" y="-16" type="curve" smooth="yes"/>
      <point x="413" y="-16"/>
      <point x="538" y="55"/>
      <point x="538" y="218" type="curve" smooth="yes"/>
      <point x="538" y="302"/>
      <point x="494" y="354"/>
      <point x="350" y="392" type="curve" smooth="yes"/>
      <point x="222" y="426"/>
      <point x="197" y="442"/>
      <point x="197" y="500" type="curve" smooth="yes"/>
      <point x="197" y="566"/>
      <point x="244" y="626"/>
      <point x="366" y="626" type="curve" smooth="yes"/>
      <point x="462" y="626"/>
      <point x="497" y="576"/>
      <point x="497" y="516" type="curve" smooth="yes"/>
      <point x="497" y="501"/>
      <point x="496" y="487"/>
      <point x="493" y="478" type="curve"/>
      <point x="583" y="484" type="line"/>
      <point x="586" y="493"/>
      <point x="587" y="510"/>
      <point x="587" y="524" type="curve" smooth="yes"/>
      <point x="587" y="637"/>
      <point x="517" y="710"/>
      <point x="377" y="710" type="curve" smooth="yes"/>
      <point x="202" y="710"/>
      <point x="107" y="616"/>
      <point x="107" y="492" type="curve" smooth="yes"/>
      <point x="107" y="397"/>
      <point x="156" y="353"/>
      <point x="284" y="320" type="curve" smooth="yes"/>
      <point x="426" y="283"/>
      <point x="448" y="260"/>
      <point x="448" y="208" type="curve" smooth="yes"/>
      <point x="448" y="107"/>
      <point x="371" y="68"/>
      <point x="268" y="68" type="curve" smooth="yes"/>
      <point x="165" y="68"/>
      <point x="122" y="109"/>
      <point x="122" y="182" type="curve" smooth="yes"/>
      <point x="122" y="202"/>
      <point x="125" y="223"/>
      <point x="128" y="233" type="curve"/>
      <point x="38" y="227" type="line"/>
      <point x="35" y="214"/>
      <point x="32" y="191"/>
      <point x="32" y="172" type="curve" smooth="yes"/>
      <point x="32" y="56"/>
      <point x="115" y="-16"/>
    </contour>
  </outline>
</glyph>
<glyph name="percent" format="2">
  <advance width="600"/>
  <unicode hex="0025"/>
  <outline>
    <contour>
      <point x="176" y="366" type="curve" smooth="yes"/>
      <point x="280" y="366"/>
      <point x="364" y="471"/>
      <point x="364" y="595" type="curve" smooth="yes"/>
      <point x="364" y="671"/>
      <point x="321" y="718"/>
      <point x="251" y="718" type="curve" smooth="yes"/>
      <point x="147" y="718"/>
      <point x="64" y="613"/>
      <point x="64" y="488" type="curve" smooth="yes"/>
      <point x="64" y="413"/>
      <point x="107" y="366"/>
    </contour>
    <contour>
      <point x="190" y="428" type="curve" smooth="yes"/>
      <point x="156" y="428"/>
      <point x="137" y="449"/>
      <point x="137" y="497" type="curve" smooth="yes"/>
      <point x="137" y="581"/>
      <point x="185" y="656"/>
      <point x="238" y="656" type="curve" smooth="yes"/>
      <point x="272" y="656"/>
      <point x="291" y="634"/>
      <point x="291" y="586" type="curve" smooth="yes"/>
      <point x="291" y="504"/>
      <point x="242" y="428"/>
    </contour>
    <contour>
      <point x="-6" y="0" type="line"/>
      <point x="72" y="0" type="line"/>
      <point x="644" y="710" type="line"/>
      <point x="566" y="710" type="line"/>
    </contour>
    <contour>
      <point x="387" y="-8" type="curve" smooth="yes"/>
      <point x="491" y="-8"/>
      <point x="575" y="97"/>
      <point x="575" y="221" type="curve" smooth="yes"/>
      <point x="575" y="297"/>
      <point x="532" y="344"/>
      <point x="462" y="344" type="curve" smooth="yes"/>
      <point x="358" y="344"/>
      <point x="275" y="239"/>
      <point x="275" y="114" type="curve" smooth="yes"/>
      <point x="275" y="39"/>
      <point x="318" y="-8"/>
    </contour>
    <contour>
      <point x="401" y="54" type="curve" smooth="yes"/>
      <point x="367" y="54"/>
      <point x="348" y="75"/>
      <point x="348" y="123" type="curve" smooth="yes"/>
      <point x="348" y="207"/>
      <point x="396" y="282"/>
      <point x="449" y="282" type="curve" smooth="yes"/>
      <point x="483" y="282"/>
      <point x="502" y="260"/>
      <point x="502" y="212" type="curve" smooth="yes"/>
      <point x="502" y="130"/>
      <point x="453" y="54"/>
    </contour>
  </outline>
</glyph>
<glyph name="ampersand" format="2">
  <advance width="600"/>
  <unicode hex="0026"/>
  <outline>
    <contour>
      <point x="183" y="-16" type="curve" smooth="yes"/>
      <point x="273" y="-16"/>
      <point x="345" y="8"/>
      <point x="393" y="45" type="curve"/>
      <point x="419" y="0" type="line"/>
      <point x="520" y="0" type="line"/>
      <point x="458" y="103" type="line"/>
      <point x="506" y="150"/>
      <point x="549" y="230"/>
      <point x="567" y="310" type="curve"/>
      <point x="485" y="318" type="line"/>
      <point x="471" y="250"/>
      <point x="450" y="199"/>
      <point x="419" y="164" type="curve"/>
      <point x="308" y="373" type="line"/>
      <point x="456" y="460"/>
      <point x="502" y="498"/>
      <point x="502" y="588" type="curve" smooth="yes"/>
      <point x="502" y="669"/>
      <point x="455" y="726"/>
      <point x="358" y="726" type="curve" smooth="yes"/>
      <point x="220" y="726"/>
      <point x="152" y="652"/>
      <point x="152" y="532" type="curve" smooth="yes"/>
      <point x="152" y="489"/>
      <point x="167" y="440"/>
      <point x="192" y="394" type="curve"/>
      <point x="62" y="321"/>
      <point x="5" y="268"/>
      <point x="5" y="140" type="curve" smooth="yes"/>
      <point x="5" y="35"/>
      <point x="68" y="-16"/>
    </contour>
    <contour>
      <point x="204" y="64" type="curve" smooth="yes"/>
      <point x="126" y="64"/>
      <point x="95" y="91"/>
      <point x="95" y="154" type="curve" smooth="yes"/>
      <point x="95" y="234"/>
      <point x="136" y="276"/>
      <point x="228" y="328" type="curve"/>
      <point x="353" y="106" type="line"/>
      <point x="322" y="82"/>
      <point x="269" y="64"/>
    </contour>
    <contour>
      <point x="275" y="434" type="curve"/>
      <point x="252" y="474"/>
      <point x="242" y="510"/>
      <point x="242" y="542" type="curve" smooth="yes"/>
      <point x="242" y="594"/>
      <point x="266" y="642"/>
      <point x="340" y="642" type="curve" smooth="yes"/>
      <point x="386" y="642"/>
      <point x="412" y="625"/>
      <point x="412" y="580" type="curve" smooth="yes"/>
      <point x="412" y="520"/>
      <point x="386" y="494"/>
    </contour>
  </outline>
</glyph>
<glyph name="quotesingle" format="2">
  <advance width="600"/>
  <unicode hex="0027"/>
  <outline>
    <contour>
      <point x="285" y="353" type="line"/>
      <point x="349" y="353" type="line"/>
      <point x="424" y="614" type="line"/>
      <point x="445" y="710" type="line"/>
      <point x="345" y="710" type="line"/>
      <point x="324" y="614" type="line"/>
    </contour>
  </outline>
</glyph>
<glyph name="parenleft" format="2">
  <advance width="600"/>
  <unicode hex="0028"/>
  <outline>
    <contour>
      <point x="298" y="-110" type="curve"/>
      <point x="382" y="-110" type="line"/>
      <point x="276" y="-12"/>
      <point x="231" y="92"/>
      <point x="231" y="240" type="curve" smooth="yes"/>
      <point x="231" y="436"/>
      <point x="320" y="600"/>
      <point x="564" y="750" type="curve"/>
      <point x="480" y="750" type="line"/>
      <point x="266" y="652"/>
      <point x="145" y="452"/>
      <point x="145" y="238" type="curve" smooth="yes"/>
      <point x="145" y="82"/>
      <point x="210" y="-44"/>
    </contour>
  </outline>
</glyph>
<glyph name="asterisk" format="2">
  <advance width="600"/>
  <unicode hex="002A"/>
  <outline>
    <contour>
      <point x="205" y="284" type="line"/>
      <point x="338" y="432" type="line"/>
      <point x="410" y="284" type="line"/>
      <point x="477" y="324" type="line"/>
      <point x="406" y="460" type="line"/>
      <point x="561" y="460" type="line"/>
      <point x="577" y="534" type="line"/>
      <point x="422" y="534" type="line"/>
      <point x="548" y="670" type="line"/>
      <point x="493" y="710" type="line"/>
      <point x="358" y="562" type="line"/>
      <point x="288" y="710" type="line"/>
      <point x="221" y="670" type="line"/>
      <point x="292" y="534" type="line"/>
      <point x="137" y="534" type="line"/>
      <point x="121" y="460" type="line"/>
      <point x="276" y="460" type="line"/>
      <point x="150" y="324" type="line"/>
    </contour>
  </outline>
</glyph>
<glyph name="plus" format="2">
  <advance width="600"/>
  <unicode hex="002B"/>
  <outline>
    <contour>
      <point x="215" y="56" type="line"/>
      <point x="297" y="56" type="line"/>
      <point x="399" y="534" type="line"/>
      <point x="317" y="534" type="line"/>
    </contour>
    <contour>
      <point x="59" y="256" type="line"/>
      <point x="538" y="256" type="line"/>
      <point x="554" y="334" type="line"/>
      <point x="75" y="334" type="line"/>
    </contour>
  </outline>
</glyph>
<glyph name="comma" format="2">
  <advance width="600"/>
  <unicode hex="002C"/>
  <outline>
    <contour>
      <point x="151" y="-162" type="line"/>
      <point x="213" y="-162" type="line"/>
      <point x="306" y="12" type="line"/>
      <point x="330" y="122" type="line"/>
      <point x="210" y="122" type="line"/>
      <point x="184" y="0" type="line"/>
      <point x="232" y="0" type="line"/>
    </contour>
  </outline>
</glyph>
<glyph name="hyphen" format="2">
  <advance width="600"/>
  <unicode hex="002D"/>
  <outline>
    <contour>
      <point x="117" y="252" type="line"/>
      <point x="477" y="252" type="line"/>
      <point x="494" y="331" type="line"/>
      <point x="134" y="331" type="line"/>
    </contour>
  </outline>
</glyph>
<glyph name="period" format="2">
  <advance width="600"/>
  <unicode hex="002E"/>
  <outline>
    <contour>
      <point x="182" y="0" type="line"/>
      <point x="306" y="0" type="line"/>
      <point x="332" y="122" type="line"/>
      <point x="208" y="122" type="line"/>
    </contour>
  </outline>
</glyph>
<glyph name="slash" format="2">
  <advance width="600"/>
  <unicode hex="002F"/>
  <outline>
    <contour>
      <point x="28" y="-110" type="line"/>
      <point x="108" y="-110" type="line"/>
      <point x="595" y="750" type="line"/>
      <point x="515" y="750" type="line"/>
    </contour>
  </outline>
</glyph>
<glyph name="zero" format="2">
  <advance width="600"/>
  <unicode hex="0030"/>
  <outline>
    <contour>
      <point x="138.36" y="102" type="line"/>
      <point x="217.64" y="98" type="line"/>
      <point x="589.44" y="608" type="line"/>
      <point x="510.15999999999997" y="612" type="line"/>
    </contour>
    <component base="zero.ss09" yxScale="0.18"/>
  </outline>
</glyph>
<glyph name="one" format="2">
  <advance width="600"/>
  <unicode hex="0031"/>
  <outline>
    <contour>
      <point x="4" y="0" type="line"/>
      <point x="484" y="0" type="line"/>
      <point x="502" y="84" type="line"/>
      <point x="292" y="84" type="line"/>
      <point x="324" y="44" type="line"/>
      <point x="465" y="710" type="line"/>
      <point x="395" y="710" type="line"/>
      <point x="378" y="630"/>
      <point x="342" y="600"/>
      <point x="266" y="600" type="curve" smooth="yes"/>
      <point x="170" y="600" type="line"/>
      <point x="154" y="526" type="line"/>
      <point x="340" y="526" type="line"/>
      <point x="238" y="44" type="line"/>
      <point x="287" y="84" type="line"/>
      <point x="22" y="84" type="line"/>
    </contour>
  </outline>
</glyph>
<glyph name="two" format="2">
  <advance width="600"/>
  <unicode hex="0032"/>
  <outline>
    <contour>
      <point x="7" y="0" type="curve"/>
      <point x="491" y="0" type="line"/>
      <point x="509" y="84" type="line"/>
      <point x="131" y="84" type="line"/>
      <point x="147" y="148"/>
      <point x="213" y="214"/>
      <point x="355" y="280" type="curve" smooth="yes"/>
      <point x="511" y="352"/>
      <point x="602" y="413"/>
      <point x="606" y="563" type="curve" smooth="yes"/>
      <point x="606" y="658"/>
      <point x="539" y="726"/>
      <point x="413" y="726" type="curve" smooth="yes"/>
      <point x="259" y="726"/>
      <point x="147" y="637"/>
      <point x="102" y="498" type="curve"/>
      <point x="190" y="492" type="line"/>
      <point x="226" y="588"/>
      <point x="295" y="642"/>
      <point x="395" y="642" type="curve" smooth="yes"/>
      <point x="476" y="642"/>
      <point x="516" y="605"/>
      <point x="516" y="548" type="curve" smooth="yes"/>
      <point x="514" y="448"/>
      <point x="447" y="408"/>
      <point x="341" y="362" type="curve" smooth="yes"/>
      <point x="102" y="258"/>
      <point x="39" y="150"/>
    </contour>
  </outline>
</glyph>
<glyph name="three" format="2">
  <advance width="600"/>
  <unicode hex="0033"/>
  <outline>
    <contour>
      <point x="241" y="-16" type="curve" smooth="yes"/>
      <point x="407" y="-16"/>
      <point x="542" y="72"/>
      <point x="542" y="240" type="curve" smooth="yes"/>
      <point x="542" y="322"/>
      <point x="487" y="374"/>
      <point x="390" y="386" type="curve"/>
      <point x="387" y="368" type="line"/>
      <point x="510" y="390"/>
      <point x="586" y="442"/>
      <point x="586" y="558" type="curve" smooth="yes"/>
      <point x="586" y="660"/>
      <point x="523" y="726"/>
      <point x="393" y="726" type="curve" smooth="yes"/>
      <point x="230" y="726"/>
      <point x="153" y="653"/>
      <point x="118" y="547" type="curve"/>
      <point x="207" y="541" type="line"/>
      <point x="229" y="604"/>
      <point x="273" y="642"/>
      <point x="379" y="642" type="curve" smooth="yes"/>
      <point x="460" y="642"/>
      <point x="496" y="613"/>
      <point x="496" y="548" type="curve" smooth="yes"/>
      <point x="496" y="458"/>
      <point x="424" y="419"/>
      <point x="325" y="419" type="curve" smooth="yes"/>
      <point x="269" y="419" type="line"/>
      <point x="251" y="335" type="line"/>
      <point x="307" y="335" type="line" smooth="yes"/>
      <point x="396" y="335"/>
      <point x="452" y="302"/>
      <point x="452" y="232" type="curve" smooth="yes"/>
      <point x="452" y="111"/>
      <point x="349" y="68"/>
      <point x="255" y="68" type="curve" smooth="yes"/>
      <point x="161" y="68"/>
      <point x="120" y="95"/>
      <point x="120" y="189" type="curve"/>
      <point x="29" y="183" type="line"/>
      <point x="29" y="53"/>
      <point x="97" y="-16"/>
    </contour>
  </outline>
</glyph>
<glyph name="four" format="2">
  <advance width="600"/>
  <unicode hex="0034"/>
  <outline>
    <contour>
      <point x="332" y="0" type="line"/>
      <point x="418" y="0" type="line"/>
      <point x="450" y="154" type="line"/>
      <point x="536" y="154" type="line"/>
      <point x="554" y="238" type="line"/>
      <point x="468" y="238" type="line"/>
      <point x="568" y="710" type="line"/>
      <point x="476" y="710" type="line"/>
      <point x="33" y="232" type="line"/>
      <point x="16" y="154" type="line"/>
      <point x="364" y="154" type="line"/>
    </contour>
    <contour>
      <point x="126" y="238" type="line"/>
      <point x="457" y="588" type="line"/>
      <point x="382" y="238" type="line"/>
    </contour>
  </outline>
</glyph>
<glyph name="five" format="2">
  <advance width="600"/>
  <unicode hex="0035"/>
  <outline>
    <contour>
      <point x="237" y="-16" type="curve" smooth="yes"/>
      <point x="431" y="-16"/>
      <point x="543" y="116"/>
      <point x="543" y="288" type="curve" smooth="yes"/>
      <point x="543" y="398"/>
      <point x="475" y="473"/>
      <point x="358" y="473" type="curve" smooth="yes"/>
      <point x="272" y="473"/>
      <point x="206" y="441"/>
      <point x="162" y="380" type="curve"/>
      <point x="175" y="364" type="line"/>
      <point x="262" y="626" type="line"/>
      <point x="581" y="626" type="line"/>
      <point x="599" y="710" type="line"/>
      <point x="201" y="710" type="line"/>
      <point x="69" y="311" type="line"/>
      <point x="161" y="311" type="line"/>
      <point x="195" y="361"/>
      <point x="258" y="391"/>
      <point x="324" y="391" type="curve" smooth="yes"/>
      <point x="412" y="391"/>
      <point x="453" y="348"/>
      <point x="453" y="278" type="curve" smooth="yes"/>
      <point x="453" y="148"/>
      <point x="376" y="68"/>
      <point x="252" y="68" type="curve" smooth="yes"/>
      <point x="161" y="68"/>
      <point x="128" y="101"/>
      <point x="128" y="189" type="curve"/>
      <point x="37" y="183" type="line"/>
      <point x="37" y="45"/>
      <point x="101" y="-16"/>
    </contour>
  </outline>
</glyph>
<glyph name="six" format="2">
  <advance width="600"/>
  <unicode hex="0036"/>
  <outline>
    <contour>
      <point x="246" y="-16" type="curve" smooth="yes"/>
      <point x="436" y="-16"/>
      <point x="550" y="131"/>
      <point x="549" y="298" type="curve" smooth="yes"/>
      <point x="549" y="409"/>
      <point x="486" y="478"/>
      <point x="367" y="478" type="curve" smooth="yes"/>
      <point x="249" y="478"/>
      <point x="178" y="416"/>
      <point x="141" y="344" type="curve"/>
      <point x="157" y="340" type="line"/>
      <point x="201" y="542"/>
      <point x="296" y="642"/>
      <point x="415" y="642" type="curve" smooth="yes"/>
      <point x="492" y="642"/>
      <point x="522" y="606"/>
      <point x="524" y="550" type="curve"/>
      <point x="616" y="558" type="line"/>
      <point x="612" y="658"/>
      <point x="559" y="726"/>
      <point x="433" y="726" type="curve" smooth="yes"/>
      <point x="209" y="726"/>
      <point x="49" y="503"/>
      <point x="49" y="192" type="curve" smooth="yes"/>
      <point x="49" y="54"/>
      <point x="118" y="-16"/>
    </contour>
    <contour>
      <point x="265" y="68" type="curve" smooth="yes"/>
      <point x="182" y="68"/>
      <point x="139" y="108"/>
      <point x="139" y="192" type="curve" smooth="yes"/>
      <point x="139" y="317"/>
      <point x="236" y="396"/>
      <point x="344" y="396" type="curve" smooth="yes"/>
      <point x="419" y="396"/>
      <point x="459" y="353"/>
      <point x="459" y="280" type="curve" smooth="yes"/>
      <point x="460" y="175"/>
      <point x="385" y="68"/>
    </contour>
  </outline>
</glyph>
<glyph name="seven" format="2">
  <advance width="600"/>
  <unicode hex="0037"/>
  <outline>
    <contour>
      <point x="136" y="0" type="curve"/>
      <point x="228" y="0" type="line"/>
      <point x="279" y="240"/>
      <point x="396" y="428"/>
      <point x="618" y="632" type="curve"/>
      <point x="635" y="710" type="line"/>
      <point x="155" y="710" type="line"/>
      <point x="137" y="626" type="line"/>
      <point x="521" y="626" type="line"/>
      <point x="324" y="444"/>
      <point x="183" y="220"/>
    </contour>
  </outline>
</glyph>
<glyph name="eight" format="2">
  <advance width="600"/>
  <unicode hex="0038"/>
  <outline>
    <contour>
      <point x="239" y="-16" type="curve" smooth="yes"/>
      <point x="409" y="-16"/>
      <point x="545" y="50"/>
      <point x="545" y="224" type="curve" smooth="yes"/>
      <point x="545" y="316"/>
      <point x="491" y="371"/>
      <point x="409" y="391" type="curve"/>
      <point x="402" y="371" type="line"/>
      <point x="510" y="395"/>
      <point x="575" y="448"/>
      <point x="575" y="560" type="curve" smooth="yes"/>
      <point x="575" y="661"/>
      <point x="519" y="726"/>
      <point x="383" y="726" type="curve" smooth="yes"/>
      <point x="217" y="726"/>
      <point x="125" y="634"/>
      <point x="125" y="502" type="curve" smooth="yes"/>
      <point x="125" y="426"/>
      <point x="166" y="389"/>
      <point x="231" y="370" type="curve"/>
      <point x="233" y="391" type="line"/>
      <point x="103" y="365"/>
      <point x="24" y="291"/>
      <point x="24" y="162" type="curve" smooth="yes"/>
      <point x="24" y="41"/>
      <point x="111" y="-16"/>
    </contour>
    <contour>
      <point x="249" y="68" type="curve" smooth="yes"/>
      <point x="153" y="68"/>
      <point x="114" y="101"/>
      <point x="114" y="176" type="curve" smooth="yes"/>
      <point x="114" y="276"/>
      <point x="182" y="337"/>
      <point x="307" y="337" type="curve" smooth="yes"/>
      <point x="407" y="337"/>
      <point x="455" y="298"/>
      <point x="455" y="214" type="curve" smooth="yes"/>
      <point x="455" y="104"/>
      <point x="375" y="68"/>
    </contour>
    <contour>
      <point x="324" y="417" type="curve" smooth="yes"/>
      <point x="244" y="417"/>
      <point x="215" y="446"/>
      <point x="215" y="508" type="curve" smooth="yes"/>
      <point x="215" y="590"/>
      <point x="277" y="642"/>
      <point x="367" y="642" type="curve" smooth="yes"/>
      <point x="447" y="642"/>
      <point x="485" y="612"/>
      <point x="485" y="548" type="curve" smooth="yes"/>
      <point x="485" y="457"/>
      <point x="417" y="417"/>
    </contour>
  </outline>
</glyph>
<glyph name="equal" format="2">
  <advance width="600"/>
  <unicode hex="003D"/>
  <outline>
    <contour>
      <point x="101" y="364" type="line"/>
      <point x="541" y="364" type="line"/>
      <point x="558" y="442" type="line"/>
      <point x="118" y="442" type="line"/>
    </contour>
    <contour>
      <point x="57" y="157" type="line"/>
      <point x="497" y="157" type="line"/>
      <point x="514" y="235" type="line"/>
      <point x="74" y="235" type="line"/>
    </contour>
  </outline>
</glyph>
<glyph name="greater" format="2">
  <advance width="600"/>
  <unicode hex="003E"/>
  <outline>
    <contour>
      <point x="23" y="32" type="line"/>
      <point x="522" y="236" type="line"/>
      <point x="544" y="342" type="line"/>
      <point x="133" y="546" type="line"/>
      <point x="115" y="464" type="line"/>
      <point x="476" y="286" type="line"/>
      <point x="478" y="296" type="line"/>
      <point x="41" y="118" type="line"/>
    </contour>
  </outline>
</glyph>
<glyph name="at" format="2">
  <advance width="600"/>
  <unicode hex="0040"/>
  <outline>
    <contour>
      <point x="357" y="-70" type="curve"/>
      <point x="345" y="-4" type="line"/>
      <point x="297" y="-29"/>
      <point x="249" y="-42"/>
      <point x="202" y="-42" type="curve" smooth="yes"/>
      <point x="114" y="-42"/>
      <point x="77" y="9"/>
      <point x="77" y="133" type="curve" smooth="yes"/>
      <point x="77" y="410"/>
      <point x="240" y="640"/>
      <point x="412" y="640" type="curve" smooth="yes"/>
      <point x="499" y="640"/>
      <point x="541" y="594"/>
      <point x="541" y="496" type="curve" smooth="yes"/>
      <point x="541" y="298"/>
      <point x="469" y="144"/>
      <point x="425" y="144" type="curve" smooth="yes"/>
      <point x="410" y="144"/>
      <point x="402" y="158"/>
      <point x="402" y="182" type="curve" smooth="yes"/>
      <point x="402" y="215"/>
      <point x="415" y="267"/>
      <point x="491" y="500" type="curve"/>
      <point x="421" y="500" type="line"/>
      <point x="392" y="407" type="line"/>
      <point x="407" y="441" type="line"/>
      <point x="407" y="478"/>
      <point x="382" y="501"/>
      <point x="344" y="501" type="curve" smooth="yes"/>
      <point x="248" y="501"/>
      <point x="136" y="328"/>
      <point x="136" y="183" type="curve" smooth="yes"/>
      <point x="136" y="116"/>
      <point x="165" y="80"/>
      <point x="216" y="80" type="curve" smooth="yes"/>
      <point x="278" y="80"/>
      <point x="333" y="129"/>
      <point x="363" y="202" type="curve"/>
      <point x="356" y="204" type="line"/>
      <point x="350" y="189"/>
      <point x="344" y="169"/>
      <point x="344" y="151" type="curve" smooth="yes"/>
      <point x="344" y="102"/>
      <point x="370" y="76"/>
      <point x="408" y="76" type="curve" smooth="yes"/>
      <point x="516" y="76"/>
      <point x="611" y="257"/>
      <point x="611" y="502" type="curve" smooth="yes"/>
      <point x="611" y="627"/>
      <point x="549" y="710"/>
      <point x="431" y="710" type="curve" smooth="yes"/>
      <point x="201" y="710"/>
      <point x="7" y="447"/>
      <point x="7" y="119" type="curve" smooth="yes"/>
      <point x="7" y="-34"/>
      <point x="68" y="-110"/>
      <point x="193" y="-110" type="curve" smooth="yes"/>
      <point x="247" y="-110"/>
      <point x="299" y="-97"/>
    </contour>
    <contour>
      <point x="250" y="142" type="curve" smooth="yes"/>
      <point x="228" y="142"/>
      <point x="216" y="162"/>
      <point x="216" y="200" type="curve" smooth="yes"/>
      <point x="216" y="300"/>
      <point x="285" y="433"/>
      <point x="338" y="433" type="curve" smooth="yes"/>
      <point x="363" y="433"/>
      <point x="376" y="418"/>
      <point x="376" y="384" type="curve" smooth="yes"/>
      <point x="376" y="286"/>
      <point x="302" y="142"/>
    </contour>
  </outline>
</glyph>
<glyph name="A" format="2">
  <advance width="600"/>
  <unicode hex="0041"/>
  <anchor x="244" y="0" name="bottom"/>
  <anchor x="518" y="0" name="ogonek"/>
  <anchor x="395" y="710" name="top"/>
  <outline>
    <contour>
      <point x="-30" y="0" type="line"/>
      <point x="63" y="0" type="line"/>
      <point x="379" y="632" type="line"/>
      <point x="427" y="0" type="line"/>
      <point x="518" y="0" type="line"/>
      <point x="453" y="710" type="line"/>
      <point x="337" y="710" type="line"/>
    </contour>
    <contour>
      <point x="122" y="202" type="line"/>
      <point x="452" y="202" type="line"/>
      <point x="440" y="286" type="line"/>
      <point x="170" y="286" type="line"/>
    </contour>
  </outline>
</glyph>
<glyph name="B" format="2">
  <advance width="600"/>
  <unicode hex="0042"/>
  <anchor x="221" y="0" name="bottom"/>
  <anchor x="372" y="710" name="top"/>
  <outline>
    <contour>
      <point x="10" y="0" type="line"/>
      <point x="237" y="0" type="line" smooth="yes"/>
      <point x="403" y="0"/>
      <point x="521" y="86"/>
      <point x="521" y="230" type="curve" smooth="yes"/>
      <point x="521" y="315"/>
      <point x="465" y="366"/>
      <point x="358" y="366" type="curve"/>
      <point x="357" y="360" type="line"/>
      <point x="474" y="360"/>
      <point x="561" y="440"/>
      <point x="561" y="554" type="curve" smooth="yes"/>
      <point x="561" y="649"/>
      <point x="497" y="710"/>
      <point x="363" y="710" type="curve" smooth="yes"/>
      <point x="161" y="710" type="line"/>
    </contour>
    <contour>
      <point x="114" y="84" type="line"/>
      <point x="164" y="319" type="line"/>
      <point x="306" y="319" type="line" smooth="yes"/>
      <point x="390" y="319"/>
      <point x="431" y="286"/>
      <point x="431" y="222" type="curve" smooth="yes"/>
      <point x="431" y="134"/>
      <point x="365" y="84"/>
      <point x="256" y="84" type="curve" smooth="yes"/>
    </contour>
    <contour>
      <point x="182" y="403" type="line"/>
      <point x="229" y="626" type="line"/>
      <point x="349" y="626" type="line" smooth="yes"/>
      <point x="432" y="626"/>
      <point x="471" y="597"/>
      <point x="471" y="540" type="curve" smooth="yes"/>
      <point x="471" y="458"/>
      <point x="405" y="403"/>
      <point x="302" y="403" type="curve" smooth="yes"/>
    </contour>
  </outline>
</glyph>
<glyph name="C" format="2">
  <advance width="600"/>
  <unicode hex="0043"/>
  <anchor x="254" y="0" name="bottom"/>
  <anchor x="400" y="710" name="top"/>
  <outline>
    <contour>
      <point x="246" y="-16" type="curve" smooth="yes"/>
      <point x="384" y="-16"/>
      <point x="494" y="77"/>
      <point x="553" y="234" type="curve"/>
      <point x="463" y="239" type="line"/>
      <point x="420" y="130"/>
      <point x="348" y="68"/>
      <point x="262" y="68" type="curve" smooth="yes"/>
      <point x="174" y="68"/>
      <point x="137" y="124"/>
      <point x="137" y="231" type="curve" smooth="yes"/>
      <point x="137" y="461"/>
      <point x="252" y="642"/>
      <point x="386" y="642" type="curve" smooth="yes"/>
      <point x="464" y="642"/>
      <point x="509" y="590"/>
      <point x="509" y="487" type="curve"/>
      <point x="602" y="493" type="line"/>
      <point x="602" y="641"/>
      <point x="529" y="726"/>
      <point x="404" y="726" type="curve" smooth="yes"/>
      <point x="194" y="726"/>
      <point x="47" y="496"/>
      <point x="47" y="218" type="curve" smooth="yes"/>
      <point x="47" y="67"/>
      <point x="116" y="-16"/>
    </contour>
  </outline>
</glyph>
<glyph name="D" format="2">
  <advance width="600"/>
  <unicode hex="0044"/>
  <anchor x="218" y="0" name="bottom"/>
  <anchor x="173" y="355" name="center"/>
  <anchor x="320" y="710" name="top"/>
  <outline>
    <contour>
      <point x="8" y="0" type="line"/>
      <point x="176" y="0" type="line" smooth="yes"/>
      <point x="400" y="0"/>
      <point x="564" y="196"/>
      <point x="564" y="462" type="curve" smooth="yes"/>
      <point x="564" y="624"/>
      <point x="477" y="710"/>
      <point x="327" y="710" type="curve" smooth="yes"/>
      <point x="159" y="710" type="line"/>
    </contour>
    <contour>
      <point x="112" y="84" type="line"/>
      <point x="227" y="626" type="line"/>
      <point x="306" y="626" type="line" smooth="yes"/>
      <point x="422" y="626"/>
      <point x="474" y="567"/>
      <point x="474" y="448" type="curve" smooth="yes"/>
      <point x="474" y="237"/>
      <point x="351" y="84"/>
      <point x="189" y="84" type="curve" smooth="yes"/>
    </contour>
  </outline>
</glyph>
<glyph name="E" format="2">
  <advance width="600"/>
  <unicode hex="0045"/>
  <anchor x="252" y="0" name="bottom"/>
  <anchor x="464" y="0" name="ogonek"/>
  <anchor x="403" y="711" name="top"/>
  <outline>
    <contour>
      <point x="24" y="0" type="line"/>
      <point x="464" y="0" type="line"/>
      <point x="482" y="84" type="line"/>
      <point x="128" y="84" type="line"/>
      <point x="177" y="315" type="line"/>
      <point x="511" y="315" type="line"/>
      <point x="528" y="397" type="line"/>
      <point x="194" y="397" type="line"/>
      <point x="243" y="626" type="line"/>
      <point x="589" y="626" type="line"/>
      <point x="607" y="710" type="line"/>
      <point x="175" y="710" type="line"/>
    </contour>
  </outline>
</glyph>
<glyph name="F" format="2">
  <advance width="600"/>
  <unicode hex="0046"/>
  <anchor x="224" y="0" name="bottom"/>
  <anchor x="375" y="710" name="top"/>
  <outline>
    <contour>
      <point x="24" y="0" type="line"/>
      <point x="110" y="0" type="line"/>
      <point x="251" y="668" type="line"/>
      <point x="203" y="628" type="line"/>
      <point x="597" y="628" type="line"/>
      <point x="615" y="710" type="line"/>
      <point x="175" y="710" type="line"/>
    </contour>
    <contour>
      <point x="159" y="306" type="line"/>
      <point x="511" y="306" type="line"/>
      <point x="528" y="388" type="line"/>
      <point x="176" y="388" type="line"/>
    </contour>
  </outline>
</glyph>
<glyph name="G" format="2">
  <advance width="600"/>
  <unicode hex="0047"/>
  <anchor x="246" y="0" name="bottom"/>
  <anchor x="397" y="710" name="top"/>
  <outline>
    <contour>
      <point x="242" y="-16" type="curve" smooth="yes"/>
      <point x="354" y="-16"/>
      <point x="429" y="59"/>
      <point x="478" y="162" type="curve"/>
      <point x="453" y="168" type="line"/>
      <point x="421" y="0" type="line"/>
      <point x="501" y="0" type="line"/>
      <point x="578" y="359" type="line"/>
      <point x="328" y="359" type="line"/>
      <point x="310" y="277" type="line"/>
      <point x="480" y="277" type="line"/>
      <point x="450" y="154"/>
      <point x="365" y="68"/>
      <point x="262" y="68" type="curve" smooth="yes"/>
      <point x="176" y="68"/>
      <point x="141" y="118"/>
      <point x="141" y="232" type="curve" smooth="yes"/>
      <point x="141" y="454"/>
      <point x="248" y="642"/>
      <point x="386" y="642" type="curve" smooth="yes"/>
      <point x="472" y="642"/>
      <point x="511" y="587"/>
      <point x="513" y="492" type="curve"/>
      <point x="604" y="498" type="line"/>
      <point x="604" y="636"/>
      <point x="534" y="726"/>
      <point x="404" y="726" type="curve" smooth="yes"/>
      <point x="200" y="726"/>
      <point x="51" y="510"/>
      <point x="51" y="224" type="curve" smooth="yes"/>
      <point x="51" y="64"/>
      <point x="122" y="-16"/>
    </contour>
  </outline>
</glyph>
<glyph name="H" format="2">
  <advance width="600"/>
  <unicode hex="0048"/>
  <anchor x="244" y="0" name="bottom"/>
  <anchor x="365" y="568" name="center"/>
  <anchor x="395" y="710" name="top"/>
  <outline>
    <contour>
      <point x="4" y="0" type="line"/>
      <point x="90" y="0" type="line"/>
      <point x="164" y="349" type="line"/>
      <point x="113" y="315" type="line"/>
      <point x="509" y="315" type="line"/>
      <point x="472" y="349" type="line"/>
      <point x="398" y="0" type="line"/>
      <point x="484" y="0" type="line"/>
      <point x="635" y="710" type="line"/>
      <point x="549" y="710" type="line"/>
      <point x="476" y="365" type="line"/>
      <point x="527" y="399" type="line"/>
      <point x="131" y="399" type="line"/>
      <point x="168" y="365" type="line"/>
      <point x="241" y="710" type="line"/>
      <point x="155" y="710" type="line"/>
    </contour>
  </outline>
</glyph>
<glyph name="I" format="2">
  <advance width="600"/>
  <unicode hex="0049"/>
  <anchor x="244" y="0" name="bottom"/>
  <anchor x="464" y="0" name="ogonek"/>
  <anchor x="395" y="710" name="top"/>
  <outline>
    <contour>
      <point x="24" y="0" type="line"/>
      <point x="464" y="0" type="line"/>
      <point x="482" y="84" type="line"/>
      <point x="305" y="84" type="line"/>
      <point x="420" y="626" type="line"/>
      <point x="597" y="626" type="line"/>
      <point x="615" y="710" type="line"/>
      <point x="175" y="710" type="line"/>
      <point x="157" y="626" type="line"/>
      <point x="334" y="626" type="line"/>
      <point x="219" y="84" type="line"/>
      <point x="42" y="84" type="line"/>
    </contour>
  </outline>
</glyph>
<glyph name="J" format="2">
  <advance width="600"/>
  <unicode hex="004A"/>
  <anchor x="585" y="710" name="top"/>
  <outline>
    <contour>
      <point x="242" y="-16" type="curve" smooth="yes"/>
      <point x="388" y="-16"/>
      <point x="491" y="60"/>
      <point x="529" y="236" type="curve" smooth="yes"/>
      <point x="630" y="710" type="line"/>
      <point x="544" y="710" type="line"/>
      <point x="444" y="242" type="line" smooth="yes"/>
      <point x="418" y="122"/>
      <point x="353" y="68"/>
      <point x="258" y="68" type="curve" smooth="yes"/>
      <point x="174" y="68"/>
      <point x="137" y="102"/>
      <point x="137" y="180" type="curve" smooth="yes"/>
      <point x="137" y="196"/>
      <point x="140" y="222"/>
      <point x="143" y="238" type="curve"/>
      <point x="58" y="230" type="line"/>
      <point x="55" y="216"/>
      <point x="52" y="190"/>
      <point x="52" y="168" type="curve" smooth="yes"/>
      <point x="52" y="54"/>
      <point x="122" y="-16"/>
    </contour>
  </outline>
</glyph>
<glyph name="K" format="2">
  <advance width="600"/>
  <unicode hex="004B"/>
  <anchor x="218" y="0" name="bottom"/>
  <anchor x="362" y="710" name="top"/>
  <outline>
    <contour>
      <point x="114" y="224" type="line"/>
      <point x="633" y="710" type="line"/>
      <point x="525" y="710" type="line"/>
      <point x="138" y="344" type="line"/>
    </contour>
    <contour>
      <point x="0" y="0" type="line"/>
      <point x="86" y="0" type="line"/>
      <point x="237" y="710" type="line"/>
      <point x="151" y="710" type="line"/>
    </contour>
    <contour>
      <point x="384" y="0" type="line"/>
      <point x="488" y="0" type="line"/>
      <point x="284" y="422" type="line"/>
      <point x="214" y="360" type="line"/>
    </contour>
  </outline>
</glyph>
<glyph name="L" format="2">
  <advance width="600"/>
  <unicode hex="004C"/>
  <anchor x="245" y="0" name="bottom"/>
  <anchor x="189" y="380" name="center"/>
  <anchor x="218" y="710" name="top"/>
  <anchor x="371" y="530" name="topright"/>
  <outline>
    <contour>
      <point x="24" y="0" type="line"/>
      <point x="474" y="0" type="line"/>
      <point x="492" y="84" type="line"/>
      <point x="85" y="84" type="line"/>
      <point x="119" y="40" type="line"/>
      <point x="261" y="710" type="line"/>
      <point x="175" y="710" type="line"/>
    </contour>
  </outline>
</glyph>
<glyph name="M" format="2">
  <advance width="600"/>
  <unicode hex="004D"/>
  <anchor x="244" y="0" name="bottom"/>
  <anchor x="395" y="710" name="top"/>
  <outline>
    <contour>
      <point x="223" y="80" type="line"/>
      <point x="299" y="80" type="line"/>
      <point x="552" y="630" type="line"/>
      <point x="542" y="630" type="line"/>
      <point x="408" y="0" type="line"/>
      <point x="494" y="0" type="line"/>
      <point x="645" y="710" type="line"/>
      <point x="515" y="710" type="line"/>
      <point x="250" y="126" type="line"/>
      <point x="291" y="126" type="line"/>
      <point x="275" y="710" type="line"/>
      <point x="145" y="710" type="line"/>
      <point x="-6" y="0" type="line"/>
      <point x="80" y="0" type="line"/>
      <point x="214" y="630" type="line"/>
      <point x="204" y="630" type="line"/>
    </contour>
  </outline>
</glyph>
<glyph name="N" format="2">
  <advance width="600"/>
  <unicode hex="004E"/>
  <anchor x="244" y="0" name="bottom"/>
  <anchor x="395" y="710" name="top"/>
  <outline>
    <contour>
      <point x="14" y="0" type="line"/>
      <point x="100" y="0" type="line"/>
      <point x="238" y="652" type="line"/>
      <point x="222" y="652" type="line"/>
      <point x="352" y="0" type="line"/>
      <point x="474" y="0" type="line"/>
      <point x="625" y="710" type="line"/>
      <point x="539" y="710" type="line"/>
      <point x="401" y="58" type="line"/>
      <point x="417" y="58" type="line"/>
      <point x="287" y="710" type="line"/>
      <point x="165" y="710" type="line"/>
    </contour>
  </outline>
</glyph>
<glyph name="O" format="2">
  <advance width="600"/>
  <unicode hex="004F"/>
  <anchor x="243" y="0" name="bottom"/>
  <anchor x="319" y="355" name="center"/>
  <anchor x="343" y="0" name="ogonek"/>
  <anchor x="394" y="710" name="top"/>
  <anchor x="458" y="710" name="topright"/>
  <outline>
    <contour>
      <point x="240" y="-16" type="curve" smooth="yes"/>
      <point x="452" y="-16"/>
      <point x="595" y="206"/>
      <point x="595" y="496" type="curve" smooth="yes"/>
      <point x="595" y="646"/>
      <point x="528" y="726"/>
      <point x="398" y="726" type="curve" smooth="yes"/>
      <point x="186" y="726"/>
      <point x="43" y="502"/>
      <point x="43" y="212" type="curve" smooth="yes"/>
      <point x="43" y="64"/>
      <point x="110" y="-16"/>
    </contour>
    <contour>
      <point x="256" y="68" type="curve" smooth="yes"/>
      <point x="172" y="68"/>
      <point x="133" y="114"/>
      <point x="133" y="230" type="curve" smooth="yes"/>
      <point x="133" y="480"/>
      <point x="252" y="642"/>
      <point x="382" y="642" type="curve" smooth="yes"/>
      <point x="466" y="642"/>
      <point x="505" y="594"/>
      <point x="505" y="478" type="curve" smooth="yes"/>
      <point x="505" y="228"/>
      <point x="387" y="68"/>
    </contour>
  </outline>
</glyph>
<glyph name="P" format="2">
  <advance width="600"/>
  <unicode hex="0050"/>
  <anchor x="224" y="0" name="bottom"/>
  <anchor x="374" y="710" name="top"/>
  <outline>
    <contour>
      <point x="15" y="0" type="line"/>
      <point x="101" y="0" type="line"/>
      <point x="159" y="276" type="line"/>
      <point x="288" y="276" type="line" smooth="yes"/>
      <point x="458" y="276"/>
      <point x="582" y="376"/>
      <point x="582" y="542" type="curve" smooth="yes"/>
      <point x="582" y="645"/>
      <point x="509" y="710"/>
      <point x="380" y="710" type="curve" smooth="yes"/>
      <point x="165" y="710" type="line"/>
    </contour>
    <contour>
      <point x="177" y="360" type="line"/>
      <point x="234" y="626" type="line"/>
      <point x="353" y="626" type="line" smooth="yes"/>
      <point x="447" y="626"/>
      <point x="492" y="594"/>
      <point x="492" y="530" type="curve" smooth="yes"/>
      <point x="492" y="424"/>
      <point x="421" y="360"/>
      <point x="296" y="360" type="curve" smooth="yes"/>
    </contour>
  </outline>
</glyph>
<glyph name="Q" format="2">
  <advance width="600"/>
  <unicode hex="0051"/>
  <anchor x="244" y="0" name="bottom"/>
  <anchor x="395" y="710" name="top"/>
  <outline>
    <contour>
      <point x="316" y="-119" type="line"/>
      <point x="398" y="-119" type="line"/>
      <point x="346" y="218" type="line"/>
      <point x="264" y="218" type="line"/>
    </contour>
    <contour>
      <point x="240" y="-16" type="curve" smooth="yes"/>
      <point x="452" y="-16"/>
      <point x="595" y="206"/>
      <point x="595" y="496" type="curve" smooth="yes"/>
      <point x="595" y="646"/>
      <point x="528" y="726"/>
      <point x="398" y="726" type="curve" smooth="yes"/>
      <point x="186" y="726"/>
      <point x="43" y="502"/>
      <point x="43" y="212" type="curve" smooth="yes"/>
      <point x="43" y="64"/>
      <point x="110" y="-16"/>
    </contour>
    <contour>
      <point x="256" y="68" type="curve" smooth="yes"/>
      <point x="172" y="68"/>
      <point x="133" y="114"/>
      <point x="133" y="230" type="curve" smooth="yes"/>
      <point x="133" y="480"/>
      <point x="252" y="642"/>
      <point x="382" y="642" type="curve" smooth="yes"/>
      <point x="466" y="642"/>
      <point x="505" y="594"/>
      <point x="505" y="478" type="curve" smooth="yes"/>
      <point x="505" y="228"/>
      <point x="387" y="68"/>
    </contour>
  </outline>
</glyph>
<glyph name="R" format="2">
  <advance width="600"/>
  <unicode hex="0052"/>
  <anchor x="246" y="0" name="bottom"/>
  <anchor x="379" y="710" name="top"/>
  <outline>
    <contour>
      <point x="12" y="0" type="line"/>
      <point x="98" y="0" type="line"/>
      <point x="159" y="286" type="line"/>
      <point x="310" y="286" type="line" smooth="yes"/>
      <point x="392" y="286"/>
      <point x="416" y="259"/>
      <point x="416" y="217" type="curve" smooth="yes"/>
      <point x="416" y="203"/>
      <point x="413" y="181"/>
      <point x="410" y="157" type="curve" smooth="yes"/>
      <point x="390" y="0" type="line"/>
      <point x="476" y="0" type="line"/>
      <point x="495" y="153" type="line" smooth="yes"/>
      <point x="499" y="187"/>
      <point x="503" y="218"/>
      <point x="503" y="233" type="curve" smooth="yes"/>
      <point x="503" y="302"/>
      <point x="464" y="331"/>
      <point x="381" y="336" type="curve"/>
      <point x="383" y="324" type="line"/>
      <point x="487" y="332"/>
      <point x="582" y="421"/>
      <point x="582" y="545" type="curve" smooth="yes"/>
      <point x="582" y="651"/>
      <point x="508" y="710"/>
      <point x="379" y="710" type="curve" smooth="yes"/>
      <point x="163" y="710" type="line"/>
    </contour>
    <contour>
      <point x="177" y="370" type="line"/>
      <point x="231" y="626" type="line"/>
      <point x="361" y="626" type="line" smooth="yes"/>
      <point x="445" y="626"/>
      <point x="490" y="592"/>
      <point x="490" y="530" type="curve" smooth="yes"/>
      <point x="490" y="432"/>
      <point x="412" y="370"/>
      <point x="307" y="370" type="curve" smooth="yes"/>
    </contour>
  </outline>
</glyph>
<glyph name="S" format="2">
  <advance width="600"/>
  <unicode hex="0053"/>
  <anchor x="260" y="0" name="bottom"/>
  <anchor x="380" y="710" name="top"/>
  <outline>
    <contour>
      <point x="255" y="-16" type="curve" smooth="yes"/>
      <point x="413" y="-16"/>
      <point x="538" y="55"/>
      <point x="538" y="218" type="curve" smooth="yes"/>
      <point x="538" y="307"/>
      <point x="494" y="362"/>
      <point x="350" y="400" type="curve" smooth="yes"/>
      <point x="222" y="434"/>
      <point x="197" y="450"/>
      <point x="197" y="508" type="curve" smooth="yes"/>
      <point x="197" y="582"/>
      <point x="244" y="642"/>
      <point x="366" y="642" type="curve" smooth="yes"/>
      <point x="462" y="642"/>
      <point x="497" y="592"/>
      <point x="497" y="532" type="curve" smooth="yes"/>
      <point x="497" y="517"/>
      <point x="496" y="503"/>
      <point x="493" y="494" type="curve"/>
      <point x="583" y="500" type="line"/>
      <point x="586" y="509"/>
      <point x="587" y="526"/>
      <point x="587" y="540" type="curve" smooth="yes"/>
      <point x="587" y="653"/>
      <point x="517" y="726"/>
      <point x="377" y="726" type="curve" smooth="yes"/>
      <point x="202" y="726"/>
      <point x="107" y="632"/>
      <point x="107" y="500" type="curve" smooth="yes"/>
      <point x="107" y="405"/>
      <point x="156" y="361"/>
      <point x="284" y="328" type="curve" smooth="yes"/>
      <point x="426" y="291"/>
      <point x="448" y="262"/>
      <point x="448" y="208" type="curve" smooth="yes"/>
      <point x="448" y="107"/>
      <point x="371" y="68"/>
      <point x="268" y="68" type="curve" smooth="yes"/>
      <point x="165" y="68"/>
      <point x="122" y="109"/>
      <point x="122" y="182" type="curve" smooth="yes"/>
      <point x="122" y="202"/>
      <point x="125" y="223"/>
      <point x="128" y="233" type="curve"/>
      <point x="38" y="227" type="line"/>
      <point x="35" y="214"/>
      <point x="32" y="191"/>
      <point x="32" y="172" type="curve" smooth="yes"/>
      <point x="32" y="56"/>
      <point x="115" y="-16"/>
    </contour>
  </outline>
</glyph>
<glyph name="T" format="2">
  <advance width="600"/>
  <unicode hex="0054"/>
  <anchor x="244" y="0" name="bottom"/>
  <anchor x="318" y="348" name="center"/>
  <anchor x="395" y="710" name="top"/>
  <outline>
    <contour>
      <point x="201" y="0" type="line"/>
      <point x="287" y="0" type="line"/>
      <point x="420" y="626" type="line"/>
      <point x="637" y="626" type="line"/>
      <point x="655" y="710" type="line"/>
      <point x="135" y="710" type="line"/>
      <point x="117" y="626" type="line"/>
      <point x="334" y="626" type="line"/>
    </contour>
  </outline>
</glyph>
<glyph name="U" format="2">
  <advance width="600"/>
  <unicode hex="0055"/>
  <anchor x="244" y="0" name="bottom"/>
  <anchor x="338" y="0" name="ogonek"/>
  <anchor x="395" y="710" name="top"/>
  <anchor x="548" y="710" name="topright"/>
  <outline>
    <contour>
      <point x="241" y="-16" type="curve" smooth="yes"/>
      <point x="390" y="-16"/>
      <point x="498" y="70"/>
      <point x="536" y="248" type="curve" smooth="yes"/>
      <point x="634" y="710" type="line"/>
      <point x="548" y="710" type="line"/>
      <point x="450" y="248" type="line" smooth="yes"/>
      <point x="425" y="130"/>
      <point x="358" y="68"/>
      <point x="258" y="68" type="curve" smooth="yes"/>
      <point x="177" y="68"/>
      <point x="136" y="105"/>
      <point x="136" y="182" type="curve" smooth="yes"/>
      <point x="136" y="212"/>
      <point x="146" y="262"/>
      <point x="154" y="300" type="curve" smooth="yes"/>
      <point x="241" y="710" type="line"/>
      <point x="155" y="710" type="line"/>
      <point x="71" y="314" type="line" smooth="yes"/>
      <point x="56" y="246"/>
      <point x="48" y="198"/>
      <point x="48" y="172" type="curve" smooth="yes"/>
      <point x="48" y="54"/>
      <point x="117" y="-16"/>
    </contour>
  </outline>
</glyph>
<glyph name="V" format="2">
  <advance width="600"/>
  <unicode hex="0056"/>
  <anchor x="244" y="0" name="bottom"/>
  <anchor x="395" y="710" name="top"/>
  <outline>
    <contour>
      <point x="188" y="0" type="line"/>
      <point x="300" y="0" type="line"/>
      <point x="665" y="710" type="line"/>
      <point x="572" y="710" type="line"/>
      <point x="243" y="56" type="line"/>
      <point x="267" y="56" type="line"/>
      <point x="216" y="710" type="line"/>
      <point x="125" y="710" type="line"/>
    </contour>
  </outline>
</glyph>
<glyph name="W" format="2">
  <advance width="600"/>
  <unicode hex="0057"/>
  <anchor x="244" y="0" name="bottom"/>
  <anchor x="395" y="710" name="top"/>
  <outline>
    <contour>
      <point x="42" y="0" type="line"/>
      <point x="172" y="0" type="line"/>
      <point x="377" y="560" type="line"/>
      <point x="353" y="560" type="line"/>
      <point x="316" y="0" type="line"/>
      <point x="446" y="0" type="line"/>
      <point x="665" y="710" type="line"/>
      <point x="575" y="710" type="line"/>
      <point x="379" y="50" type="line"/>
      <point x="389" y="50" type="line"/>
      <point x="424" y="630" type="line"/>
      <point x="332" y="630" type="line"/>
      <point x="121" y="50" type="line"/>
      <point x="131" y="50" type="line"/>
      <point x="215" y="710" type="line"/>
      <point x="125" y="710" type="line"/>
    </contour>
  </outline>
</glyph>
<glyph name="X" format="2">
  <advance width="600"/>
  <unicode hex="0058"/>
  <anchor x="244" y="0" name="bottom"/>
  <anchor x="395" y="710" name="top"/>
  <outline>
    <contour>
      <point x="-6" y="0" type="line"/>
      <point x="95" y="0" type="line"/>
      <point x="306" y="289" type="line"/>
      <point x="397" y="0" type="line"/>
      <point x="494" y="0" type="line"/>
      <point x="374" y="354" type="line"/>
      <point x="641" y="710" type="line"/>
      <point x="540" y="710" type="line"/>
      <point x="333" y="425" type="line"/>
      <point x="246" y="710" type="line"/>
      <point x="149" y="710" type="line"/>
      <point x="266" y="359" type="line"/>
    </contour>
  </outline>
</glyph>
<glyph name="Y" format="2">
  <advance width="600"/>
  <unicode hex="0059"/>
  <anchor x="244" y="0" name="bottom"/>
  <anchor x="391" y="710" name="top"/>
  <outline>
    <contour>
      <point x="202" y="0" type="line"/>
      <point x="288" y="0" type="line"/>
      <point x="350" y="290" type="line"/>
      <point x="659" y="710" type="line"/>
      <point x="555" y="710" type="line"/>
      <point x="320" y="378" type="line"/>
      <point x="223" y="710" type="line"/>
      <point x="131" y="710" type="line"/>
      <point x="264" y="290" type="line"/>
    </contour>
  </outline>
</glyph>
<glyph name="Z" format="2">
  <advance width="600"/>
  <unicode hex="005A"/>
  <anchor x="244" y="0" name="bottom"/>
  <anchor x="395" y="710" name="top"/>
  <outline>
    <contour>
      <point x="-4" y="0" type="line"/>
      <point x="492" y="0" type="line"/>
      <point x="510" y="84" type="line"/>
      <point x="110" y="84" type="line"/>
      <point x="618" y="624" type="line"/>
      <point x="636" y="710" type="line"/>
      <point x="163" y="710" type="line"/>
      <point x="145" y="626" type="line"/>
      <point x="520" y="626" type="line"/>
      <point x="14" y="86" type="line"/>
    </contour>
  </outline>
</glyph>
<glyph name="backslash" format="2">
  <advance width="600"/>
  <unicode hex="005C"/>
  <outline>
    <contour>
      <point x="412" y="-110" type="line"/>
      <point x="291" y="750" type="line"/>
      <point x="211" y="750" type="line"/>
      <point x="332" y="-110" type="line"/>
    </contour>
  </outline>
</glyph>
<glyph name="bracketright" format="2">
  <advance width="600"/>
  <unicode hex="005D"/>
  <outline>
    <contour>
      <point x="61" y="-110" type="line"/>
      <point x="380" y="-110" type="line"/>
      <point x="562" y="750" type="line"/>
      <point x="243" y="750" type="line"/>
      <point x="229" y="680" type="line"/>
      <point x="468" y="680" type="line"/>
      <point x="314" y="-40" type="line"/>
      <point x="75" y="-40" type="line"/>
    </contour>
  </outline>
</glyph>
<glyph name="asciicircum" format="2">
  <advance width="600"/>
  <unicode hex="005E"/>
  <outline>
    <contour>
      <point x="143" y="373" type="line"/>
      <point x="227" y="373" type="line"/>
      <point x="382" y="649" type="line"/>
      <point x="370" y="649" type="line"/>
      <point x="423" y="373" type="line"/>
      <point x="503" y="373" type="line"/>
      <point x="440" y="710" type="line"/>
      <point x="334" y="710" type="line"/>
    </contour>
  </outline>
</glyph>
<glyph name="underscore" format="2">
  <advance width="600"/>
  <unicode hex="005F"/>
  <outline>
    <contour>
      <point x="7" y="-78" type="line"/>
      <point x="447" y="-78" type="line"/>
      <point x="464" y="0" type="line"/>
      <point x="24" y="0" type="line"/>
    </contour>
  </outline>
</glyph>
<glyph name="grave" format="2">
  <advance width="600"/>
  <unicode hex="0060"/>
  <outline>
    <contour>
      <point x="330" y="500" type="line"/>
      <point x="410" y="500" type="line"/>
      <point x="376" y="728" type="line"/>
      <point x="258" y="728" type="line"/>
    </contour>
  </outline>
</glyph>
<glyph name="a" format="2">
  <advance width="600"/>
  <unicode hex="0061"/>
  <anchor x="235" y="0" name="bottom"/>
  <anchor x="524" y="0" name="ogonek"/>
  <anchor x="334" y="530" name="top"/>
  <outline>
    <contour>
      <point x="192" y="-12" type="curve" smooth="yes"/>
      <point x="282" y="-12"/>
      <point x="345" y="44"/>
      <point x="396" y="157" type="curve"/>
      <point x="386" y="157" type="line"/>
      <point x="374" y="121"/>
      <point x="364" y="90"/>
      <point x="364" y="68" type="curve" smooth="yes"/>
      <point x="364" y="18"/>
      <point x="386" y="0"/>
      <point x="438" y="0" type="curve" smooth="yes"/>
      <point x="524" y="0" type="line"/>
      <point x="539" y="74" type="line"/>
      <point x="458" y="74" type="line" smooth="yes"/>
      <point x="440" y="74"/>
      <point x="431" y="80"/>
      <point x="431" y="92" type="curve" smooth="yes"/>
      <point x="431" y="104"/>
      <point x="436" y="126"/>
      <point x="442" y="152" type="curve" smooth="yes"/>
      <point x="522" y="530" type="line"/>
      <point x="334" y="530" type="line" smooth="yes"/>
      <point x="154" y="530"/>
      <point x="43" y="380"/>
      <point x="43" y="180" type="curve" smooth="yes"/>
      <point x="43" y="68"/>
      <point x="100" y="-12"/>
    </contour>
    <contour>
      <point x="216" y="68" type="curve" smooth="yes"/>
      <point x="162" y="68"/>
      <point x="131" y="106"/>
      <point x="131" y="190" type="curve" smooth="yes"/>
      <point x="131" y="340"/>
      <point x="205" y="456"/>
      <point x="323" y="456" type="curve" smooth="yes"/>
      <point x="425" y="456" type="line"/>
      <point x="396" y="304" type="line" smooth="yes"/>
      <point x="367" y="150"/>
      <point x="308" y="68"/>
    </contour>
  </outline>
</glyph>
<glyph name="b" format="2">
  <advance width="600"/>
  <unicode hex="0062"/>
  <anchor x="219" y="0" name="bottom"/>
  <anchor x="331" y="530" name="top"/>
  <outline>
    <contour>
      <point x="236" y="-12" type="curve" smooth="yes"/>
      <point x="424" y="-12"/>
      <point x="542" y="152"/>
      <point x="542" y="342" type="curve" smooth="yes"/>
      <point x="542" y="462"/>
      <point x="480" y="542"/>
      <point x="362" y="542" type="curve" smooth="yes"/>
      <point x="268" y="542"/>
      <point x="205" y="490"/>
      <point x="164" y="416" type="curve"/>
      <point x="180" y="412" type="line"/>
      <point x="243" y="710" type="line"/>
      <point x="159" y="710" type="line"/>
      <point x="8" y="0" type="line"/>
      <point x="84" y="0" type="line"/>
      <point x="116" y="117" type="line"/>
      <point x="100" y="102" type="line"/>
      <point x="105" y="42"/>
      <point x="157" y="-12"/>
    </contour>
    <contour>
      <point x="247" y="68" type="curve" smooth="yes"/>
      <point x="181" y="68"/>
      <point x="138" y="110"/>
      <point x="138" y="192" type="curve" smooth="yes"/>
      <point x="138" y="360"/>
      <point x="230" y="462"/>
      <point x="340" y="462" type="curve" smooth="yes"/>
      <point x="416" y="462"/>
      <point x="453" y="420"/>
      <point x="452" y="330" type="curve" smooth="yes"/>
      <point x="451" y="190"/>
      <point x="373" y="68"/>
    </contour>
  </outline>
</glyph>
<glyph name="c" format="2">
  <advance width="600"/>
  <unicode hex="0063"/>
  <anchor x="252" y="0" name="bottom"/>
  <anchor x="364" y="530" name="top"/>
  <outline>
    <contour>
      <point x="251" y="-12" type="curve" smooth="yes"/>
      <point x="371" y="-12"/>
      <point x="466" y="58"/>
      <point x="512" y="182" type="curve"/>
      <point x="426" y="188" type="line"/>
      <point x="393" y="108"/>
      <point x="335" y="68"/>
      <point x="267" y="68" type="curve" smooth="yes"/>
      <point x="187" y="68"/>
      <point x="151" y="113"/>
      <point x="151" y="199" type="curve" smooth="yes"/>
      <point x="151" y="342"/>
      <point x="238" y="462"/>
      <point x="350" y="462" type="curve" smooth="yes"/>
      <point x="426" y="462"/>
      <point x="457" y="428"/>
      <point x="457" y="352" type="curve"/>
      <point x="547" y="358" type="line"/>
      <point x="547" y="474"/>
      <point x="484" y="542"/>
      <point x="366" y="542" type="curve" smooth="yes"/>
      <point x="188" y="542"/>
      <point x="63" y="383"/>
      <point x="63" y="186" type="curve" smooth="yes"/>
      <point x="63" y="62"/>
      <point x="131" y="-12"/>
    </contour>
  </outline>
</glyph>
<glyph name="d" format="2">
  <advance width="600"/>
  <unicode hex="0064"/>
  <anchor x="269" y="0" name="bottom"/>
  <anchor x="530" y="616" name="center"/>
  <anchor x="381" y="530" name="top"/>
  <anchor x="611" y="530" name="topright"/>
  <outline>
    <contour>
      <point x="233" y="-12" type="curve" smooth="yes"/>
      <point x="316" y="-12"/>
      <point x="391" y="34"/>
      <point x="432" y="105" type="curve"/>
      <point x="424" y="122" type="line"/>
      <point x="402" y="0" type="line"/>
      <point x="478" y="0" type="line"/>
      <point x="629" y="710" type="line"/>
      <point x="545" y="710" type="line"/>
      <point x="483" y="416" type="line"/>
      <point x="497" y="431" type="line"/>
      <point x="488" y="497"/>
      <point x="424" y="542"/>
      <point x="350" y="542" type="curve" smooth="yes"/>
      <point x="188" y="542"/>
      <point x="58" y="386"/>
      <point x="58" y="178" type="curve" smooth="yes"/>
      <point x="58" y="58"/>
      <point x="123" y="-12"/>
    </contour>
    <contour>
      <point x="255" y="68" type="curve" smooth="yes"/>
      <point x="183" y="68"/>
      <point x="146" y="110"/>
      <point x="146" y="196" type="curve" smooth="yes"/>
      <point x="146" y="340"/>
      <point x="236" y="462"/>
      <point x="336" y="462" type="curve" smooth="yes"/>
      <point x="413" y="462"/>
      <point x="458" y="415"/>
      <point x="458" y="331" type="curve" smooth="yes"/>
      <point x="458" y="187"/>
      <point x="365" y="68"/>
    </contour>
  </outline>
</glyph>
<glyph name="e" format="2">
  <advance width="600"/>
  <unicode hex="0065"/>
  <anchor x="253" y="0" name="bottom"/>
  <anchor x="387" y="24" name="ogonek"/>
  <anchor x="362" y="528" name="top"/>
  <outline>
    <contour>
      <point x="249" y="-12" type="curve" smooth="yes"/>
      <point x="379" y="-12"/>
      <point x="460" y="55"/>
      <point x="504" y="150" type="curve"/>
      <point x="415" y="157" type="line"/>
      <point x="392" y="101"/>
      <point x="335" y="68"/>
      <point x="266" y="68" type="curve" smooth="yes"/>
      <point x="187" y="68"/>
      <point x="145" y="105"/>
      <point x="145" y="194" type="curve" smooth="yes"/>
      <point x="145" y="344"/>
      <point x="230" y="462"/>
      <point x="348" y="462" type="curve" smooth="yes"/>
      <point x="419" y="462"/>
      <point x="458" y="427"/>
      <point x="458" y="361" type="curve" smooth="yes"/>
      <point x="458" y="338"/>
      <point x="456" y="325"/>
      <point x="454" y="313" type="curve"/>
      <point x="151" y="313" type="line"/>
      <point x="135" y="239" type="line"/>
      <point x="530" y="239" type="line"/>
      <point x="540" y="274"/>
      <point x="546" y="316"/>
      <point x="546" y="354" type="curve" smooth="yes"/>
      <point x="546" y="478"/>
      <point x="481" y="542"/>
      <point x="363" y="542" type="curve" smooth="yes"/>
      <point x="175" y="542"/>
      <point x="57" y="383"/>
      <point x="57" y="182" type="curve" smooth="yes"/>
      <point x="57" y="60"/>
      <point x="129" y="-12"/>
    </contour>
  </outline>
</glyph>
<glyph name="f" format="2">
  <advance width="600"/>
  <unicode hex="0066"/>
  <anchor x="290" y="0" name="bottom"/>
  <anchor x="441" y="710" name="top"/>
  <outline>
    <contour>
      <point x="-32" y="-150" type="line"/>
      <point x="228" y="-150" type="line"/>
      <point x="380" y="564" type="line" smooth="yes"/>
      <point x="389" y="608"/>
      <point x="417" y="636"/>
      <point x="459" y="636" type="curve" smooth="yes"/>
      <point x="624" y="636" type="line"/>
      <point x="640" y="710" type="line"/>
      <point x="475" y="710" type="line" smooth="yes"/>
      <point x="375" y="710"/>
      <point x="316" y="659"/>
      <point x="296" y="564" type="curve" smooth="yes"/>
      <point x="152" y="-116" type="line"/>
      <point x="201" y="-76" type="line"/>
      <point x="-17" y="-76" type="line"/>
    </contour>
    <contour>
      <point x="111" y="456" type="line"/>
      <point x="576" y="456" type="line"/>
      <point x="592" y="530" type="line"/>
      <point x="127" y="530" type="line"/>
    </contour>
  </outline>
</glyph>
<glyph name="g" format="2">
  <advance width="600"/>
  <unicode hex="0067"/>
  <anchor x="212" y="-150" name="bottom"/>
  <anchor x="356" y="530" name="top"/>
  <outline>
    <contour>
      <point x="213" y="38" type="curve" smooth="yes"/>
      <point x="407" y="38"/>
      <point x="485" y="206"/>
      <point x="485" y="356" type="curve" smooth="yes"/>
      <point x="485" y="466"/>
      <point x="423" y="542"/>
      <point x="317" y="542" type="curve" smooth="yes"/>
      <point x="123" y="542"/>
      <point x="45" y="374"/>
      <point x="45" y="224" type="curve" smooth="yes"/>
      <point x="45" y="114"/>
      <point x="107" y="38"/>
    </contour>
    <contour>
      <point x="225" y="118" type="curve" smooth="yes"/>
      <point x="165" y="118"/>
      <point x="133" y="152"/>
      <point x="133" y="238" type="curve" smooth="yes"/>
      <point x="133" y="352"/>
      <point x="189" y="462"/>
      <point x="305" y="462" type="curve" smooth="yes"/>
      <point x="365" y="462"/>
      <point x="397" y="426"/>
      <point x="397" y="342" type="curve" smooth="yes"/>
      <point x="397" y="228"/>
      <point x="341" y="118"/>
    </contour>
    <contour>
      <point x="385" y="456" type="line"/>
      <point x="600" y="456" type="line"/>
      <point x="616" y="530" type="line"/>
      <point x="361" y="530" type="line"/>
    </contour>
    <contour>
      <point x="95" y="-150" type="curve" smooth="yes"/>
      <point x="472" y="-150" type="line"/>
      <point x="488" y="-76" type="line"/>
      <point x="117" y="-76" type="line" smooth="yes"/>
      <point x="85" y="-76"/>
      <point x="63" y="-60"/>
      <point x="63" y="-30" type="curve" smooth="yes"/>
      <point x="63" y="6"/>
      <point x="85" y="40"/>
      <point x="142" y="96" type="curve"/>
      <point x="96" y="140" type="line"/>
      <point x="26" y="75"/>
      <point x="-25" y="17"/>
      <point x="-25" y="-57" type="curve" smooth="yes"/>
      <point x="-25" y="-117"/>
      <point x="16" y="-150"/>
    </contour>
  </outline>
</glyph>
<glyph name="h" format="2">
  <advance width="600"/>
  <unicode hex="0068"/>
  <anchor x="234" y="0" name="bottom"/>
  <anchor x="251" y="616" name="center"/>
  <anchor x="228" y="710" name="top"/>
  <outline>
    <contour>
      <point x="33" y="0" type="line"/>
      <point x="117" y="0" type="line"/>
      <point x="184" y="316" type="line" smooth="yes"/>
      <point x="205" y="413"/>
      <point x="272" y="468"/>
      <point x="356" y="468" type="curve" smooth="yes"/>
      <point x="420" y="468"/>
      <point x="449" y="441"/>
      <point x="449" y="392" type="curve" smooth="yes"/>
      <point x="449" y="365"/>
      <point x="445" y="340"/>
      <point x="440" y="317" type="curve" smooth="yes"/>
      <point x="372" y="0" type="line"/>
      <point x="456" y="0" type="line"/>
      <point x="521" y="306" type="line" smooth="yes"/>
      <point x="527" y="332"/>
      <point x="535" y="374"/>
      <point x="535" y="406" type="curve" smooth="yes"/>
      <point x="535" y="485"/>
      <point x="489" y="542"/>
      <point x="386" y="542" type="curve" smooth="yes"/>
      <point x="300" y="542"/>
      <point x="232" y="500"/>
      <point x="192" y="416" type="curve"/>
      <point x="204" y="412" type="line"/>
      <point x="267" y="710" type="line"/>
      <point x="183" y="710" type="line"/>
    </contour>
  </outline>
</glyph>
<glyph name="k" format="2">
  <advance width="600"/>
  <unicode hex="006B"/>
  <anchor x="241" y="0" name="bottom"/>
  <anchor x="218" y="710" name="top"/>
  <outline>
    <contour>
      <point x="24" y="0" type="line"/>
      <point x="108" y="0" type="line"/>
      <point x="259" y="710" type="line"/>
      <point x="175" y="710" type="line"/>
    </contour>
    <contour>
      <point x="384" y="0" type="line"/>
      <point x="484" y="0" type="line"/>
      <point x="323" y="318" type="line"/>
      <point x="256" y="261" type="line"/>
    </contour>
    <contour>
      <point x="122" y="126" type="line"/>
      <point x="587" y="530" type="line"/>
      <point x="475" y="530" type="line"/>
      <point x="144" y="243" type="line"/>
    </contour>
  </outline>
</glyph>
<glyph name="l" format="2">
  <advance width="600"/>
  <unicode hex="006C"/>
  <anchor x="240" y="0" name="bottom"/>
  <anchor x="310" y="396" name="center"/>
  <anchor x="375" y="710" name="top"/>
  <anchor x="457" y="530" name="topright"/>
  <outline>
    <contour>
      <point x="313" y="0" type="curve" smooth="yes"/>
      <point x="503" y="0" type="line"/>
      <point x="519" y="74" type="line"/>
      <point x="335" y="74" type="line" smooth="yes"/>
      <point x="307" y="74"/>
      <point x="293" y="85"/>
      <point x="293" y="106" type="curve" smooth="yes"/>
      <point x="293" y="124"/>
      <point x="297" y="146"/>
      <point x="303" y="173" type="curve" smooth="yes"/>
      <point x="417" y="710" type="line"/>
      <point x="135" y="710" type="line"/>
      <point x="120" y="636" type="line"/>
      <point x="358" y="636" type="line"/>
      <point x="325" y="676" type="line"/>
      <point x="221" y="184" type="line" smooth="yes"/>
      <point x="213" y="146"/>
      <point x="205" y="106"/>
      <point x="205" y="80" type="curve" smooth="yes"/>
      <point x="205" y="28"/>
      <point x="234" y="0"/>
    </contour>
  </outline>
</glyph>
<glyph name="m" format="2">
  <advance width="600"/>
  <unicode hex="006D"/>
  <anchor x="247" y="0" name="bottom"/>
  <anchor x="383" y="530" name="top"/>
  <outline>
    <contour>
      <point x="-16" y="0" type="line"/>
      <point x="68" y="0" type="line"/>
      <point x="140" y="338" type="line" smooth="yes"/>
      <point x="159" y="428"/>
      <point x="197" y="468"/>
      <point x="239" y="468" type="curve" smooth="yes"/>
      <point x="269" y="468"/>
      <point x="283" y="450"/>
      <point x="283" y="412" type="curve" smooth="yes"/>
      <point x="283" y="393"/>
      <point x="280" y="369"/>
      <point x="274" y="340" type="curve" smooth="yes"/>
      <point x="202" y="0" type="line"/>
      <point x="286" y="0" type="line"/>
      <point x="358" y="338" type="line" smooth="yes"/>
      <point x="377" y="428"/>
      <point x="415" y="468"/>
      <point x="457" y="468" type="curve" smooth="yes"/>
      <point x="486" y="468"/>
      <point x="501" y="450"/>
      <point x="501" y="412" type="curve" smooth="yes"/>
      <point x="501" y="393"/>
      <point x="498" y="369"/>
      <point x="492" y="340" type="curve" smooth="yes"/>
      <point x="420" y="0" type="line"/>
      <point x="504" y="0" type="line"/>
      <point x="576" y="338" type="line" smooth="yes"/>
      <point x="582" y="368"/>
      <point x="590" y="404"/>
      <point x="590" y="440" type="curve" smooth="yes"/>
      <point x="590" y="511"/>
      <point x="560" y="542"/>
      <point x="498" y="542" type="curve" smooth="yes"/>
      <point x="431" y="542"/>
      <point x="378" y="490"/>
      <point x="349" y="408" type="curve"/>
      <point x="358" y="408" type="line"/>
      <point x="360" y="421"/>
      <point x="361" y="437"/>
      <point x="361" y="448" type="curve" smooth="yes"/>
      <point x="361" y="508"/>
      <point x="336" y="542"/>
      <point x="283" y="542" type="curve" smooth="yes"/>
      <point x="222" y="542"/>
      <point x="170" y="492"/>
      <point x="142" y="414" type="curve"/>
      <point x="151" y="412" type="line"/>
      <point x="174" y="530" type="line"/>
      <point x="97" y="530" type="line"/>
    </contour>
  </outline>
</glyph>
<glyph name="n" format="2">
  <advance width="600"/>
  <unicode hex="006E"/>
  <anchor x="247" y="0" name="bottom"/>
  <anchor x="360" y="530" name="top"/>
  <outline>
    <contour>
      <point x="28" y="0" type="line"/>
      <point x="112" y="0" type="line"/>
      <point x="180" y="317" type="line" smooth="yes"/>
      <point x="201" y="415"/>
      <point x="270" y="468"/>
      <point x="356" y="468" type="curve" smooth="yes"/>
      <point x="423" y="468"/>
      <point x="453" y="441"/>
      <point x="453" y="394" type="curve" smooth="yes"/>
      <point x="453" y="365"/>
      <point x="449" y="340"/>
      <point x="444" y="317" type="curve" smooth="yes"/>
      <point x="376" y="0" type="line"/>
      <point x="460" y="0" type="line"/>
      <point x="525" y="306" type="line" smooth="yes"/>
      <point x="531" y="332"/>
      <point x="539" y="374"/>
      <point x="539" y="408" type="curve" smooth="yes"/>
      <point x="539" y="485"/>
      <point x="492" y="542"/>
      <point x="386" y="542" type="curve" smooth="yes"/>
      <point x="299" y="542"/>
      <point x="224" y="498"/>
      <point x="184" y="404" type="curve"/>
      <point x="192" y="395" type="line"/>
      <point x="218" y="530" type="line"/>
      <point x="141" y="530" type="line"/>
    </contour>
  </outline>
</glyph>
<glyph name="o" format="2">
  <advance width="600"/>
  <unicode hex="006F"/>
  <anchor x="244" y="0" name="bottom"/>
  <anchor x="300" y="265" name="center"/>
  <anchor x="321" y="0" name="ogonek"/>
  <anchor x="356" y="530" name="top"/>
  <anchor x="418" y="530" name="topright"/>
  <outline>
    <contour>
      <point x="243" y="-12" type="curve" smooth="yes"/>
      <point x="437" y="-12"/>
      <point x="551" y="166"/>
      <point x="551" y="356" type="curve" smooth="yes"/>
      <point x="551" y="466"/>
      <point x="483" y="542"/>
      <point x="357" y="542" type="curve" smooth="yes"/>
      <point x="163" y="542"/>
      <point x="49" y="364"/>
      <point x="49" y="174" type="curve" smooth="yes"/>
      <point x="49" y="64"/>
      <point x="117" y="-12"/>
    </contour>
    <contour>
      <point x="255" y="68" type="curve" smooth="yes"/>
      <point x="175" y="68"/>
      <point x="137" y="102"/>
      <point x="137" y="188" type="curve" smooth="yes"/>
      <point x="137" y="342"/>
      <point x="229" y="462"/>
      <point x="345" y="462" type="curve" smooth="yes"/>
      <point x="425" y="462"/>
      <point x="463" y="426"/>
      <point x="463" y="342" type="curve" smooth="yes"/>
      <point x="463" y="188"/>
      <point x="371" y="68"/>
    </contour>
  </outline>
</glyph>
<glyph name="p" format="2">
  <advance width="600"/>
  <unicode hex="0070"/>
  <anchor x="228" y="0" name="bottom"/>
  <anchor x="340" y="530" name="top"/>
  <outline>
    <contour>
      <point x="-24" y="-150" type="line"/>
      <point x="60" y="-150" type="line"/>
      <point x="116" y="114" type="line"/>
      <point x="102" y="102" type="line"/>
      <point x="108" y="34"/>
      <point x="164" y="-12"/>
      <point x="244" y="-12" type="curve" smooth="yes"/>
      <point x="410" y="-12"/>
      <point x="542" y="134"/>
      <point x="542" y="342" type="curve" smooth="yes"/>
      <point x="542" y="461"/>
      <point x="482" y="542"/>
      <point x="365" y="542" type="curve" smooth="yes"/>
      <point x="283" y="542"/>
      <point x="208" y="498"/>
      <point x="164" y="416" type="curve"/>
      <point x="175" y="410" type="line"/>
      <point x="198" y="530" type="line"/>
      <point x="120" y="530" type="line"/>
    </contour>
    <contour>
      <point x="248" y="68" type="curve" smooth="yes"/>
      <point x="184" y="68"/>
      <point x="140" y="110"/>
      <point x="140" y="192" type="curve" smooth="yes"/>
      <point x="140" y="360"/>
      <point x="232" y="462"/>
      <point x="342" y="462" type="curve" smooth="yes"/>
      <point x="418" y="462"/>
      <point x="453" y="420"/>
      <point x="452" y="330" type="curve" smooth="yes"/>
      <point x="451" y="190"/>
      <point x="372" y="68"/>
    </contour>
  </outline>
</glyph>
<glyph name="q" format="2">
  <advance width="600"/>
  <unicode hex="0071"/>
  <anchor x="371" y="0" name="bottom"/>
  <anchor x="484" y="530" name="top"/>
  <outline>
    <contour>
      <point x="445" y="-150" type="line"/>
      <point x="590" y="530" type="line"/>
      <point x="512" y="530" type="line"/>
      <point x="484" y="410" type="line"/>
      <point x="498" y="416" type="line"/>
      <point x="489" y="498"/>
      <point x="434" y="542"/>
      <point x="352" y="542" type="curve" smooth="yes"/>
      <point x="163" y="542"/>
      <point x="58" y="350"/>
      <point x="58" y="180" type="curve" smooth="yes"/>
      <point x="58" y="72"/>
      <point x="108" y="-12"/>
      <point x="234" y="-12" type="curve" smooth="yes"/>
      <point x="316" y="-12"/>
      <point x="394" y="32"/>
      <point x="427" y="100" type="curve"/>
      <point x="418" y="114" type="line"/>
      <point x="361" y="-150" type="line"/>
    </contour>
    <contour>
      <point x="255" y="68" type="curve" smooth="yes"/>
      <point x="183" y="68"/>
      <point x="146" y="110"/>
      <point x="146" y="196" type="curve" smooth="yes"/>
      <point x="146" y="340"/>
      <point x="236" y="462"/>
      <point x="336" y="462" type="curve" smooth="yes"/>
      <point x="413" y="462"/>
      <point x="457" y="415"/>
      <point x="457" y="331" type="curve" smooth="yes"/>
      <point x="457" y="187"/>
      <point x="365" y="68"/>
    </contour>
  </outline>
</glyph>
<glyph name="r" format="2">
  <advance width="600"/>
  <unicode hex="0072"/>
  <anchor x="198" y="0" name="bottom"/>
  <anchor x="380" y="530" name="top"/>
  <outline>
    <contour>
      <point x="19" y="0" type="line"/>
      <point x="409" y="0" type="line"/>
      <point x="424" y="74" type="line"/>
      <point x="257" y="74" type="line"/>
      <point x="309" y="320" type="line" smooth="yes"/>
      <point x="327" y="407"/>
      <point x="379" y="454"/>
      <point x="457" y="454" type="curve" smooth="yes"/>
      <point x="566" y="454" type="line"/>
      <point x="582" y="530" type="line"/>
      <point x="472" y="530" type="line" smooth="yes"/>
      <point x="397" y="530"/>
      <point x="343" y="488"/>
      <point x="311" y="397" type="curve"/>
      <point x="318" y="389" type="line"/>
      <point x="339" y="530" type="line"/>
      <point x="131" y="530" type="line"/>
      <point x="115" y="456" type="line"/>
      <point x="253" y="456" type="line"/>
      <point x="173" y="74" type="line"/>
      <point x="34" y="74" type="line"/>
    </contour>
  </outline>
</glyph>
<glyph name="s" format="2">
  <advance width="600"/>
  <unicode hex="0073"/>
  <anchor x="285" y="0" name="bottom"/>
  <anchor x="398" y="530" name="top"/>
  <outline>
    <contour>
      <point x="272" y="-12" type="curve" smooth="yes"/>
      <point x="406" y="-12"/>
      <point x="506" y="60"/>
      <point x="506" y="170" type="curve" smooth="yes"/>
      <point x="506" y="254"/>
      <point x="463" y="293"/>
      <point x="312" y="328" type="curve" smooth="yes"/>
      <point x="252" y="342"/>
      <point x="242" y="357"/>
      <point x="242" y="392" type="curve" smooth="yes"/>
      <point x="242" y="434"/>
      <point x="266" y="456"/>
      <point x="318" y="456" type="curve" smooth="yes"/>
      <point x="518" y="456" type="line"/>
      <point x="534" y="530" type="line"/>
      <point x="320" y="530" type="line" smooth="yes"/>
      <point x="202" y="530"/>
      <point x="154" y="462"/>
      <point x="154" y="390" type="curve" smooth="yes"/>
      <point x="154" y="314"/>
      <point x="196" y="273"/>
      <point x="290" y="252" type="curve" smooth="yes"/>
      <point x="396" y="228"/>
      <point x="418" y="206"/>
      <point x="418" y="162" type="curve" smooth="yes"/>
      <point x="418" y="98"/>
      <point x="356" y="68"/>
      <point x="278" y="68" type="curve" smooth="yes"/>
      <point x="194" y="68"/>
      <point x="145" y="99"/>
      <point x="137" y="173" type="curve"/>
      <point x="49" y="164" type="line"/>
      <point x="59" y="59"/>
      <point x="144" y="-12"/>
    </contour>
  </outline>
</glyph>
<glyph name="t" format="2">
  <advance width="600"/>
  <unicode hex="0074"/>
  <anchor x="296" y="0" name="bottom"/>
  <anchor x="286" y="290" name="center"/>
  <anchor x="347" y="530" name="top"/>
  <anchor x="433" y="616" name="topright"/>
  <outline>
    <contour>
      <point x="294" y="0" type="curve" smooth="yes"/>
      <point x="483" y="0" type="line"/>
      <point x="499" y="74" type="line"/>
      <point x="316" y="74" type="line" smooth="yes"/>
      <point x="288" y="74"/>
      <point x="274" y="85"/>
      <point x="274" y="106" type="curve" smooth="yes"/>
      <point x="274" y="124"/>
      <point x="278" y="146"/>
      <point x="284" y="173" type="curve" smooth="yes"/>
      <point x="387" y="654" type="line"/>
      <point x="303" y="654" type="line"/>
      <point x="202" y="184" type="line" smooth="yes"/>
      <point x="193" y="146"/>
      <point x="186" y="106"/>
      <point x="186" y="80" type="curve" smooth="yes"/>
      <point x="186" y="28"/>
      <point x="215" y="0"/>
    </contour>
    <contour>
      <point x="71" y="456" type="line"/>
      <point x="580" y="456" type="line"/>
      <point x="596" y="530" type="line"/>
      <point x="87" y="530" type="line"/>
    </contour>
  </outline>
</glyph>
<glyph name="u" format="2">
  <advance width="600"/>
  <unicode hex="0075"/>
  <anchor x="239" y="0" name="bottom"/>
  <anchor x="463" y="0" name="ogonek"/>
  <anchor x="352" y="530" name="top"/>
  <anchor x="492" y="530" name="topright"/>
  <outline>
    <contour>
      <point x="207" y="-12" type="curve" smooth="yes"/>
      <point x="307" y="-12"/>
      <point x="383" y="37"/>
      <point x="422" y="124" type="curve"/>
      <point x="411" y="131" type="line"/>
      <point x="383" y="0" type="line"/>
      <point x="463" y="0" type="line"/>
      <point x="576" y="530" type="line"/>
      <point x="492" y="530" type="line"/>
      <point x="424" y="214" type="line" smooth="yes"/>
      <point x="404" y="119"/>
      <point x="339" y="62"/>
      <point x="239" y="62" type="curve" smooth="yes"/>
      <point x="174" y="62"/>
      <point x="145" y="88"/>
      <point x="145" y="133" type="curve" smooth="yes"/>
      <point x="145" y="166"/>
      <point x="150" y="196"/>
      <point x="157" y="230" type="curve" smooth="yes"/>
      <point x="221" y="530" type="line"/>
      <point x="137" y="530" type="line"/>
      <point x="75" y="240" type="line" smooth="yes"/>
      <point x="67" y="204"/>
      <point x="57" y="157"/>
      <point x="57" y="118" type="curve" smooth="yes"/>
      <point x="57" y="39"/>
      <point x="108" y="-12"/>
    </contour>
  </outline>
</glyph>
<glyph name="v" format="2">
  <advance width="600"/>
  <unicode hex="0076"/>
  <anchor x="244" y="0" name="bottom"/>
  <anchor x="356" y="530" name="top"/>
  <outline>
    <contour>
      <point x="191" y="0" type="line"/>
      <point x="297" y="0" type="line"/>
      <point x="610" y="530" type="line"/>
      <point x="516" y="530" type="line"/>
      <point x="259" y="86" type="line"/>
      <point x="192" y="530" type="line"/>
      <point x="102" y="530" type="line"/>
    </contour>
  </outline>
</glyph>
<glyph name="w" format="2">
  <advance width="600"/>
  <unicode hex="0077"/>
  <anchor x="243" y="0" name="bottom"/>
  <anchor x="356" y="530" name="top"/>
  <outline>
    <contour>
      <point x="48" y="0" type="line"/>
      <point x="153" y="0" type="line"/>
      <point x="314" y="334" type="line"/>
      <point x="333" y="0" type="line"/>
      <point x="439" y="0" type="line"/>
      <point x="636" y="530" type="line"/>
      <point x="542" y="530" type="line"/>
      <point x="401" y="88" type="line"/>
      <point x="381" y="456" type="line"/>
      <point x="299" y="456" type="line"/>
      <point x="123" y="88" type="line"/>
      <point x="166" y="530" type="line"/>
      <point x="76" y="530" type="line"/>
    </contour>
  </outline>
</glyph>
<glyph name="x" format="2">
  <advance width="600"/>
  <unicode hex="0078"/>
  <anchor x="244" y="0" name="bottom"/>
  <anchor x="356" y="530" name="top"/>
  <outline>
    <contour>
      <point x="-16" y="0" type="line"/>
      <point x="89" y="0" type="line"/>
      <point x="291" y="214" type="line"/>
      <point x="409" y="0" type="line"/>
      <point x="504" y="0" type="line"/>
      <point x="354" y="268" type="line"/>
      <point x="607" y="530" type="line"/>
      <point x="502" y="530" type="line"/>
      <point x="314" y="330" type="line"/>
      <point x="201" y="530" type="line"/>
      <point x="106" y="530" type="line"/>
      <point x="250" y="274" type="line"/>
    </contour>
  </outline>
</glyph>
<glyph name="y" format="2">
  <advance width="600"/>
  <unicode hex="0079"/>
  <anchor x="420" y="0" name="bottom"/>
  <anchor x="356" y="530" name="top"/>
  <outline>
    <contour>
      <point x="-5" y="-150" type="line"/>
      <point x="124" y="-150" type="line" smooth="yes"/>
      <point x="195" y="-150"/>
      <point x="236" y="-124"/>
      <point x="269" y="-67" type="curve" smooth="yes"/>
      <point x="612" y="530" type="line"/>
      <point x="515" y="530" type="line"/>
      <point x="254" y="52" type="line"/>
      <point x="281" y="48" type="line"/>
      <point x="188" y="530" type="line"/>
      <point x="100" y="530" type="line"/>
      <point x="202" y="10" type="line"/>
      <point x="231" y="10" type="line"/>
      <point x="201" y="-40" type="line" smooth="yes"/>
      <point x="186" y="-65"/>
      <point x="168" y="-76"/>
      <point x="131" y="-76" type="curve" smooth="yes"/>
      <point x="10" y="-76" type="line"/>
    </contour>
  </outline>
</glyph>
<glyph name="z" format="2">
  <advance width="600"/>
  <unicode hex="007A"/>
  <anchor x="240" y="0" name="bottom"/>
  <anchor x="353" y="530" name="top"/>
  <outline>
    <contour>
      <point x="66" y="0" type="line"/>
      <point x="549" y="446" type="line"/>
      <point x="567" y="530" type="line"/>
      <point x="141" y="530" type="line"/>
      <point x="125" y="456" type="line"/>
      <point x="454" y="456" type="line"/>
      <point x="16" y="56" type="line"/>
    </contour>
    <contour>
      <point x="444" y="-72" type="line"/>
      <point x="484" y="0" type="line"/>
      <point x="200" y="176" type="line"/>
      <point x="160" y="108" type="line"/>
    </contour>
  </outline>
</glyph>
<glyph name="braceleft" format="2">
  <advance width="600"/>
  <unicode hex="007B"/>
  <outline>
    <contour>
      <point x="320" y="-120" type="curve" smooth="yes"/>
      <point x="408" y="-120" type="line"/>
      <point x="425" y="-42" type="line"/>
      <point x="338" y="-42" type="line" smooth="yes"/>
      <point x="290" y="-42"/>
      <point x="270" y="-23"/>
      <point x="270" y="15" type="curve" smooth="yes"/>
      <point x="270" y="57"/>
      <point x="302" y="156"/>
      <point x="302" y="206" type="curve" smooth="yes"/>
      <point x="302" y="268"/>
      <point x="273" y="304"/>
      <point x="200" y="312" type="curve"/>
      <point x="201" y="318" type="line"/>
      <point x="301" y="328"/>
      <point x="346" y="388"/>
      <point x="367" y="488" type="curve" smooth="yes"/>
      <point x="387" y="580" type="line" smooth="yes"/>
      <point x="400" y="641"/>
      <point x="428" y="672"/>
      <point x="489" y="672" type="curve" smooth="yes"/>
      <point x="576" y="672" type="line"/>
      <point x="593" y="750" type="line"/>
      <point x="505" y="750" type="line" smooth="yes"/>
      <point x="389" y="750"/>
      <point x="328" y="679"/>
      <point x="306" y="578" type="curve" smooth="yes"/>
      <point x="284" y="474" type="line" smooth="yes"/>
      <point x="266" y="388"/>
      <point x="237" y="356"/>
      <point x="129" y="356" type="curve"/>
      <point x="112" y="274" type="line"/>
      <point x="196" y="274"/>
      <point x="223" y="255"/>
      <point x="223" y="206" type="curve" smooth="yes"/>
      <point x="223" y="158"/>
      <point x="188" y="44"/>
      <point x="188" y="-4" type="curve" smooth="yes"/>
      <point x="188" y="-74"/>
      <point x="227" y="-120"/>
    </contour>
  </outline>
</glyph>
<glyph name="bar" format="2">
  <advance width="600"/>
  <unicode hex="007C"/>
  <outline>
    <contour>
      <point x="180" y="-110" type="line"/>
      <point x="260" y="-110" type="line"/>
      <point x="443" y="750" type="line"/>
      <point x="363" y="750" type="line"/>
    </contour>
  </outline>
</glyph>
<glyph name="asciitilde" format="2">
  <advance width="600"/>
  <unicode hex="007E"/>
  <outline>
    <contour>
      <point x="389" y="236" type="curve" smooth="yes"/>
      <point x="467" y="236"/>
      <point x="527" y="295"/>
      <point x="553" y="420" type="curve"/>
      <point x="474" y="420" type="line"/>
      <point x="457" y="338"/>
      <point x="433" y="313"/>
      <point x="397" y="313" type="curve" smooth="yes"/>
      <point x="375" y="313"/>
      <point x="361" y="324"/>
      <point x="341" y="364" type="curve" smooth="yes"/>
      <point x="318" y="410"/>
      <point x="288" y="430"/>
      <point x="239" y="430" type="curve" smooth="yes"/>
      <point x="160" y="430"/>
      <point x="110" y="371"/>
      <point x="76" y="246" type="curve"/>
      <point x="155" y="246" type="line"/>
      <point x="172" y="330"/>
      <point x="199" y="353"/>
      <point x="231" y="353" type="curve" smooth="yes"/>
      <point x="253" y="353"/>
      <point x="265" y="342"/>
      <point x="289" y="300" type="curve" smooth="yes"/>
      <point x="315" y="255"/>
      <point x="342" y="236"/>
    </contour>
  </outline>
</glyph>
<glyph name="cent" format="2">
  <advance width="600"/>
  <unicode hex="00A2"/>
  <anchor x="271" y="90" name="bottom"/>
  <anchor x="383" y="620" name="top"/>
  <outline>
    <contour>
      <point x="172" y="-12" type="line"/>
      <point x="242" y="-12" type="line"/>
      <point x="461" y="726" type="line"/>
      <point x="391" y="726" type="line"/>
    </contour>
    <component base="c" xOffset="19" yOffset="90"/>
  </outline>
</glyph>
<glyph name="sterling" format="2">
  <advance width="600"/>
  <unicode hex="00A3"/>
  <outline>
    <contour>
      <point x="-5" y="0" type="line"/>
      <point x="473" y="0" type="line"/>
      <point x="491" y="87" type="line"/>
      <point x="99" y="87" type="line"/>
      <point x="185" y="124"/>
      <point x="259" y="236"/>
      <point x="259" y="376" type="curve" smooth="yes"/>
      <point x="259" y="572"/>
      <point x="311" y="642"/>
      <point x="411" y="642" type="curve" smooth="yes"/>
      <point x="485" y="642"/>
      <point x="511" y="603"/>
      <point x="511" y="543" type="curve"/>
      <point x="611" y="550" type="line"/>
      <point x="611" y="630"/>
      <point x="565" y="726"/>
      <point x="425" y="726" type="curve" smooth="yes"/>
      <point x="237" y="726"/>
      <point x="171" y="603"/>
      <point x="171" y="376" type="curve" smooth="yes"/>
      <point x="171" y="206"/>
      <point x="116" y="156"/>
      <point x="12" y="82" type="curve"/>
    </contour>
    <contour>
      <point x="61" y="317" type="line"/>
      <point x="418" y="317" type="line"/>
      <point x="434" y="391" type="line"/>
      <point x="77" y="391" type="line"/>
    </contour>
  </outline>
</glyph>
<glyph name="currency" format="2">
  <advance width="600"/>
  <unicode hex="00A4"/>
  <outline>
    <contour>
      <point x="279" y="166" type="curve" smooth="yes"/>
      <point x="421" y="166"/>
      <point x="540" y="281"/>
      <point x="540" y="421" type="curve" smooth="yes"/>
      <point x="540" y="525"/>
      <point x="468" y="588"/>
      <point x="369" y="588" type="curve" smooth="yes"/>
      <point x="227" y="588"/>
      <point x="108" y="473"/>
      <point x="108" y="333" type="curve" smooth="yes"/>
      <point x="108" y="229"/>
      <point x="180" y="166"/>
    </contour>
    <contour>
      <point x="294" y="236" type="curve" smooth="yes"/>
      <point x="220" y="236"/>
      <point x="180" y="273"/>
      <point x="180" y="343" type="curve" smooth="yes"/>
      <point x="180" y="443"/>
      <point x="262" y="518"/>
      <point x="354" y="518" type="curve" smooth="yes"/>
      <point x="428" y="518"/>
      <point x="468" y="479"/>
      <point x="468" y="409" type="curve" smooth="yes"/>
      <point x="468" y="309"/>
      <point x="383" y="236"/>
    </contour>
    <contour>
      <point x="65" y="109" type="line"/>
      <point x="211" y="232" type="line"/>
      <point x="165" y="290" type="line"/>
      <point x="19" y="166" type="line"/>
    </contour>
    <contour>
      <point x="471" y="111" type="line"/>
      <point x="539" y="166" type="line"/>
      <point x="451" y="290" type="line"/>
      <point x="383" y="234" type="line"/>
    </contour>
    <contour>
      <point x="483" y="465" type="line"/>
      <point x="629" y="589" type="line"/>
      <point x="583" y="646" type="line"/>
      <point x="437" y="523" type="line"/>
    </contour>
    <contour>
      <point x="197" y="465" type="line"/>
      <point x="265" y="521" type="line"/>
      <point x="177" y="644" type="line"/>
      <point x="109" y="589" type="line"/>
    </contour>
  </outline>
</glyph>
<glyph name="yen" format="2">
  <advance width="600"/>
  <unicode hex="00A5"/>
  <anchor x="244" y="0" name="bottom"/>
  <anchor x="391" y="710" name="top"/>
  <outline>
    <contour>
      <point x="54" y="143" type="line"/>
      <point x="500" y="143" type="line"/>
      <point x="517" y="221" type="line"/>
      <point x="71" y="221" type="line"/>
    </contour>
    <contour>
      <point x="85" y="291" type="line"/>
      <point x="531" y="291" type="line"/>
      <point x="548" y="369" type="line"/>
      <point x="102" y="369" type="line"/>
    </contour>
    <component base="Y"/>
  </outline>
</glyph>
<glyph name="brokenbar" format="2">
  <advance width="600"/>
  <unicode hex="00A6"/>
  <outline>
    <contour>
      <point x="288" y="395" type="line"/>
      <point x="367" y="395" type="line"/>
      <point x="443" y="750" type="line"/>
      <point x="364" y="750" type="line"/>
    </contour>
    <contour>
      <point x="181" y="-110" type="line"/>
      <point x="260" y="-110" type="line"/>
      <point x="336" y="245" type="line"/>
      <point x="257" y="245" type="line"/>
    </contour>
  </outline>
</glyph>
<glyph name="section" format="2">
  <advance width="600"/>
  <unicode hex="00A7"/>
  <outline>
    <contour>
      <point x="238" y="-64" type="curve" smooth="yes"/>
      <point x="390" y="-64"/>
      <point x="482" y="13"/>
      <point x="482" y="116" type="curve" smooth="yes"/>
      <point x="482" y="163"/>
      <point x="461" y="188"/>
      <point x="421" y="209" type="curve"/>
      <point x="495" y="236"/>
      <point x="533" y="275"/>
      <point x="533" y="345" type="curve" smooth="yes"/>
      <point x="533" y="406"/>
      <point x="503" y="454"/>
      <point x="361" y="490" type="curve" smooth="yes"/>
      <point x="274" y="512"/>
      <point x="251" y="530"/>
      <point x="251" y="561" type="curve" smooth="yes"/>
      <point x="251" y="612"/>
      <point x="290" y="646"/>
      <point x="378" y="646" type="curve" smooth="yes"/>
      <point x="465" y="646"/>
      <point x="492" y="617"/>
      <point x="492" y="550" type="curve"/>
      <point x="579" y="556" type="line"/>
      <point x="579" y="671"/>
      <point x="524" y="726"/>
      <point x="392" y="726" type="curve" smooth="yes"/>
      <point x="247" y="726"/>
      <point x="161" y="655"/>
      <point x="161" y="551" type="curve" smooth="yes"/>
      <point x="161" y="514"/>
      <point x="184" y="483"/>
      <point x="231" y="460" type="curve"/>
      <point x="161" y="441"/>
      <point x="108" y="387"/>
      <point x="108" y="319" type="curve" smooth="yes"/>
      <point x="108" y="248"/>
      <point x="139" y="215"/>
      <point x="268" y="183" type="curve" smooth="yes"/>
      <point x="358" y="161"/>
      <point x="392" y="145"/>
      <point x="392" y="100" type="curve" smooth="yes"/>
      <point x="392" y="36"/>
      <point x="326" y="16"/>
      <point x="255" y="16" type="curve" smooth="yes"/>
      <point x="169" y="16"/>
      <point x="136" y="41"/>
      <point x="136" y="121" type="curve"/>
      <point x="48" y="115" type="line"/>
      <point x="48" y="-10"/>
      <point x="104" y="-64"/>
    </contour>
    <contour>
      <point x="333" y="248" type="curve" smooth="yes"/>
      <point x="242" y="248"/>
      <point x="190" y="276"/>
      <point x="190" y="331" type="curve" smooth="yes"/>
      <point x="190" y="382"/>
      <point x="227" y="420"/>
      <point x="310" y="420" type="curve" smooth="yes"/>
      <point x="420" y="420"/>
      <point x="451" y="383"/>
      <point x="451" y="336" type="curve" smooth="yes"/>
      <point x="451" y="276"/>
      <point x="397" y="248"/>
    </contour>
  </outline>
</glyph>
<glyph name="copyright" format="2">
  <advance width="600"/>
  <unicode hex="00A9"/>
  <outline>
    <contour>
      <point x="241" y="-12" type="curve" smooth="yes"/>
      <point x="461" y="-12"/>
      <point x="614" y="200"/>
      <point x="614" y="468" type="curve" smooth="yes"/>
      <point x="614" y="628"/>
      <point x="537" y="726"/>
      <point x="397" y="726" type="curve" smooth="yes"/>
      <point x="177" y="726"/>
      <point x="25" y="514"/>
      <point x="25" y="245" type="curve" smooth="yes"/>
      <point x="25" y="86"/>
      <point x="102" y="-12"/>
    </contour>
    <contour>
      <point x="254" y="50" type="curve" smooth="yes"/>
      <point x="142" y="50"/>
      <point x="91" y="122"/>
      <point x="91" y="252" type="curve" smooth="yes"/>
      <point x="91" y="482"/>
      <point x="220" y="664"/>
      <point x="384" y="664" type="curve" smooth="yes"/>
      <point x="496" y="664"/>
      <point x="548" y="590"/>
      <point x="548" y="460" type="curve" smooth="yes"/>
      <point x="548" y="230"/>
      <point x="418" y="50"/>
    </contour>
    <contour>
      <point x="274" y="144" type="curve" smooth="yes"/>
      <point x="362" y="144"/>
      <point x="437" y="206"/>
      <point x="466" y="303" type="curve"/>
      <point x="398" y="308" type="line"/>
      <point x="379" y="245"/>
      <point x="342" y="213"/>
      <point x="288" y="213" type="curve" smooth="yes"/>
      <point x="248" y="213"/>
      <point x="228" y="243"/>
      <point x="228" y="303" type="curve" smooth="yes"/>
      <point x="228" y="411"/>
      <point x="277" y="499"/>
      <point x="350" y="499" type="curve" smooth="yes"/>
      <point x="395" y="499"/>
      <point x="415" y="471"/>
      <point x="415" y="412" type="curve"/>
      <point x="485" y="417" type="line"/>
      <point x="485" y="519"/>
      <point x="443" y="568"/>
      <point x="365" y="568" type="curve" smooth="yes"/>
      <point x="249" y="568"/>
      <point x="158" y="440"/>
      <point x="158" y="294" type="curve" smooth="yes"/>
      <point x="158" y="201"/>
      <point x="194" y="144"/>
    </contour>
  </outline>
</glyph>
<glyph name="ordfeminine" format="2">
  <advance width="600"/>
  <unicode hex="00AA"/>
  <outline>
    <contour>
      <point x="266" y="376" type="curve" smooth="yes"/>
      <point x="332" y="376"/>
      <point x="379" y="411"/>
      <point x="411" y="482" type="curve"/>
      <point x="403" y="482" type="line"/>
      <point x="395" y="462"/>
      <point x="389" y="440"/>
      <point x="389" y="426" type="curve" smooth="yes"/>
      <point x="389" y="394"/>
      <point x="410" y="380"/>
      <point x="438" y="380" type="curve" smooth="yes"/>
      <point x="524" y="380" type="line"/>
      <point x="537" y="440" type="line"/>
      <point x="474" y="440" type="line" smooth="yes"/>
      <point x="462" y="440"/>
      <point x="458" y="444"/>
      <point x="458" y="454" type="curve" smooth="yes"/>
      <point x="458" y="461"/>
      <point x="462" y="480"/>
      <point x="466" y="499" type="curve" smooth="yes"/>
      <point x="514" y="720" type="line"/>
      <point x="345" y="720" type="line" smooth="yes"/>
      <point x="232" y="720"/>
      <point x="156" y="622"/>
      <point x="156" y="496" type="curve" smooth="yes"/>
      <point x="156" y="416"/>
      <point x="198" y="376"/>
    </contour>
    <contour>
      <point x="291" y="437" type="curve" smooth="yes"/>
      <point x="257" y="437"/>
      <point x="237" y="452"/>
      <point x="237" y="503" type="curve" smooth="yes"/>
      <point x="237" y="597"/>
      <point x="284" y="660"/>
      <point x="358" y="660" type="curve" smooth="yes"/>
      <point x="421" y="660" type="line"/>
      <point x="404" y="574" type="line" smooth="yes"/>
      <point x="384" y="477"/>
      <point x="349" y="437"/>
    </contour>
  </outline>
</glyph>
<glyph name="logicalnot" format="2">
  <advance width="600"/>
  <unicode hex="00AC"/>
  <outline>
    <contour>
      <point x="394" y="66" type="line"/>
      <point x="468" y="66" type="line"/>
      <point x="521" y="316" type="line"/>
      <point x="101" y="316" type="line"/>
      <point x="85" y="242" type="line"/>
      <point x="431" y="242" type="line"/>
    </contour>
  </outline>
</glyph>
<glyph name="registered" format="2">
  <advance width="600"/>
  <unicode hex="00AE"/>
  <outline>
    <contour>
      <point x="283" y="179" type="curve" smooth="yes"/>
      <point x="491" y="179"/>
      <point x="613" y="315"/>
      <point x="613" y="511" type="curve" smooth="yes"/>
      <point x="613" y="639"/>
      <point x="539" y="726"/>
      <point x="399" y="726" type="curve" smooth="yes"/>
      <point x="191" y="726"/>
      <point x="67" y="591"/>
      <point x="67" y="395" type="curve" smooth="yes"/>
      <point x="67" y="267"/>
      <point x="143" y="179"/>
    </contour>
    <contour>
      <point x="295" y="236" type="curve" smooth="yes"/>
      <point x="185" y="236"/>
      <point x="125" y="293"/>
      <point x="125" y="405" type="curve" smooth="yes"/>
      <point x="125" y="561"/>
      <point x="217" y="668"/>
      <point x="387" y="668" type="curve" smooth="yes"/>
      <point x="496" y="668"/>
      <point x="555" y="613"/>
      <point x="555" y="501" type="curve" smooth="yes"/>
      <point x="555" y="345"/>
      <point x="465" y="236"/>
    </contour>
    <contour>
      <point x="200" y="303" type="line"/>
      <point x="256" y="303" type="line"/>
      <point x="281" y="420" type="line"/>
      <point x="327" y="420" type="line"/>
      <point x="371" y="303" type="line"/>
      <point x="434" y="303" type="line"/>
      <point x="384" y="427" type="line"/>
      <point x="438" y="437"/>
      <point x="469" y="465"/>
      <point x="469" y="522" type="curve" smooth="yes"/>
      <point x="469" y="567"/>
      <point x="440" y="601"/>
      <point x="363" y="601" type="curve" smooth="yes"/>
      <point x="264" y="601" type="line"/>
    </contour>
    <contour>
      <point x="291" y="466" type="line"/>
      <point x="310" y="554" type="line"/>
      <point x="361" y="554" type="line" smooth="yes"/>
      <point x="400" y="554"/>
      <point x="415" y="542"/>
      <point x="415" y="516" type="curve" smooth="yes"/>
      <point x="415" y="484"/>
      <point x="394" y="466"/>
      <point x="342" y="466" type="curve" smooth="yes"/>
    </contour>
  </outline>
</glyph>
<glyph name="degree" format="2">
  <advance width="600"/>
  <unicode hex="00B0"/>
  <outline>
    <contour>
      <point x="332" y="410" type="curve" smooth="yes"/>
      <point x="456" y="410"/>
      <point x="528" y="490"/>
      <point x="528" y="602" type="curve" smooth="yes"/>
      <point x="528" y="678"/>
      <point x="481" y="726"/>
      <point x="397" y="726" type="curve" smooth="yes"/>
      <point x="273" y="726"/>
      <point x="201" y="646"/>
      <point x="201" y="534" type="curve" smooth="yes"/>
      <point x="201" y="458"/>
      <point x="248" y="410"/>
    </contour>
    <contour>
      <point x="347" y="484" type="curve" smooth="yes"/>
      <point x="303" y="484"/>
      <point x="277" y="504"/>
      <point x="277" y="548" type="curve" smooth="yes"/>
      <point x="277" y="610"/>
      <point x="323" y="654"/>
      <point x="383" y="654" type="curve" smooth="yes"/>
      <point x="427" y="654"/>
      <point x="452" y="631"/>
      <point x="452" y="587" type="curve" smooth="yes"/>
      <point x="452" y="525"/>
      <point x="407" y="484"/>
    </contour>
  </outline>
</glyph>
<glyph name="plusminus" format="2">
  <advance width="600"/>
  <unicode hex="00B1"/>
  <outline>
    <contour>
      <point x="14" y="0" type="line"/>
      <point x="473" y="0" type="line"/>
      <point x="489" y="74" type="line"/>
      <point x="30" y="74" type="line"/>
    </contour>
    <contour>
      <point x="228" y="106" type="line"/>
      <point x="306" y="106" type="line"/>
      <point x="403" y="564" type="line"/>
      <point x="325" y="564" type="line"/>
    </contour>
    <contour>
      <point x="77" y="296" type="line"/>
      <point x="536" y="296" type="line"/>
      <point x="552" y="374" type="line"/>
      <point x="93" y="374" type="line"/>
    </contour>
  </outline>
</glyph>
<glyph name="twosuperior" format="2">
  <advance width="600"/>
  <unicode hex="00B2"/>
  <outline>
    <contour>
      <point x="158" y="323" type="curve"/>
      <point x="436" y="323" type="line"/>
      <point x="448" y="381" type="line"/>
      <point x="246" y="381" type="line"/>
      <point x="252" y="407"/>
      <point x="277" y="432"/>
      <point x="329" y="455" type="curve" smooth="yes"/>
      <point x="376" y="476" type="line" smooth="yes"/>
      <point x="480" y="522"/>
      <point x="505" y="547"/>
      <point x="505" y="622" type="curve" smooth="yes"/>
      <point x="505" y="678"/>
      <point x="472" y="718"/>
      <point x="389" y="718" type="curve" smooth="yes"/>
      <point x="282" y="718"/>
      <point x="240" y="668"/>
      <point x="216" y="592" type="curve"/>
      <point x="280" y="589" type="line"/>
      <point x="296" y="637"/>
      <point x="321" y="660"/>
      <point x="378" y="660" type="curve" smooth="yes"/>
      <point x="424" y="660"/>
      <point x="437" y="639"/>
      <point x="437" y="610" type="curve" smooth="yes"/>
      <point x="437" y="571"/>
      <point x="423" y="558"/>
      <point x="363" y="530" type="curve" smooth="yes"/>
      <point x="304" y="503" type="line" smooth="yes"/>
      <point x="197" y="454"/>
      <point x="176" y="411"/>
    </contour>
  </outline>
</glyph>
<glyph name="threesuperior" format="2">
  <advance width="600"/>
  <unicode hex="00B3"/>
  <outline>
    <contour>
      <point x="310" y="315" type="curve" smooth="yes"/>
      <point x="410" y="315"/>
      <point x="482" y="364"/>
      <point x="482" y="450" type="curve" smooth="yes"/>
      <point x="482" y="488"/>
      <point x="466" y="516"/>
      <point x="416" y="528" type="curve"/>
      <point x="476" y="540"/>
      <point x="502" y="575"/>
      <point x="502" y="626" type="curve" smooth="yes"/>
      <point x="502" y="677"/>
      <point x="470" y="718"/>
      <point x="388" y="718" type="curve" smooth="yes"/>
      <point x="291" y="718"/>
      <point x="250" y="674"/>
      <point x="230" y="614" type="curve"/>
      <point x="294" y="610" type="line"/>
      <point x="303" y="637"/>
      <point x="324" y="659"/>
      <point x="378" y="659" type="curve" smooth="yes"/>
      <point x="420" y="659"/>
      <point x="436" y="642"/>
      <point x="436" y="616" type="curve" smooth="yes"/>
      <point x="436" y="575"/>
      <point x="402" y="555"/>
      <point x="364" y="555" type="curve" smooth="yes"/>
      <point x="327" y="555" type="line"/>
      <point x="315" y="498" type="line"/>
      <point x="352" y="498" type="line" smooth="yes"/>
      <point x="396" y="498"/>
      <point x="416" y="474"/>
      <point x="416" y="446" type="curve" smooth="yes"/>
      <point x="416" y="396"/>
      <point x="378" y="373"/>
      <point x="318" y="373" type="curve" smooth="yes"/>
      <point x="266" y="373"/>
      <point x="252" y="382"/>
      <point x="252" y="427" type="curve"/>
      <point x="188" y="424" type="line"/>
      <point x="188" y="337"/>
      <point x="223" y="315"/>
    </contour>
  </outline>
</glyph>
<glyph name="acute" format="2">
  <advance width="600"/>
  <unicode hex="00B4"/>
  <outline>
    <contour>
      <point x="270" y="500" type="line"/>
      <point x="350" y="500" type="line"/>
      <point x="478" y="728" type="line"/>
      <point x="360" y="728" type="line"/>
    </contour>
  </outline>
</glyph>
<glyph name="micro" format="2">
  <advance width="600"/>
  <unicode hex="00B5"/>
  <unicode hex="03BC"/>
  <outline>
    <contour>
      <point x="-8" y="-150" type="line"/>
      <point x="76" y="-150" type="line"/>
      <point x="118" y="51" type="line"/>
      <point x="127" y="12"/>
      <point x="164" y="-12"/>
      <point x="224" y="-12" type="curve" smooth="yes"/>
      <point x="296" y="-12"/>
      <point x="364" y="26"/>
      <point x="402" y="88" type="curve"/>
      <point x="384" y="0" type="line"/>
      <point x="464" y="0" type="line"/>
      <point x="576" y="530" type="line"/>
      <point x="492" y="530" type="line"/>
      <point x="425" y="214" type="line" smooth="yes"/>
      <point x="405" y="121"/>
      <point x="339" y="62"/>
      <point x="238" y="62" type="curve" smooth="yes"/>
      <point x="168" y="62"/>
      <point x="144" y="89"/>
      <point x="144" y="141" type="curve" smooth="yes"/>
      <point x="144" y="162"/>
      <point x="147" y="186"/>
      <point x="153" y="214" type="curve" smooth="yes"/>
      <point x="220" y="530" type="line"/>
      <point x="136" y="530" type="line"/>
    </contour>
  </outline>
</glyph>
<glyph name="paragraph" format="2">
  <advance width="600"/>
  <unicode hex="00B6"/>
  <outline>
    <contour>
      <point x="244" y="0" type="line"/>
      <point x="324" y="0" type="line"/>
      <point x="458" y="634" type="line"/>
      <point x="538" y="634" type="line"/>
      <point x="404" y="0" type="line"/>
      <point x="484" y="0" type="line"/>
      <point x="634" y="710" type="line"/>
      <point x="405" y="710" type="line" smooth="yes"/>
      <point x="225" y="710"/>
      <point x="108" y="609"/>
      <point x="108" y="461" type="curve" smooth="yes"/>
      <point x="108" y="363"/>
      <point x="179" y="306"/>
      <point x="309" y="306" type="curve"/>
    </contour>
  </outline>
</glyph>
<glyph name="onesuperior" format="2">
  <advance width="600"/>
  <unicode hex="00B9"/>
  <outline>
    <contour>
      <point x="296" y="323" type="line"/>
      <point x="362" y="323" type="line"/>
      <point x="444" y="711" type="line"/>
      <point x="395" y="711" type="line"/>
      <point x="384" y="658"/>
      <point x="349" y="626"/>
      <point x="271" y="626" type="curve" smooth="yes"/>
      <point x="217" y="626" type="line"/>
      <point x="207" y="576" type="line"/>
      <point x="350" y="577" type="line"/>
    </contour>
  </outline>
</glyph>
<glyph name="ordmasculine" format="2">
  <advance width="600"/>
  <unicode hex="00BA"/>
  <outline>
    <contour>
      <point x="324" y="376" type="curve" smooth="yes"/>
      <point x="447" y="376"/>
      <point x="544" y="452"/>
      <point x="544" y="596" type="curve" smooth="yes"/>
      <point x="544" y="675"/>
      <point x="488" y="726"/>
      <point x="398" y="726" type="curve" smooth="yes"/>
      <point x="270" y="726"/>
      <point x="178" y="650"/>
      <point x="178" y="506" type="curve" smooth="yes"/>
      <point x="178" y="425"/>
      <point x="233" y="376"/>
    </contour>
    <contour>
      <point x="338" y="441" type="curve" smooth="yes"/>
      <point x="291" y="441"/>
      <point x="264" y="466"/>
      <point x="264" y="513" type="curve" smooth="yes"/>
      <point x="264" y="607"/>
      <point x="317" y="661"/>
      <point x="385" y="661" type="curve" smooth="yes"/>
      <point x="431" y="661"/>
      <point x="458" y="635"/>
      <point x="458" y="589" type="curve" smooth="yes"/>
      <point x="458" y="495"/>
      <point x="402" y="441"/>
    </contour>
  </outline>
</glyph>
<glyph name="threequarters" format="2">
  <advance width="600"/>
  <unicode hex="00BE"/>
  <outline>
    <contour>
      <point x="394" y="0" type="line"/>
      <point x="460" y="0" type="line"/>
      <point x="479" y="90" type="line"/>
      <point x="555" y="90" type="line"/>
      <point x="567" y="148" type="line"/>
      <point x="491" y="148" type="line"/>
      <point x="542" y="387" type="line"/>
      <point x="478" y="387" type="line"/>
      <point x="222" y="141" type="line"/>
      <point x="211" y="90" type="line"/>
      <point x="413" y="90" type="line"/>
    </contour>
    <contour>
      <point x="298" y="148" type="line"/>
      <point x="456" y="289" type="line"/>
      <point x="425" y="148" type="line"/>
    </contour>
    <component base="three.numr" xOffset="-138"/>
    <component base="fraction" xOffset="14"/>
  </outline>
</glyph>
<glyph name="questiondown" format="2">
  <advance width="600"/>
  <unicode hex="00BF"/>
  <outline>
    <contour>
      <point x="206" y="-162" type="curve" smooth="yes"/>
      <point x="374" y="-162"/>
      <point x="453" y="-68"/>
      <point x="487" y="64" type="curve"/>
      <point x="399" y="70" type="line"/>
      <point x="374" y="-26"/>
      <point x="318" y="-78"/>
      <point x="218" y="-78" type="curve" smooth="yes"/>
      <point x="144" y="-78"/>
      <point x="111" y="-45"/>
      <point x="111" y="16" type="curve" smooth="yes"/>
      <point x="111" y="94"/>
      <point x="138" y="122"/>
      <point x="236" y="172" type="curve" smooth="yes"/>
      <point x="312" y="210"/>
      <point x="349" y="258"/>
      <point x="369" y="352" type="curve"/>
      <point x="283" y="352" type="line"/>
      <point x="269" y="286"/>
      <point x="246" y="256"/>
      <point x="188" y="226" type="curve" smooth="yes"/>
      <point x="80" y="170"/>
      <point x="21" y="120"/>
      <point x="21" y="4" type="curve" smooth="yes"/>
      <point x="21" y="-92"/>
      <point x="76" y="-162"/>
    </contour>
    <component base="period" xScale="-1.0" yScale="-1.0" xOffset="610" yOffset="544"/>
  </outline>
</glyph>
<glyph name="AE" format="2">
  <advance width="600"/>
  <unicode hex="00C6"/>
  <anchor x="249" y="0" name="bottom"/>
  <anchor x="420" y="710" name="top"/>
  <outline>
    <contour>
      <point x="-36" y="0" type="line"/>
      <point x="54" y="0" type="line"/>
      <point x="378" y="629" type="line"/>
      <point x="396" y="629" type="line"/>
      <point x="263" y="0" type="line"/>
      <point x="524" y="0" type="line"/>
      <point x="541" y="84" type="line"/>
      <point x="366" y="84" type="line"/>
      <point x="415" y="315" type="line"/>
      <point x="570" y="315" type="line"/>
      <point x="588" y="397" type="line"/>
      <point x="433" y="397" type="line"/>
      <point x="482" y="626" type="line"/>
      <point x="649" y="626" type="line"/>
      <point x="666" y="710" type="line"/>
      <point x="335" y="710" type="line"/>
    </contour>
    <contour>
      <point x="138" y="202" type="line"/>
      <point x="321" y="202" type="line"/>
      <point x="339" y="286" type="line"/>
      <point x="182" y="286" type="line"/>
    </contour>
  </outline>
</glyph>
<glyph name="multiply" format="2">
  <advance width="600"/>
  <unicode hex="00D7"/>
  <outline>
    <contour>
      <point x="107" y="82" type="line"/>
      <point x="553" y="449" type="line"/>
      <point x="506" y="508" type="line"/>
      <point x="60" y="141" type="line"/>
    </contour>
    <contour>
      <point x="421" y="86" type="line"/>
      <point x="482" y="137" type="line"/>
      <point x="192" y="504" type="line"/>
      <point x="131" y="453" type="line"/>
    </contour>
  </outline>
</glyph>
<glyph name="Thorn" format="2">
  <advance width="600"/>
  <unicode hex="00DE"/>
  <outline>
    <contour>
      <point x="100" y="150" type="line"/>
      <point x="263" y="150" type="line" smooth="yes"/>
      <point x="447" y="150"/>
      <point x="564" y="248"/>
      <point x="564" y="408" type="curve" smooth="yes"/>
      <point x="564" y="518"/>
      <point x="493" y="582"/>
      <point x="355" y="582" type="curve" smooth="yes"/>
      <point x="194" y="582" type="line"/>
      <point x="175" y="498" type="line"/>
      <point x="338" y="498" type="line" smooth="yes"/>
      <point x="438" y="498"/>
      <point x="474" y="468"/>
      <point x="474" y="400" type="curve" smooth="yes"/>
      <point x="474" y="288"/>
      <point x="399" y="234"/>
      <point x="281" y="234" type="curve" smooth="yes"/>
      <point x="118" y="234" type="line"/>
    </contour>
    <contour>
      <point x="5" y="0" type="line"/>
      <point x="91" y="0" type="line"/>
      <point x="241" y="710" type="line"/>
      <point x="155" y="710" type="line"/>
    </contour>
  </outline>
</glyph>
<glyph name="germandbls" format="2">
  <advance width="600"/>
  <unicode hex="00DF"/>
  <outline>
    <contour>
      <point x="14" y="0" type="line"/>
      <point x="98" y="0" type="line"/>
      <point x="205" y="502" type="line" smooth="yes"/>
      <point x="223" y="588"/>
      <point x="272" y="640"/>
      <point x="362" y="640" type="curve" smooth="yes"/>
      <point x="427" y="640"/>
      <point x="457" y="610"/>
      <point x="457" y="560" type="curve" smooth="yes"/>
      <point x="457" y="476"/>
      <point x="396" y="417"/>
      <point x="303" y="417" type="curve" smooth="yes"/>
      <point x="259" y="417" type="line"/>
      <point x="242" y="338" type="line"/>
      <point x="286" y="338" type="line" smooth="yes"/>
      <point x="386" y="338"/>
      <point x="429" y="304"/>
      <point x="429" y="228" type="curve" smooth="yes"/>
      <point x="429" y="126"/>
      <point x="351" y="80"/>
      <point x="242" y="80" type="curve" smooth="yes"/>
      <point x="177" y="80" type="line"/>
      <point x="160" y="0" type="line"/>
      <point x="226" y="0" type="line" smooth="yes"/>
      <point x="390" y="0"/>
      <point x="517" y="66"/>
      <point x="517" y="236" type="curve" smooth="yes"/>
      <point x="517" y="323"/>
      <point x="454" y="387"/>
      <point x="358" y="393" type="curve"/>
      <point x="355" y="376" type="line"/>
      <point x="462" y="384"/>
      <point x="543" y="458"/>
      <point x="543" y="566" type="curve" smooth="yes"/>
      <point x="543" y="657"/>
      <point x="493" y="720"/>
      <point x="376" y="720" type="curve" smooth="yes"/>
      <point x="236" y="720"/>
      <point x="153" y="650"/>
      <point x="121" y="502" type="curve" smooth="yes"/>
    </contour>
  </outline>
</glyph>
<glyph name="ae" format="2">
  <advance width="600"/>
  <unicode hex="00E6"/>
  <anchor x="244" y="0" name="bottom"/>
  <anchor x="356" y="530" name="top"/>
  <outline>
    <contour>
      <point x="361" y="-12" type="curve" smooth="yes"/>
      <point x="450" y="-12"/>
      <point x="501" y="33"/>
      <point x="546" y="150" type="curve"/>
      <point x="462" y="157" type="line"/>
      <point x="440" y="93"/>
      <point x="417" y="68"/>
      <point x="378" y="68" type="curve" smooth="yes"/>
      <point x="347" y="68"/>
      <point x="327" y="102"/>
      <point x="327" y="165" type="curve" smooth="yes"/>
      <point x="327" y="186"/>
      <point x="329" y="211"/>
      <point x="334" y="239" type="curve"/>
      <point x="569" y="239" type="line"/>
      <point x="581" y="279"/>
      <point x="591" y="330"/>
      <point x="591" y="380" type="curve" smooth="yes"/>
      <point x="591" y="489"/>
      <point x="554" y="542"/>
      <point x="477" y="542" type="curve" smooth="yes"/>
      <point x="313" y="542"/>
      <point x="242" y="282"/>
      <point x="242" y="153" type="curve" smooth="yes"/>
      <point x="242" y="50"/>
      <point x="278" y="-12"/>
    </contour>
    <contour>
      <point x="104" y="-12" type="curve" smooth="yes"/>
      <point x="179" y="-12"/>
      <point x="243" y="34"/>
      <point x="275" y="138" type="curve"/>
      <point x="342" y="320" type="line"/>
      <point x="349" y="356"/>
      <point x="353" y="387"/>
      <point x="353" y="414" type="curve" smooth="yes"/>
      <point x="353" y="499"/>
      <point x="316" y="542"/>
      <point x="241" y="542" type="curve" smooth="yes"/>
      <point x="156" y="542"/>
      <point x="94" y="486"/>
      <point x="53" y="374" type="curve"/>
      <point x="136" y="368" type="line"/>
      <point x="158" y="428"/>
      <point x="180" y="462"/>
      <point x="228" y="462" type="curve" smooth="yes"/>
      <point x="258" y="462"/>
      <point x="271" y="442"/>
      <point x="271" y="397" type="curve" smooth="yes"/>
      <point x="271" y="375"/>
      <point x="268" y="347"/>
      <point x="260" y="312" type="curve"/>
      <point x="172" y="300" type="line" smooth="yes"/>
      <point x="63" y="285"/>
      <point x="-6" y="215"/>
      <point x="-6" y="96" type="curve" smooth="yes"/>
      <point x="-6" y="24"/>
      <point x="38" y="-12"/>
    </contour>
    <contour>
      <point x="124" y="62" type="curve" smooth="yes"/>
      <point x="97" y="62"/>
      <point x="78" y="76"/>
      <point x="78" y="110" type="curve" smooth="yes"/>
      <point x="78" y="178"/>
      <point x="114" y="215"/>
      <point x="172" y="224" type="curve" smooth="yes"/>
      <point x="244" y="235" type="line"/>
      <point x="240" y="216" type="line" smooth="yes"/>
      <point x="217" y="106"/>
      <point x="179" y="62"/>
    </contour>
    <contour>
      <point x="351" y="313" type="line"/>
      <point x="375" y="411"/>
      <point x="413" y="462"/>
      <point x="461" y="462" type="curve" smooth="yes"/>
      <point x="488" y="462"/>
      <point x="505" y="437"/>
      <point x="505" y="384" type="curve" smooth="yes"/>
      <point x="505" y="361"/>
      <point x="502" y="333"/>
      <point x="498" y="313" type="curve"/>
    </contour>
  </outline>
</glyph>
<glyph name="divide" format="2">
  <advance width="600"/>
  <unicode hex="00F7"/>
  <outline>
    <contour>
      <point x="255" y="52" type="curve" smooth="yes"/>
      <point x="300" y="52"/>
      <point x="334" y="84"/>
      <point x="334" y="128" type="curve" smooth="yes"/>
      <point x="334" y="156"/>
      <point x="316" y="176"/>
      <point x="282" y="176" type="curve" smooth="yes"/>
      <point x="236" y="176"/>
      <point x="203" y="144"/>
      <point x="203" y="100" type="curve" smooth="yes"/>
      <point x="203" y="72"/>
      <point x="221" y="52"/>
    </contour>
    <contour>
      <point x="69" y="256" type="line"/>
      <point x="528" y="256" type="line"/>
      <point x="544" y="334" type="line"/>
      <point x="85" y="334" type="line"/>
    </contour>
    <contour>
      <point x="332" y="414" type="curve" smooth="yes"/>
      <point x="377" y="414"/>
      <point x="411" y="446"/>
      <point x="411" y="490" type="curve" smooth="yes"/>
      <point x="411" y="518"/>
      <point x="393" y="538"/>
      <point x="359" y="538" type="curve" smooth="yes"/>
      <point x="313" y="538"/>
      <point x="280" y="506"/>
      <point x="280" y="462" type="curve" smooth="yes"/>
      <point x="280" y="434"/>
      <point x="298" y="414"/>
    </contour>
  </outline>
</glyph>
<glyph name="thorn" format="2">
  <advance width="600"/>
  <unicode hex="00FE"/>
  <anchor x="244" y="0" name="bottom"/>
  <anchor x="356" y="530" name="top"/>
  <outline>
    <contour>
      <point x="-16" y="-150" type="line"/>
      <point x="68" y="-150" type="line"/>
      <point x="123" y="114" type="line"/>
      <point x="111" y="98" type="line"/>
      <point x="114" y="39"/>
      <point x="167" y="-12"/>
      <point x="246" y="-12" type="curve" smooth="yes"/>
      <point x="416" y="-12"/>
      <point x="534" y="152"/>
      <point x="534" y="342" type="curve" smooth="yes"/>
      <point x="534" y="462"/>
      <point x="478" y="542"/>
      <point x="366" y="542" type="curve" smooth="yes"/>
      <point x="268" y="542"/>
      <point x="212" y="481"/>
      <point x="188" y="439" type="curve"/>
      <point x="190" y="415" type="line"/>
      <point x="252" y="710" type="line"/>
      <point x="168" y="710" type="line"/>
    </contour>
    <contour>
      <point x="257" y="68" type="curve" smooth="yes"/>
      <point x="191" y="68"/>
      <point x="147" y="110"/>
      <point x="147" y="192" type="curve" smooth="yes"/>
      <point x="147" y="360"/>
      <point x="236" y="462"/>
      <point x="344" y="462" type="curve" smooth="yes"/>
      <point x="414" y="462"/>
      <point x="446" y="420"/>
      <point x="446" y="330" type="curve" smooth="yes"/>
      <point x="446" y="190"/>
      <point x="365" y="68"/>
    </contour>
  </outline>
</glyph>
<glyph name="dcaron" format="2">
  <advance width="600"/>
  <unicode hex="010F"/>
  <outline>
    <contour>
      <point x="180" y="-12" type="curve" smooth="yes"/>
      <point x="256" y="-12"/>
      <point x="286" y="33"/>
      <point x="339" y="109" type="curve"/>
      <point x="326" y="120" type="line"/>
      <point x="305" y="0" type="line"/>
      <point x="381" y="0" type="line"/>
      <point x="532" y="710" type="line"/>
      <point x="448" y="710" type="line"/>
      <point x="388" y="418" type="line"/>
      <point x="404" y="434" type="line"/>
      <point x="389" y="486"/>
      <point x="365" y="542"/>
      <point x="289" y="542" type="curve" smooth="yes"/>
      <point x="112" y="542"/>
      <point x="32" y="333"/>
      <point x="32" y="170" type="curve" smooth="yes"/>
      <point x="32" y="56"/>
      <point x="89" y="-12"/>
    </contour>
    <contour>
      <point x="198" y="68" type="curve" smooth="yes"/>
      <point x="146" y="68"/>
      <point x="120" y="103"/>
      <point x="120" y="183" type="curve" smooth="yes"/>
      <point x="120" y="312"/>
      <point x="179" y="462"/>
      <point x="281" y="462" type="curve" smooth="yes"/>
      <point x="342" y="462"/>
      <point x="368" y="421"/>
      <point x="368" y="346" type="curve" smooth="yes"/>
      <point x="368" y="197"/>
      <point x="292" y="68"/>
    </contour>
    <contour>
      <point x="517" y="456" type="line"/>
      <point x="577" y="456" type="line"/>
      <point x="685" y="710" type="line"/>
      <point x="601" y="710" type="line"/>
    </contour>
  </outline>
</glyph>
<glyph name="idotless" format="2">
  <advance width="600"/>
  <unicode hex="0131"/>
  <anchor x="244" y="0" name="bottom"/>
  <anchor x="523" y="0" name="ogonek"/>
  <anchor x="354" y="530" name="top"/>
  <outline>
    <contour>
      <point x="330" y="0" type="curve" smooth="yes"/>
      <point x="523" y="0" type="line"/>
      <point x="539" y="74" type="line"/>
      <point x="352" y="74" type="line" smooth="yes"/>
      <point x="324" y="74"/>
      <point x="310" y="85"/>
      <point x="310" y="106" type="curve" smooth="yes"/>
      <point x="310" y="124"/>
      <point x="314" y="146"/>
      <point x="320" y="173" type="curve" smooth="yes"/>
      <point x="396" y="530" type="line"/>
      <point x="97" y="530" type="line"/>
      <point x="81" y="456" type="line"/>
      <point x="337" y="456" type="line"/>
      <point x="304" y="496" type="line"/>
      <point x="238" y="184" type="line" smooth="yes"/>
      <point x="230" y="146"/>
      <point x="222" y="106"/>
      <point x="222" y="80" type="curve" smooth="yes"/>
      <point x="222" y="28"/>
      <point x="251" y="0"/>
    </contour>
  </outline>
</glyph>
<glyph name="Eng" format="2">
  <advance width="600"/>
  <unicode hex="014A"/>
  <anchor x="212" y="-150" name="bottom"/>
  <anchor x="395" y="710" name="top"/>
  <outline>
    <contour>
      <point x="169" y="-150" type="line"/>
      <point x="292" y="-150" type="line" smooth="yes"/>
      <point x="390" y="-150"/>
      <point x="452" y="-103"/>
      <point x="472" y="-9" type="curve" smooth="yes"/>
      <point x="625" y="710" type="line"/>
      <point x="539" y="710" type="line"/>
      <point x="401" y="58" type="line"/>
      <point x="417" y="58" type="line"/>
      <point x="287" y="710" type="line"/>
      <point x="165" y="710" type="line"/>
      <point x="14" y="0" type="line"/>
      <point x="100" y="0" type="line"/>
      <point x="238" y="652" type="line"/>
      <point x="222" y="652" type="line"/>
      <point x="352" y="0" type="line"/>
      <point x="388" y="0" type="line"/>
      <point x="386" y="-8" type="line" smooth="yes"/>
      <point x="378" y="-48"/>
      <point x="352" y="-66"/>
      <point x="310" y="-66" type="curve" smooth="yes"/>
      <point x="187" y="-66" type="line"/>
    </contour>
  </outline>
</glyph>
<glyph name="eng" format="2">
  <advance width="600"/>
  <unicode hex="014B"/>
  <anchor x="247" y="0" name="bottom"/>
  <anchor x="360" y="530" name="top"/>
  <outline>
    <contour>
      <point x="196" y="-150" type="line"/>
      <point x="277" y="-150" type="line" smooth="yes"/>
      <point x="379" y="-150"/>
      <point x="436" y="-110"/>
      <point x="458" y="-7" type="curve" smooth="yes"/>
      <point x="525" y="306" type="line" smooth="yes"/>
      <point x="531" y="332"/>
      <point x="539" y="374"/>
      <point x="539" y="408" type="curve" smooth="yes"/>
      <point x="539" y="485"/>
      <point x="492" y="542"/>
      <point x="386" y="542" type="curve" smooth="yes"/>
      <point x="309" y="542"/>
      <point x="242" y="508"/>
      <point x="200" y="436" type="curve"/>
      <point x="218" y="530" type="line"/>
      <point x="141" y="530" type="line"/>
      <point x="28" y="0" type="line"/>
      <point x="112" y="0" type="line"/>
      <point x="180" y="317" type="line" smooth="yes"/>
      <point x="201" y="415"/>
      <point x="270" y="468"/>
      <point x="356" y="468" type="curve" smooth="yes"/>
      <point x="423" y="468"/>
      <point x="453" y="441"/>
      <point x="453" y="394" type="curve" smooth="yes"/>
      <point x="453" y="365"/>
      <point x="449" y="340"/>
      <point x="444" y="317" type="curve" smooth="yes"/>
      <point x="374" y="-8" type="line" smooth="yes"/>
      <point x="363" y="-59"/>
      <point x="335" y="-76"/>
      <point x="295" y="-76" type="curve" smooth="yes"/>
      <point x="212" y="-76" type="line"/>
    </contour>
  </outline>
</glyph>
<glyph name="OE" format="2">
  <advance width="600"/>
  <unicode hex="0152"/>
  <anchor x="246" y="0" name="bottom"/>
  <anchor x="397" y="710" name="top"/>
  <outline>
    <contour>
      <point x="150" y="-16" type="curve" smooth="yes"/>
      <point x="304" y="-16"/>
      <point x="436" y="266"/>
      <point x="436" y="526" type="curve" smooth="yes"/>
      <point x="436" y="652"/>
      <point x="397" y="726"/>
      <point x="314" y="726" type="curve" smooth="yes"/>
      <point x="152" y="726"/>
      <point x="18" y="475"/>
      <point x="18" y="185" type="curve" smooth="yes"/>
      <point x="18" y="54"/>
      <point x="61" y="-16"/>
    </contour>
    <contour>
      <point x="168" y="68" type="curve" smooth="yes"/>
      <point x="123" y="68"/>
      <point x="103" y="102"/>
      <point x="103" y="182" type="curve" smooth="yes"/>
      <point x="103" y="400"/>
      <point x="197" y="642"/>
      <point x="300" y="642" type="curve" smooth="yes"/>
      <point x="346" y="642"/>
      <point x="366" y="607"/>
      <point x="366" y="530" type="curve" smooth="yes"/>
      <point x="366" y="317"/>
      <point x="266" y="68"/>
    </contour>
    <contour>
      <point x="274" y="0" type="line"/>
      <point x="530" y="0" type="line"/>
      <point x="548" y="84" type="line"/>
      <point x="372" y="84" type="line"/>
      <point x="421" y="315" type="line"/>
      <point x="577" y="315" type="line"/>
      <point x="594" y="397" type="line"/>
      <point x="438" y="397" type="line"/>
      <point x="487" y="626" type="line"/>
      <point x="655" y="626" type="line"/>
      <point x="673" y="710" type="line"/>
      <point x="425" y="710" type="line"/>
    </contour>
  </outline>
</glyph>
<glyph name="oe" format="2">
  <advance width="600"/>
  <unicode hex="0153"/>
  <outline>
    <contour>
      <point x="369" y="-12" type="curve" smooth="yes"/>
      <point x="458" y="-12"/>
      <point x="509" y="33"/>
      <point x="554" y="150" type="curve"/>
      <point x="470" y="157" type="line"/>
      <point x="448" y="93"/>
      <point x="425" y="68"/>
      <point x="386" y="68" type="curve" smooth="yes"/>
      <point x="355" y="68"/>
      <point x="335" y="102"/>
      <point x="335" y="165" type="curve" smooth="yes"/>
      <point x="335" y="186"/>
      <point x="337" y="211"/>
      <point x="342" y="239" type="curve"/>
      <point x="577" y="239" type="line"/>
      <point x="589" y="279"/>
      <point x="599" y="330"/>
      <point x="599" y="380" type="curve" smooth="yes"/>
      <point x="599" y="489"/>
      <point x="562" y="542"/>
      <point x="485" y="542" type="curve" smooth="yes"/>
      <point x="321" y="542"/>
      <point x="254" y="282"/>
      <point x="254" y="153" type="curve" smooth="yes"/>
      <point x="254" y="50"/>
      <point x="286" y="-12"/>
    </contour>
    <contour>
      <point x="122" y="-12" type="curve" smooth="yes"/>
      <point x="286" y="-12"/>
      <point x="359" y="241"/>
      <point x="359" y="377" type="curve" smooth="yes"/>
      <point x="359" y="475"/>
      <point x="317" y="542"/>
      <point x="238" y="542" type="curve" smooth="yes"/>
      <point x="73" y="542"/>
      <point x="7" y="318"/>
      <point x="7" y="154" type="curve" smooth="yes"/>
      <point x="7" y="50"/>
      <point x="45" y="-12"/>
    </contour>
    <contour>
      <point x="141" y="68" type="curve" smooth="yes"/>
      <point x="108" y="68"/>
      <point x="93" y="100"/>
      <point x="93" y="160" type="curve" smooth="yes"/>
      <point x="93" y="328"/>
      <point x="155" y="462"/>
      <point x="223" y="462" type="curve" smooth="yes"/>
      <point x="256" y="462"/>
      <point x="274" y="431"/>
      <point x="274" y="376" type="curve" smooth="yes"/>
      <point x="274" y="213"/>
      <point x="217" y="68"/>
    </contour>
    <contour>
      <point x="359" y="313" type="line"/>
      <point x="383" y="411"/>
      <point x="421" y="462"/>
      <point x="469" y="462" type="curve" smooth="yes"/>
      <point x="496" y="462"/>
      <point x="513" y="437"/>
      <point x="513" y="384" type="curve" smooth="yes"/>
      <point x="513" y="361"/>
      <point x="510" y="333"/>
      <point x="506" y="313" type="curve"/>
    </contour>
  </outline>
</glyph>
<glyph name="tcaron" format="2">
  <advance width="600"/>
  <unicode hex="0165"/>
  <anchor x="296" y="0" name="bottom"/>
  <anchor x="286" y="290" name="center"/>
  <anchor x="347" y="530" name="top"/>
  <anchor x="433" y="616" name="topright"/>
  <outline>
    <contour>
      <point x="499" y="573" type="line"/>
      <point x="559" y="573" type="line"/>
      <point x="613" y="827" type="line"/>
      <point x="529" y="827" type="line"/>
    </contour>
    <component base="t"/>
  </outline>
</glyph>
<glyph name="Schwa" format="2">
  <advance width="600"/>
  <unicode hex="018F"/>
  <outline>
    <contour>
      <point x="504" y="306" type="line"/>
      <point x="522" y="390" type="line"/>
      <point x="63" y="390" type="line"/>
      <point x="51" y="345"/>
      <point x="45" y="294"/>
      <point x="45" y="240" type="curve" smooth="yes"/>
      <point x="45" y="70"/>
      <point x="111" y="-16"/>
      <point x="229" y="-16" type="curve" smooth="yes"/>
      <point x="435" y="-16"/>
      <point x="589" y="188"/>
      <point x="592" y="465" type="curve" smooth="yes"/>
      <point x="592" y="627"/>
      <point x="521" y="726"/>
      <point x="385" y="726" type="curve" smooth="yes"/>
      <point x="239" y="726"/>
      <point x="155" y="643"/>
      <point x="88" y="510" type="curve"/>
      <point x="177" y="501" type="line"/>
      <point x="232" y="595"/>
      <point x="281" y="642"/>
      <point x="369" y="642" type="curve" smooth="yes"/>
      <point x="473" y="642"/>
      <point x="500" y="573"/>
      <point x="500" y="448" type="curve" smooth="yes"/>
      <point x="500" y="226"/>
      <point x="395" y="68"/>
      <point x="247" y="68" type="curve" smooth="yes"/>
      <point x="174" y="68"/>
      <point x="137" y="107"/>
      <point x="137" y="249" type="curve" smooth="yes"/>
      <point x="137" y="269"/>
      <point x="139" y="296"/>
      <point x="141" y="306" type="curve"/>
    </contour>
  </outline>
</glyph>
<glyph name="florin" format="2">
  <advance width="600"/>
  <unicode hex="0192"/>
  <outline>
    <contour>
      <point x="21" y="0" type="line"/>
      <point x="137" y="-1" type="line" smooth="yes"/>
      <point x="228" y="-2"/>
      <point x="279" y="28"/>
      <point x="302" y="133" type="curve" smooth="yes"/>
      <point x="399" y="580" type="line" smooth="yes"/>
      <point x="408" y="620"/>
      <point x="422" y="636"/>
      <point x="466" y="636" type="curve" smooth="yes"/>
      <point x="608" y="636" type="line"/>
      <point x="615" y="710" type="line"/>
      <point x="480" y="710" type="line" smooth="yes"/>
      <point x="382" y="710"/>
      <point x="336" y="670"/>
      <point x="316" y="576" type="curve" smooth="yes"/>
      <point x="220" y="129" type="line" smooth="yes"/>
      <point x="210" y="82"/>
      <point x="190" y="74"/>
      <point x="153" y="74" type="curve" smooth="yes"/>
      <point x="29" y="74" type="line"/>
    </contour>
    <contour>
      <point x="133" y="456" type="line"/>
      <point x="570" y="456" type="line"/>
      <point x="586" y="530" type="line"/>
      <point x="149" y="530" type="line"/>
    </contour>
  </outline>
</glyph>
<glyph name="Uhorn" format="2">
  <advance width="600"/>
  <unicode hex="01AF"/>
  <anchor x="197" y="0" name="bottom"/>
  <anchor x="338" y="710" name="top"/>
  <outline>
    <contour>
      <point x="194" y="-16" type="curve" smooth="yes"/>
      <point x="343" y="-16"/>
      <point x="444" y="70"/>
      <point x="482" y="248" type="curve" smooth="yes"/>
      <point x="580" y="710" type="line"/>
      <point x="494" y="710" type="line"/>
      <point x="396" y="248" type="line" smooth="yes"/>
      <point x="371" y="130"/>
      <point x="311" y="68"/>
      <point x="211" y="68" type="curve" smooth="yes"/>
      <point x="134" y="68"/>
      <point x="96" y="105"/>
      <point x="96" y="182" type="curve" smooth="yes"/>
      <point x="96" y="212"/>
      <point x="106" y="262"/>
      <point x="114" y="300" type="curve" smooth="yes"/>
      <point x="201" y="710" type="line"/>
      <point x="115" y="710" type="line"/>
      <point x="31" y="314" type="line" smooth="yes"/>
      <point x="16" y="246"/>
      <point x="8" y="198"/>
      <point x="8" y="172" type="curve" smooth="yes"/>
      <point x="8" y="54"/>
      <point x="74" y="-16"/>
    </contour>
    <contour>
      <point x="490" y="662" type="line"/>
      <point x="546" y="662" type="line" smooth="yes"/>
      <point x="641" y="662"/>
      <point x="689" y="715"/>
      <point x="689" y="802" type="curve" smooth="yes"/>
      <point x="689" y="822"/>
      <point x="687" y="845"/>
      <point x="686" y="850" type="curve"/>
      <point x="612" y="850" type="line"/>
      <point x="613" y="840"/>
      <point x="615" y="819"/>
      <point x="615" y="799" type="curve" smooth="yes"/>
      <point x="615" y="744"/>
      <point x="600" y="710"/>
      <point x="548" y="710" type="curve" smooth="yes"/>
      <point x="494" y="710" type="line"/>
    </contour>
  </outline>
</glyph>
<glyph name="uhorn" format="2">
  <advance width="600"/>
  <unicode hex="01B0"/>
  <anchor x="191" y="0" name="bottom"/>
  <anchor x="294" y="530" name="top"/>
  <outline>
    <contour>
      <point x="159" y="-12" type="curve" smooth="yes"/>
      <point x="259" y="-12"/>
      <point x="335" y="37"/>
      <point x="374" y="124" type="curve"/>
      <point x="363" y="131" type="line"/>
      <point x="335" y="0" type="line"/>
      <point x="415" y="0" type="line"/>
      <point x="528" y="530" type="line"/>
      <point x="444" y="530" type="line"/>
      <point x="376" y="214" type="line" smooth="yes"/>
      <point x="356" y="119"/>
      <point x="291" y="62"/>
      <point x="191" y="62" type="curve" smooth="yes"/>
      <point x="126" y="62"/>
      <point x="97" y="88"/>
      <point x="97" y="133" type="curve" smooth="yes"/>
      <point x="97" y="166"/>
      <point x="102" y="196"/>
      <point x="109" y="230" type="curve" smooth="yes"/>
      <point x="173" y="530" type="line"/>
      <point x="89" y="530" type="line"/>
      <point x="27" y="240" type="line" smooth="yes"/>
      <point x="19" y="204"/>
      <point x="9" y="157"/>
      <point x="9" y="118" type="curve" smooth="yes"/>
      <point x="9" y="39"/>
      <point x="60" y="-12"/>
    </contour>
    <contour>
      <point x="440" y="482" type="line"/>
      <point x="496" y="482" type="line" smooth="yes"/>
      <point x="591" y="482"/>
      <point x="639" y="535"/>
      <point x="639" y="622" type="curve" smooth="yes"/>
      <point x="639" y="642"/>
      <point x="637" y="665"/>
      <point x="636" y="670" type="curve"/>
      <point x="562" y="670" type="line"/>
      <point x="563" y="660"/>
      <point x="565" y="639"/>
      <point x="565" y="619" type="curve" smooth="yes"/>
      <point x="565" y="564"/>
      <point x="550" y="530"/>
      <point x="498" y="530" type="curve" smooth="yes"/>
      <point x="444" y="530" type="line"/>
    </contour>
  </outline>
</glyph>
<glyph name="Gstroke" format="2">
  <advance width="600"/>
  <unicode hex="01E4"/>
  <anchor x="237" y="0" name="bottom"/>
  <anchor x="388" y="710" name="top"/>
  <outline>
    <contour>
      <point x="285" y="149" type="line"/>
      <point x="565" y="149" type="line"/>
      <point x="580" y="219" type="line"/>
      <point x="300" y="219" type="line"/>
    </contour>
    <contour>
      <point x="236" y="-16" type="curve" smooth="yes"/>
      <point x="422" y="-16"/>
      <point x="528" y="108"/>
      <point x="565" y="290" type="curve" smooth="yes"/>
      <point x="579" y="359" type="line"/>
      <point x="327" y="359" type="line"/>
      <point x="309" y="277" type="line"/>
      <point x="479" y="277" type="line"/>
      <point x="457" y="151"/>
      <point x="378" y="68"/>
      <point x="250" y="68" type="curve" smooth="yes"/>
      <point x="170" y="68"/>
      <point x="123" y="117"/>
      <point x="123" y="257" type="curve" smooth="yes"/>
      <point x="123" y="476"/>
      <point x="228" y="642"/>
      <point x="384" y="642" type="curve" smooth="yes"/>
      <point x="480" y="642"/>
      <point x="515" y="588"/>
      <point x="515" y="486" type="curve"/>
      <point x="606" y="492" type="line"/>
      <point x="606" y="630"/>
      <point x="544" y="726"/>
      <point x="398" y="726" type="curve" smooth="yes"/>
      <point x="178" y="726"/>
      <point x="33" y="530"/>
      <point x="33" y="246" type="curve" smooth="yes"/>
      <point x="33" y="78"/>
      <point x="114" y="-16"/>
    </contour>
  </outline>
</glyph>
<glyph name="jdotless" format="2">
  <advance width="600"/>
  <unicode hex="0237"/>
  <anchor x="247" y="-150" name="bottom"/>
  <anchor x="500" y="530" name="top"/>
  <outline>
    <contour>
      <point x="22" y="-150" type="line"/>
      <point x="248" y="-150" type="line" smooth="yes"/>
      <point x="362" y="-150"/>
      <point x="411" y="-104"/>
      <point x="433" y="0" type="curve" smooth="yes"/>
      <point x="546" y="530" type="line"/>
      <point x="197" y="530" type="line"/>
      <point x="181" y="456" type="line"/>
      <point x="487" y="456" type="line"/>
      <point x="454" y="496" type="line"/>
      <point x="350" y="6" type="line" smooth="yes"/>
      <point x="337" y="-58"/>
      <point x="310" y="-76"/>
      <point x="256" y="-76" type="curve" smooth="yes"/>
      <point x="38" y="-76" type="line"/>
    </contour>
  </outline>
</glyph>
<glyph name="verticallinemod" format="2">
  <advance width="600"/>
  <unicode hex="02C8"/>
  <outline>
    <contour>
      <point x="304" y="427" type="line"/>
      <point x="364" y="427" type="line"/>
      <point x="422" y="634" type="line"/>
      <point x="439" y="710" type="line"/>
      <point x="351" y="710" type="line"/>
      <point x="334" y="634" type="line"/>
    </contour>
  </outline>
</glyph>
<glyph name="gravecomb" format="2">
  <advance width="600"/>
  <unicode hex="0300"/>
  <anchor x="400" y="530" name="_top"/>
  <anchor x="439" y="730" name="top"/>
  <outline>
    <contour>
      <point x="381" y="600" type="line"/>
      <point x="451" y="600" type="line"/>
      <point x="412" y="728" type="line"/>
      <point x="318" y="728" type="line"/>
    </contour>
  </outline>
</glyph>
<glyph name="acutecomb" format="2">
  <advance width="600"/>
  <unicode hex="0301"/>
  <anchor x="314" y="530" name="_top"/>
  <anchor x="357" y="730" name="top"/>
  <outline>
    <contour>
      <point x="291" y="600" type="line"/>
      <point x="361" y="600" type="line"/>
      <point x="478" y="728" type="line"/>
      <point x="384" y="728" type="line"/>
    </contour>
  </outline>
</glyph>
<glyph name="circumflexcomb" format="2">
  <advance width="600"/>
  <unicode hex="0302"/>
  <anchor x="357" y="530" name="_top"/>
  <anchor x="399" y="731" name="top"/>
  <outline>
    <contour>
      <point x="231" y="598" type="line"/>
      <point x="303" y="598" type="line"/>
      <point x="402" y="698" type="line"/>
      <point x="386" y="698" type="line"/>
      <point x="443" y="598" type="line"/>
      <point x="511" y="598" type="line"/>
      <point x="446" y="731" type="line"/>
      <point x="352" y="731" type="line"/>
    </contour>
  </outline>
</glyph>
<glyph name="tildecomb" format="2">
  <advance width="600"/>
  <unicode hex="0303"/>
  <anchor x="356" y="530" name="_top"/>
  <anchor x="399" y="730" name="top"/>
  <outline>
    <contour>
      <point x="439" y="610" type="curve" smooth="yes"/>
      <point x="494" y="610"/>
      <point x="535" y="646"/>
      <point x="555" y="730" type="curve"/>
      <point x="505" y="730" type="line"/>
      <point x="491" y="680"/>
      <point x="476" y="666"/>
      <point x="451" y="666" type="curve" smooth="yes"/>
      <point x="435" y="666"/>
      <point x="422" y="674"/>
      <point x="404" y="690" type="curve" smooth="yes"/>
      <point x="384" y="708"/>
      <point x="363" y="720"/>
      <point x="331" y="720" type="curve" smooth="yes"/>
      <point x="277" y="720"/>
      <point x="236" y="687"/>
      <point x="216" y="603" type="curve"/>
      <point x="266" y="603" type="line"/>
      <point x="278" y="651"/>
      <point x="296" y="664"/>
      <point x="320" y="664" type="curve" smooth="yes"/>
      <point x="340" y="664"/>
      <point x="349" y="656"/>
      <point x="369" y="638" type="curve" smooth="yes"/>
      <point x="389" y="620"/>
      <point x="411" y="610"/>
    </contour>
  </outline>
</glyph>
<glyph name="macroncomb" format="2">
  <advance width="600"/>
  <unicode hex="0304"/>
  <anchor x="357" y="530" name="_top"/>
  <anchor x="392" y="697" name="top"/>
  <outline>
    <contour>
      <point x="243" y="625" type="line"/>
      <point x="511" y="625" type="line"/>
      <point x="526" y="697" type="line"/>
      <point x="258" y="697" type="line"/>
    </contour>
  </outline>
</glyph>
<glyph name="brevecomb" format="2">
  <advance width="600"/>
  <unicode hex="0306"/>
  <anchor x="356" y="530" name="_top"/>
  <anchor x="399" y="731" name="top"/>
  <outline>
    <contour>
      <point x="375" y="603" type="curve" smooth="yes"/>
      <point x="468" y="603"/>
      <point x="518" y="653"/>
      <point x="539" y="731" type="curve"/>
      <point x="481" y="731" type="line"/>
      <point x="465" y="685"/>
      <point x="433" y="665"/>
      <point x="383" y="665" type="curve" smooth="yes"/>
      <point x="339" y="665"/>
      <point x="317" y="681"/>
      <point x="317" y="731" type="curve"/>
      <point x="259" y="731" type="line"/>
      <point x="259" y="645"/>
      <point x="299" y="603"/>
    </contour>
  </outline>
</glyph>
<glyph name="dotaccentcomb" format="2">
  <advance width="600"/>
  <unicode hex="0307"/>
  <anchor x="357" y="530" name="_top"/>
  <anchor x="395" y="711" name="top"/>
  <outline>
    <contour>
      <point x="330" y="613" type="line"/>
      <point x="418" y="613" type="line"/>
      <point x="439" y="711" type="line"/>
      <point x="351" y="711" type="line"/>
    </contour>
  </outline>
</glyph>
<glyph name="hookabovecomb" format="2">
  <advance width="600"/>
  <unicode hex="0309"/>
  <anchor x="354" y="530" name="_top"/>
  <anchor x="403" y="758" name="top"/>
  <outline>
    <contour>
      <point x="395" y="590" type="line"/>
      <point x="441" y="619"/>
      <point x="468" y="654"/>
      <point x="468" y="700" type="curve" smooth="yes"/>
      <point x="468" y="736"/>
      <point x="445" y="758"/>
      <point x="391" y="758" type="curve" smooth="yes"/>
      <point x="361" y="758"/>
      <point x="338" y="754"/>
      <point x="325" y="750" type="curve"/>
      <point x="313" y="692" type="line"/>
      <point x="326" y="696"/>
      <point x="347" y="700"/>
      <point x="371" y="700" type="curve" smooth="yes"/>
      <point x="392" y="700"/>
      <point x="400" y="690"/>
      <point x="400" y="676" type="curve" smooth="yes"/>
      <point x="400" y="645"/>
      <point x="359" y="610"/>
      <point x="335" y="590" type="curve"/>
    </contour>
  </outline>
</glyph>
<glyph name="ringcomb" format="2">
  <advance width="600"/>
  <unicode hex="030A"/>
  <anchor x="357" y="530" name="_top"/>
  <anchor x="406" y="760" name="top"/>
  <outline>
    <contour>
      <point x="366" y="576" type="curve" smooth="yes"/>
      <point x="436" y="576"/>
      <point x="479" y="622"/>
      <point x="479" y="688" type="curve" smooth="yes"/>
      <point x="479" y="730"/>
      <point x="448" y="760"/>
      <point x="404" y="760" type="curve" smooth="yes"/>
      <point x="334" y="760"/>
      <point x="293" y="714"/>
      <point x="293" y="648" type="curve" smooth="yes"/>
      <point x="293" y="606"/>
      <point x="322" y="576"/>
    </contour>
    <contour>
      <point x="377" y="626" type="curve" smooth="yes"/>
      <point x="356" y="626"/>
      <point x="345" y="636"/>
      <point x="345" y="656" type="curve" smooth="yes"/>
      <point x="345" y="688"/>
      <point x="363" y="710"/>
      <point x="393" y="710" type="curve" smooth="yes"/>
      <point x="414" y="710"/>
      <point x="427" y="700"/>
      <point x="427" y="680" type="curve" smooth="yes"/>
      <point x="427" y="648"/>
      <point x="407" y="626"/>
    </contour>
  </outline>
</glyph>
<glyph name="horncomb" format="2">
  <advance width="600"/>
  <unicode hex="031B"/>
  <anchor x="266" y="530" name="_topright"/>
  <outline>
    <contour>
      <point x="262" y="482" type="line"/>
      <point x="318" y="482" type="line" smooth="yes"/>
      <point x="413" y="482"/>
      <point x="461" y="535"/>
      <point x="461" y="622" type="curve" smooth="yes"/>
      <point x="461" y="642"/>
      <point x="459" y="665"/>
      <point x="458" y="670" type="curve"/>
      <point x="384" y="670" type="line"/>
      <point x="385" y="660"/>
      <point x="387" y="639"/>
      <point x="387" y="619" type="curve" smooth="yes"/>
      <point x="387" y="564"/>
      <point x="372" y="530"/>
      <point x="320" y="530" type="curve" smooth="yes"/>
      <point x="266" y="530" type="line"/>
    </contour>
  </outline>
</glyph>
<glyph name="dotbelowcomb" format="2">
  <advance width="600"/>
  <unicode hex="0323"/>
  <anchor x="244" y="0" name="_bottom"/>
  <anchor x="212" y="-150" name="bottom"/>
  <outline>
    <contour>
      <point x="168" y="-150" type="line"/>
      <point x="256" y="-150" type="line"/>
      <point x="276" y="-60" type="line"/>
      <point x="188" y="-60" type="line"/>
    </contour>
  </outline>
</glyph>
<glyph name="commaaccentcomb" format="2">
  <advance width="600"/>
  <unicode hex="0326"/>
  <anchor x="254" y="0" name="_bottom"/>
  <anchor x="207" y="-222" name="bottom"/>
  <outline>
    <contour>
      <point x="133" y="-240" type="line"/>
      <point x="189" y="-240" type="line"/>
      <point x="273" y="-140" type="line"/>
      <point x="292" y="-54" type="line"/>
      <point x="192" y="-54" type="line"/>
      <point x="172" y="-144" type="line"/>
      <point x="206" y="-144" type="line"/>
    </contour>
  </outline>
</glyph>
<glyph name="cedillacomb" format="2">
  <advance width="600"/>
  <unicode hex="0327"/>
  <anchor x="255" y="0" name="_bottom"/>
  <outline>
    <contour>
      <point x="201" y="-220" type="curve" smooth="yes"/>
      <point x="283" y="-220"/>
      <point x="332" y="-190"/>
      <point x="332" y="-112" type="curve" smooth="yes"/>
      <point x="332" y="-69"/>
      <point x="304" y="-38"/>
      <point x="252" y="-36" type="curve"/>
      <point x="295" y="10" type="line"/>
      <point x="231" y="10" type="line"/>
      <point x="181" y="-50" type="line"/>
      <point x="202" y="-80" type="line"/>
      <point x="256" y="-80"/>
      <point x="268" y="-96"/>
      <point x="268" y="-118" type="curve" smooth="yes"/>
      <point x="268" y="-148"/>
      <point x="246" y="-164"/>
      <point x="207" y="-164" type="curve" smooth="yes"/>
      <point x="173" y="-164"/>
      <point x="158" y="-152"/>
      <point x="152" y="-122" type="curve"/>
      <point x="97" y="-142" type="line"/>
      <point x="105" y="-188"/>
      <point x="135" y="-220"/>
    </contour>
  </outline>
</glyph>
<glyph name="ogonekcomb" format="2">
  <advance width="600"/>
  <unicode hex="0328"/>
  <anchor x="299" y="0" name="_ogonek"/>
  <outline>
    <contour>
      <point x="202" y="-210" type="curve" smooth="yes"/>
      <point x="242" y="-210"/>
      <point x="277" y="-199"/>
      <point x="295" y="-184" type="curve"/>
      <point x="283" y="-128" type="line"/>
      <point x="268" y="-137"/>
      <point x="249" y="-142"/>
      <point x="230" y="-142" type="curve" smooth="yes"/>
      <point x="216" y="-142"/>
      <point x="206" y="-136"/>
      <point x="206" y="-122" type="curve" smooth="yes"/>
      <point x="206" y="-106"/>
      <point x="217" y="-89"/>
      <point x="244" y="-60" type="curve" smooth="yes"/>
      <point x="299" y="0" type="line"/>
      <point x="246" y="18" type="line"/>
      <point x="202" y="-22" type="line" smooth="yes"/>
      <point x="153" y="-66"/>
      <point x="124" y="-102"/>
      <point x="124" y="-150" type="curve" smooth="yes"/>
      <point x="124" y="-192"/>
      <point x="154" y="-210"/>
    </contour>
  </outline>
</glyph>
<glyph name="strokeshortcomb" format="2">
  <advance width="600"/>
  <unicode hex="0335"/>
  <anchor x="318" y="350" name="_center"/>
  <outline>
    <contour>
      <point x="161" y="316" type="line"/>
      <point x="461" y="316" type="line"/>
      <point x="475" y="384" type="line"/>
      <point x="175" y="384" type="line"/>
    </contour>
  </outline>
</glyph>
<glyph name="strokelongcomb" format="2">
  <advance width="600"/>
  <unicode hex="0336"/>
  <anchor x="366" y="571" name="_center"/>
  <outline>
    <contour>
      <point x="77" y="531" type="line"/>
      <point x="637" y="531" type="line"/>
      <point x="654" y="611" type="line"/>
      <point x="94" y="611" type="line"/>
    </contour>
  </outline>
</glyph>
<glyph name="slashshortcomb" format="2">
  <advance width="600"/>
  <unicode hex="0337"/>
  <anchor x="326" y="389" name="_center"/>
  <outline>
    <contour>
      <point x="137" y="291" type="line"/>
      <point x="501" y="411" type="line"/>
      <point x="515" y="486" type="line"/>
      <point x="151" y="366" type="line"/>
    </contour>
  </outline>
</glyph>
<glyph name="slashlongcomb" format="2">
  <advance width="600"/>
  <unicode hex="0338"/>
  <anchor x="300" y="263" name="_center"/>
  <outline>
    <contour>
      <point x="20" y="-16" type="line"/>
      <point x="104" y="-16" type="line"/>
      <point x="579" y="542" type="line"/>
      <point x="495" y="542" type="line"/>
    </contour>
  </outline>
</glyph>
<glyph name="Lambda" format="2">
  <advance width="600"/>
  <unicode hex="039B"/>
  <outline>
    <contour>
      <point x="-26" y="0" type="line"/>
      <point x="62" y="0" type="line"/>
      <point x="381" y="635" type="line"/>
      <point x="426" y="0" type="line"/>
      <point x="514" y="0" type="line"/>
      <point x="452" y="710" type="line"/>
      <point x="336" y="710" type="line"/>
    </contour>
  </outline>
</glyph>
<glyph name="Omega" format="2">
  <advance width="600"/>
  <unicode hex="03A9"/>
  <outline>
    <contour>
      <point x="-21" y="0" type="line"/>
      <point x="207" y="0" type="line"/>
      <point x="225" y="84" type="line"/>
      <point x="177" y="85"/>
      <point x="125" y="150"/>
      <point x="125" y="278" type="curve" smooth="yes"/>
      <point x="125" y="480"/>
      <point x="222" y="642"/>
      <point x="379" y="642" type="curve" smooth="yes"/>
      <point x="483" y="642"/>
      <point x="523" y="576"/>
      <point x="523" y="456" type="curve" smooth="yes"/>
      <point x="523" y="247"/>
      <point x="391" y="86"/>
      <point x="313" y="84" type="curve"/>
      <point x="295" y="0" type="line"/>
      <point x="514" y="0" type="line"/>
      <point x="532" y="84" type="line"/>
      <point x="410" y="84" type="line"/>
      <point x="518" y="140"/>
      <point x="613" y="275"/>
      <point x="613" y="469" type="curve" smooth="yes"/>
      <point x="613" y="629"/>
      <point x="530" y="726"/>
      <point x="395" y="726" type="curve" smooth="yes"/>
      <point x="183" y="726"/>
      <point x="35" y="532"/>
      <point x="35" y="279" type="curve" smooth="yes"/>
      <point x="35" y="196"/>
      <point x="64" y="127"/>
      <point x="119" y="84" type="curve"/>
      <point x="-3" y="84" type="line"/>
    </contour>
  </outline>
</glyph>
<glyph name="lambda" format="2">
  <advance width="600"/>
  <unicode hex="03BB"/>
  <outline>
    <contour>
      <point x="476" y="0" type="curve" smooth="yes"/>
      <point x="508" y="0" type="line"/>
      <point x="523" y="74" type="line"/>
      <point x="493" y="74" type="line" smooth="yes"/>
      <point x="457" y="74"/>
      <point x="447" y="86"/>
      <point x="439" y="130" type="curve" smooth="yes"/>
      <point x="356" y="588" type="line" smooth="yes"/>
      <point x="340" y="676"/>
      <point x="314" y="710"/>
      <point x="231" y="710" type="curve" smooth="yes"/>
      <point x="184" y="710" type="line"/>
      <point x="169" y="636" type="line"/>
      <point x="216" y="636" type="line" smooth="yes"/>
      <point x="256" y="636"/>
      <point x="265" y="625"/>
      <point x="273" y="580" type="curve" smooth="yes"/>
      <point x="357" y="114" type="line" smooth="yes"/>
      <point x="373" y="23"/>
      <point x="402" y="0"/>
    </contour>
    <contour>
      <point x="-20" y="0" type="line"/>
      <point x="68" y="0" type="line"/>
      <point x="345" y="467" type="line"/>
      <point x="298" y="530" type="line"/>
    </contour>
  </outline>
</glyph>
<glyph name="pi" format="2">
  <advance width="600"/>
  <unicode hex="03C0"/>
  <outline>
    <contour>
      <point x="439" y="0" type="curve" smooth="yes"/>
      <point x="504" y="0" type="line"/>
      <point x="519" y="74" type="line"/>
      <point x="471" y="74" type="line" smooth="yes"/>
      <point x="444" y="74"/>
      <point x="431" y="88"/>
      <point x="431" y="112" type="curve" smooth="yes"/>
      <point x="431" y="134"/>
      <point x="438" y="162"/>
      <point x="449" y="212" type="curve" smooth="yes"/>
      <point x="510" y="501" type="line"/>
      <point x="426" y="501" type="line"/>
      <point x="369" y="230" type="line" smooth="yes"/>
      <point x="358" y="180"/>
      <point x="346" y="126"/>
      <point x="346" y="88" type="curve" smooth="yes"/>
      <point x="346" y="40"/>
      <point x="380" y="0"/>
    </contour>
    <contour>
      <point x="81" y="0" type="line"/>
      <point x="165" y="0" type="line"/>
      <point x="271" y="498" type="line"/>
      <point x="187" y="498" type="line"/>
    </contour>
    <contour>
      <point x="81" y="456" type="line"/>
      <point x="593" y="456" type="line"/>
      <point x="608" y="530" type="line"/>
      <point x="96" y="530" type="line"/>
    </contour>
  </outline>
</glyph>
<glyph name="Dje-cy" format="2">
  <advance width="600"/>
  <unicode hex="0402"/>
  <outline>
    <contour>
      <point x="312" y="-16" type="curve" smooth="yes"/>
      <point x="474" y="-16"/>
      <point x="589" y="120"/>
      <point x="589" y="306" type="curve" smooth="yes"/>
      <point x="589" y="416"/>
      <point x="528" y="474"/>
      <point x="417" y="474" type="curve" smooth="yes"/>
      <point x="339" y="474"/>
      <point x="265" y="428"/>
      <point x="239" y="406" type="curve"/>
      <point x="267" y="371" type="line"/>
      <point x="335" y="690" type="line"/>
      <point x="249" y="690" type="line"/>
      <point x="102" y="0" type="line"/>
      <point x="188" y="0" type="line"/>
      <point x="261" y="340" type="line"/>
      <point x="292" y="364"/>
      <point x="343" y="390"/>
      <point x="399" y="390" type="curve" smooth="yes"/>
      <point x="460" y="390"/>
      <point x="499" y="358"/>
      <point x="499" y="286" type="curve" smooth="yes"/>
      <point x="499" y="163"/>
      <point x="427" y="68"/>
      <point x="329" y="68" type="curve" smooth="yes"/>
      <point x="307" y="68"/>
      <point x="281" y="70"/>
      <point x="266" y="72" type="curve"/>
      <point x="248" y="-12" type="line"/>
      <point x="263" y="-14"/>
      <point x="293" y="-16"/>
    </contour>
    <contour>
      <point x="87" y="626" type="line"/>
      <point x="547" y="626" type="line"/>
      <point x="565" y="710" type="line"/>
      <point x="105" y="710" type="line"/>
    </contour>
  </outline>
</glyph>
<glyph name="E-cy" format="2">
  <advance width="600"/>
  <unicode hex="0404"/>
  <anchor x="254" y="0" name="bottom"/>
  <anchor x="395" y="710" name="top"/>
  <outline>
    <contour>
      <point x="99" y="312" type="line"/>
      <point x="429" y="312" type="line"/>
      <point x="447" y="396" type="line"/>
      <point x="117" y="396" type="line"/>
    </contour>
    <component base="C"/>
  </outline>
</glyph>
<glyph name="Lje-cy" format="2">
  <advance width="600"/>
  <unicode hex="0409"/>
  <outline>
    <contour>
      <point x="-45" y="0" type="line"/>
      <point x="-18" y="0" type="line" smooth="yes"/>
      <point x="70" y="0"/>
      <point x="112" y="37"/>
      <point x="142" y="147" type="curve" smooth="yes"/>
      <point x="268" y="626" type="line"/>
      <point x="391" y="626" type="line"/>
      <point x="464" y="710" type="line"/>
      <point x="207" y="710" type="line"/>
      <point x="58" y="152" type="line" smooth="yes"/>
      <point x="44" y="99"/>
      <point x="22" y="84"/>
      <point x="-14" y="84" type="curve" smooth="yes"/>
      <point x="-28" y="84" type="line"/>
    </contour>
    <contour>
      <point x="228" y="0" type="line"/>
      <point x="334" y="0" type="line" smooth="yes"/>
      <point x="486" y="0"/>
      <point x="586" y="114"/>
      <point x="586" y="294" type="curve" smooth="yes"/>
      <point x="586" y="395"/>
      <point x="530" y="454"/>
      <point x="430" y="454" type="curve" smooth="yes"/>
      <point x="410" y="454" type="line"/>
      <point x="464" y="710" type="line"/>
      <point x="374" y="690" type="line"/>
    </contour>
    <contour>
      <point x="331" y="84" type="line"/>
      <point x="392" y="370" type="line"/>
      <point x="412" y="370" type="line" smooth="yes"/>
      <point x="466" y="370"/>
      <point x="494" y="334"/>
      <point x="494" y="274" type="curve" smooth="yes"/>
      <point x="494" y="159"/>
      <point x="430" y="84"/>
      <point x="350" y="84" type="curve" smooth="yes"/>
    </contour>
  </outline>
</glyph>
<glyph name="Nje-cy" format="2">
  <advance width="600"/>
  <unicode hex="040A"/>
  <outline>
    <contour>
      <point x="-25" y="0" type="line"/>
      <point x="61" y="0" type="line"/>
      <point x="135" y="349" type="line"/>
      <point x="83" y="315" type="line"/>
      <point x="329" y="315" type="line"/>
      <point x="347" y="399" type="line"/>
      <point x="101" y="399" type="line"/>
      <point x="138" y="365" type="line"/>
      <point x="211" y="710" type="line"/>
      <point x="125" y="710" type="line"/>
    </contour>
    <contour>
      <point x="218" y="0" type="line"/>
      <point x="334" y="0" type="line" smooth="yes"/>
      <point x="481" y="0"/>
      <point x="585" y="116"/>
      <point x="585" y="278" type="curve" smooth="yes"/>
      <point x="585" y="381"/>
      <point x="518" y="428"/>
      <point x="424" y="428" type="curve" smooth="yes"/>
      <point x="395" y="428" type="line"/>
      <point x="454" y="710" type="line"/>
      <point x="368" y="710" type="line"/>
    </contour>
    <contour>
      <point x="321" y="84" type="line"/>
      <point x="377" y="344" type="line"/>
      <point x="407" y="344" type="line" smooth="yes"/>
      <point x="458" y="344"/>
      <point x="495" y="327"/>
      <point x="495" y="263" type="curve" smooth="yes"/>
      <point x="495" y="160"/>
      <point x="435" y="84"/>
      <point x="351" y="84" type="curve" smooth="yes"/>
    </contour>
  </outline>
</glyph>
<glyph name="Tshe-cy" format="2">
  <advance width="600"/>
  <unicode hex="040B"/>
  <outline>
    <contour>
      <point x="78" y="626" type="line"/>
      <point x="598" y="626" type="line"/>
      <point x="615" y="710" type="line"/>
      <point x="95" y="710" type="line"/>
    </contour>
    <contour>
      <point x="95" y="0" type="line"/>
      <point x="181" y="0" type="line"/>
      <point x="251" y="331" type="line"/>
      <point x="279" y="353"/>
      <point x="342" y="390"/>
      <point x="408" y="390" type="curve" smooth="yes"/>
      <point x="459" y="390"/>
      <point x="495" y="365"/>
      <point x="495" y="306" type="curve" smooth="yes"/>
      <point x="495" y="273"/>
      <point x="489" y="244"/>
      <point x="485" y="224" type="curve" smooth="yes"/>
      <point x="438" y="0" type="line"/>
      <point x="524" y="0" type="line"/>
      <point x="571" y="222" type="line" smooth="yes"/>
      <point x="577" y="250"/>
      <point x="583" y="291"/>
      <point x="583" y="322" type="curve" smooth="yes"/>
      <point x="583" y="419"/>
      <point x="515" y="474"/>
      <point x="422" y="474" type="curve" smooth="yes"/>
      <point x="330" y="474"/>
      <point x="244" y="424"/>
      <point x="210" y="392" type="curve"/>
      <point x="254" y="345" type="line"/>
      <point x="327" y="686" type="line"/>
      <point x="241" y="686" type="line"/>
    </contour>
  </outline>
</glyph>
<glyph name="Dzhe-cy" format="2">
  <advance width="600"/>
  <unicode hex="040F"/>
  <outline>
    <contour>
      <point x="4" y="0" type="line"/>
      <point x="484" y="0" type="line"/>
      <point x="635" y="710" type="line"/>
      <point x="549" y="710" type="line"/>
      <point x="416" y="84" type="line"/>
      <point x="108" y="84" type="line"/>
      <point x="241" y="710" type="line"/>
      <point x="155" y="710" type="line"/>
    </contour>
    <contour>
      <point x="173" y="-150" type="line"/>
      <point x="253" y="-150" type="line"/>
      <point x="291" y="32" type="line"/>
      <point x="211" y="32" type="line"/>
    </contour>
  </outline>
</glyph>
<glyph name="Be-cy" format="2">
  <advance width="600"/>
  <unicode hex="0411"/>
  <outline>
    <contour>
      <point x="24" y="0" type="line"/>
      <point x="250" y="0" type="line" smooth="yes"/>
      <point x="440" y="0"/>
      <point x="553" y="108"/>
      <point x="553" y="266" type="curve" smooth="yes"/>
      <point x="553" y="366"/>
      <point x="480" y="434"/>
      <point x="348" y="434" type="curve" smooth="yes"/>
      <point x="203" y="434" type="line"/>
      <point x="251" y="666" type="line"/>
      <point x="203" y="626" type="line"/>
      <point x="540" y="626" type="line"/>
      <point x="558" y="710" type="line"/>
      <point x="175" y="710" type="line"/>
    </contour>
    <contour>
      <point x="128" y="84" type="line"/>
      <point x="185" y="350" type="line"/>
      <point x="330" y="350" type="line" smooth="yes"/>
      <point x="430" y="350"/>
      <point x="463" y="311"/>
      <point x="463" y="254" type="curve" smooth="yes"/>
      <point x="463" y="142"/>
      <point x="383" y="84"/>
      <point x="267" y="84" type="curve" smooth="yes"/>
    </contour>
  </outline>
</glyph>
<glyph name="Ge-cy" format="2">
  <advance width="600"/>
  <unicode hex="0413"/>
  <anchor x="395" y="710" name="top"/>
  <outline>
    <contour>
      <point x="45" y="0" type="line"/>
      <point x="131" y="0" type="line"/>
      <point x="264" y="626" type="line"/>
      <point x="627" y="626" type="line"/>
      <point x="644" y="710" type="line"/>
      <point x="195" y="710" type="line"/>
    </contour>
  </outline>
</glyph>
<glyph name="De-cy" format="2">
  <advance width="600"/>
  <unicode hex="0414"/>
  <outline>
    <contour>
      <point x="-67" y="-150" type="line"/>
      <point x="19" y="-150" type="line"/>
      <point x="50" y="0" type="line"/>
      <point x="437" y="0" type="line"/>
      <point x="406" y="-150" type="line"/>
      <point x="492" y="-150" type="line"/>
      <point x="541" y="84" type="line"/>
      <point x="465" y="84" type="line"/>
      <point x="598" y="710" type="line"/>
      <point x="289" y="710" type="line"/>
      <point x="134" y="214" type="line" smooth="yes"/>
      <point x="114" y="150"/>
      <point x="96" y="120"/>
      <point x="58" y="84" type="curve"/>
      <point x="-18" y="84" type="line"/>
    </contour>
    <contour>
      <point x="150" y="84" type="line"/>
      <point x="175" y="108"/>
      <point x="200" y="146"/>
      <point x="218" y="206" type="curve" smooth="yes"/>
      <point x="352" y="626" type="line"/>
      <point x="495" y="626" type="line"/>
      <point x="379" y="84" type="line"/>
    </contour>
  </outline>
</glyph>
<glyph name="Zhe-cy" format="2">
  <advance width="600"/>
  <unicode hex="0416"/>
  <outline>
    <contour>
      <point x="440" y="0" type="line"/>
      <point x="536" y="0" type="line"/>
      <point x="446" y="355" type="line"/>
      <point x="678" y="710" type="line"/>
      <point x="582" y="710" type="line"/>
      <point x="356" y="355" type="line"/>
    </contour>
    <contour>
      <point x="201" y="0" type="line"/>
      <point x="287" y="0" type="line"/>
      <point x="437" y="710" type="line"/>
      <point x="351" y="710" type="line"/>
    </contour>
    <contour>
      <point x="48" y="0" type="line"/>
      <point x="282" y="355" type="line"/>
      <point x="206" y="710" type="line"/>
      <point x="110" y="710" type="line"/>
      <point x="192" y="355" type="line"/>
      <point x="-48" y="0" type="line"/>
    </contour>
  </outline>
</glyph>
<glyph name="Ze-cy" format="2">
  <advance width="600"/>
  <unicode hex="0417"/>
  <outline>
    <contour>
      <point x="242" y="-16" type="curve" smooth="yes"/>
      <point x="414" y="-16"/>
      <point x="536" y="76"/>
      <point x="536" y="226" type="curve" smooth="yes"/>
      <point x="536" y="304"/>
      <point x="497" y="350"/>
      <point x="399" y="368" type="curve"/>
      <point x="395" y="350" type="line"/>
      <point x="525" y="364"/>
      <point x="602" y="438"/>
      <point x="602" y="548" type="curve" smooth="yes"/>
      <point x="602" y="653"/>
      <point x="530" y="726"/>
      <point x="400" y="726" type="curve" smooth="yes"/>
      <point x="222" y="726"/>
      <point x="136" y="639"/>
      <point x="105" y="525" type="curve"/>
      <point x="195" y="519" type="line"/>
      <point x="218" y="591"/>
      <point x="268" y="642"/>
      <point x="384" y="642" type="curve" smooth="yes"/>
      <point x="474" y="642"/>
      <point x="512" y="602"/>
      <point x="512" y="533" type="curve" smooth="yes"/>
      <point x="512" y="449"/>
      <point x="448" y="402"/>
      <point x="352" y="402" type="curve" smooth="yes"/>
      <point x="228" y="402" type="line"/>
      <point x="210" y="318" type="line"/>
      <point x="334" y="318" type="line" smooth="yes"/>
      <point x="404" y="318"/>
      <point x="446" y="288"/>
      <point x="446" y="218" type="curve" smooth="yes"/>
      <point x="446" y="124"/>
      <point x="372" y="68"/>
      <point x="256" y="68" type="curve" smooth="yes"/>
      <point x="150" y="68"/>
      <point x="126" y="105"/>
      <point x="126" y="189" type="curve"/>
      <point x="34" y="183" type="line"/>
      <point x="34" y="53"/>
      <point x="92" y="-16"/>
    </contour>
  </outline>
</glyph>
<glyph name="Ii-cy" format="2">
  <advance width="600"/>
  <unicode hex="0418"/>
  <anchor x="380" y="710" name="top"/>
  <outline>
    <contour>
      <point x="15" y="0" type="line"/>
      <point x="137" y="0" type="line"/>
      <point x="544" y="648" type="line"/>
      <point x="526" y="653" type="line"/>
      <point x="388" y="0" type="line"/>
      <point x="474" y="0" type="line"/>
      <point x="624" y="710" type="line"/>
      <point x="502" y="710" type="line"/>
      <point x="95" y="62" type="line"/>
      <point x="113" y="58" type="line"/>
      <point x="251" y="710" type="line"/>
      <point x="165" y="710" type="line"/>
    </contour>
  </outline>
</glyph>
<glyph name="Ka-cy" format="2">
  <advance width="600"/>
  <unicode hex="041A"/>
  <anchor x="377" y="710" name="top"/>
  <outline>
    <contour>
      <point x="398" y="0" type="line"/>
      <point x="504" y="0" type="line"/>
      <point x="252" y="354" type="line"/>
      <point x="644" y="710" type="line"/>
      <point x="536" y="710" type="line"/>
      <point x="156" y="355" type="line"/>
    </contour>
    <contour>
      <point x="5" y="0" type="line"/>
      <point x="91" y="0" type="line"/>
      <point x="241" y="710" type="line"/>
      <point x="155" y="710" type="line"/>
    </contour>
  </outline>
</glyph>
<glyph name="El-cy" format="2">
  <advance width="600"/>
  <unicode hex="041B"/>
  <outline>
    <contour>
      <point x="-25" y="0" type="line"/>
      <point x="12" y="0" type="line" smooth="yes"/>
      <point x="100" y="0"/>
      <point x="141" y="37"/>
      <point x="176" y="147" type="curve" smooth="yes"/>
      <point x="328" y="626" type="line"/>
      <point x="531" y="626" type="line"/>
      <point x="398" y="0" type="line"/>
      <point x="484" y="0" type="line"/>
      <point x="634" y="710" type="line"/>
      <point x="267" y="710" type="line"/>
      <point x="92" y="152" type="line" smooth="yes"/>
      <point x="75" y="99"/>
      <point x="52" y="84"/>
      <point x="16" y="84" type="curve" smooth="yes"/>
      <point x="-8" y="84" type="line"/>
    </contour>
  </outline>
</glyph>
<glyph name="Pe-cy" format="2">
  <advance width="600"/>
  <unicode hex="041F"/>
  <outline>
    <contour>
      <point x="4" y="0" type="line"/>
      <point x="90" y="0" type="line"/>
      <point x="223" y="626" type="line"/>
      <point x="531" y="626" type="line"/>
      <point x="398" y="0" type="line"/>
      <point x="484" y="0" type="line"/>
      <point x="635" y="710" type="line"/>
      <point x="155" y="710" type="line"/>
    </contour>
  </outline>
</glyph>
<glyph name="U-cy" format="2">
  <advance width="600"/>
  <unicode hex="0423"/>
  <anchor x="395" y="710" name="top"/>
  <outline>
    <contour>
      <point x="39" y="0" type="line"/>
      <point x="147" y="0" type="line" smooth="yes"/>
      <point x="211" y="0"/>
      <point x="252" y="24"/>
      <point x="286" y="83" type="curve" smooth="yes"/>
      <point x="655" y="710" type="line"/>
      <point x="561" y="710" type="line"/>
      <point x="216" y="122" type="line" smooth="yes"/>
      <point x="197" y="90"/>
      <point x="182" y="84"/>
      <point x="157" y="84" type="curve" smooth="yes"/>
      <point x="56" y="84" type="line"/>
    </contour>
    <contour>
      <point x="229" y="190" type="line"/>
      <point x="274" y="190" type="line"/>
      <point x="306" y="252" type="line"/>
      <point x="227" y="710" type="line"/>
      <point x="135" y="710" type="line"/>
    </contour>
  </outline>
</glyph>
<glyph name="Ef-cy" format="2">
  <advance width="600"/>
  <unicode hex="0424"/>
  <outline>
    <contour>
      <point x="217" y="73" type="curve" smooth="yes"/>
      <point x="301" y="73" type="line" smooth="yes"/>
      <point x="485" y="73"/>
      <point x="615" y="236"/>
      <point x="615" y="440" type="curve" smooth="yes"/>
      <point x="615" y="565"/>
      <point x="545" y="637"/>
      <point x="421" y="637" type="curve" smooth="yes"/>
      <point x="337" y="637" type="line" smooth="yes"/>
      <point x="153" y="637"/>
      <point x="23" y="474"/>
      <point x="23" y="270" type="curve" smooth="yes"/>
      <point x="23" y="145"/>
      <point x="93" y="73"/>
    </contour>
    <contour>
      <point x="319" y="157" type="curve" smooth="yes"/>
      <point x="235" y="157" type="line" smooth="yes"/>
      <point x="151" y="157"/>
      <point x="111" y="198"/>
      <point x="111" y="279" type="curve" smooth="yes"/>
      <point x="111" y="439"/>
      <point x="203" y="553"/>
      <point x="319" y="553" type="curve" smooth="yes"/>
      <point x="403" y="553" type="line" smooth="yes"/>
      <point x="487" y="553"/>
      <point x="527" y="512"/>
      <point x="527" y="431" type="curve" smooth="yes"/>
      <point x="527" y="271"/>
      <point x="435" y="157"/>
    </contour>
    <contour>
      <point x="198" y="-16" type="line"/>
      <point x="282" y="-16" type="line"/>
      <point x="440" y="726" type="line"/>
      <point x="356" y="726" type="line"/>
    </contour>
  </outline>
</glyph>
<glyph name="Tse-cy" format="2">
  <advance width="600"/>
  <unicode hex="0426"/>
  <outline>
    <contour>
      <point x="-20" y="0" type="line"/>
      <point x="449" y="0" type="line"/>
      <point x="600" y="710" type="line"/>
      <point x="514" y="710" type="line"/>
      <point x="381" y="84" type="line"/>
      <point x="84" y="84" type="line"/>
      <point x="217" y="710" type="line"/>
      <point x="131" y="710" type="line"/>
    </contour>
    <contour>
      <point x="408" y="-150" type="line"/>
      <point x="494" y="-150" type="line"/>
      <point x="543" y="84" type="line"/>
      <point x="389" y="84" type="line"/>
      <point x="371" y="0" type="line"/>
      <point x="439" y="0" type="line"/>
    </contour>
  </outline>
</glyph>
<glyph name="Che-cy" format="2">
  <advance width="600"/>
  <unicode hex="0427"/>
  <outline>
    <contour>
      <point x="388" y="0" type="line"/>
      <point x="474" y="0" type="line"/>
      <point x="624" y="710" type="line"/>
      <point x="538" y="710" type="line"/>
      <point x="472" y="396" type="line"/>
      <point x="436" y="360"/>
      <point x="347" y="320"/>
      <point x="268" y="320" type="curve" smooth="yes"/>
      <point x="210" y="320"/>
      <point x="174" y="345"/>
      <point x="174" y="404" type="curve" smooth="yes"/>
      <point x="174" y="437"/>
      <point x="180" y="466"/>
      <point x="184" y="486" type="curve" smooth="yes"/>
      <point x="231" y="710" type="line"/>
      <point x="145" y="710" type="line"/>
      <point x="98" y="488" type="line" smooth="yes"/>
      <point x="92" y="460"/>
      <point x="86" y="419"/>
      <point x="86" y="388" type="curve" smooth="yes"/>
      <point x="86" y="291"/>
      <point x="154" y="236"/>
      <point x="250" y="236" type="curve" smooth="yes"/>
      <point x="357" y="236"/>
      <point x="466" y="292"/>
      <point x="498" y="336" type="curve"/>
      <point x="465" y="365" type="line"/>
    </contour>
  </outline>
</glyph>
<glyph name="Sha-cy" format="2">
  <advance width="600"/>
  <unicode hex="0428"/>
  <outline>
    <contour>
      <point x="-16" y="0" type="line"/>
      <point x="504" y="0" type="line"/>
      <point x="655" y="710" type="line"/>
      <point x="569" y="710" type="line"/>
      <point x="436" y="84" type="line"/>
      <point x="305" y="84" type="line"/>
      <point x="438" y="710" type="line"/>
      <point x="352" y="710" type="line"/>
      <point x="219" y="84" type="line"/>
      <point x="88" y="84" type="line"/>
      <point x="221" y="710" type="line"/>
      <point x="135" y="710" type="line"/>
    </contour>
  </outline>
</glyph>
<glyph name="Shcha-cy" format="2">
  <advance width="600"/>
  <unicode hex="0429"/>
  <outline>
    <contour>
      <point x="-38" y="0" type="line"/>
      <point x="462" y="0" type="line"/>
      <point x="613" y="710" type="line"/>
      <point x="527" y="710" type="line"/>
      <point x="394" y="84" type="line"/>
      <point x="273" y="84" type="line"/>
      <point x="406" y="710" type="line"/>
      <point x="320" y="710" type="line"/>
      <point x="187" y="84" type="line"/>
      <point x="66" y="84" type="line"/>
      <point x="199" y="710" type="line"/>
      <point x="113" y="710" type="line"/>
    </contour>
    <contour>
      <point x="416" y="-150" type="line"/>
      <point x="502" y="-150" type="line"/>
      <point x="551" y="84" type="line"/>
      <point x="407" y="84" type="line"/>
      <point x="389" y="0" type="line"/>
      <point x="447" y="0" type="line"/>
    </contour>
  </outline>
</glyph>
<glyph name="Hardsign-cy" format="2">
  <advance width="600"/>
  <unicode hex="042A"/>
  <outline>
    <contour>
      <point x="97" y="626" type="line"/>
      <point x="241" y="626" type="line"/>
      <point x="208" y="666" type="line"/>
      <point x="67" y="0" type="line"/>
      <point x="260" y="0" type="line" smooth="yes"/>
      <point x="450" y="0"/>
      <point x="565" y="108"/>
      <point x="565" y="276" type="curve" smooth="yes"/>
      <point x="565" y="390"/>
      <point x="488" y="454"/>
      <point x="356" y="454" type="curve" smooth="yes"/>
      <point x="250" y="454" type="line"/>
      <point x="304" y="710" type="line"/>
      <point x="115" y="710" type="line"/>
    </contour>
    <contour>
      <point x="171" y="84" type="line"/>
      <point x="232" y="370" type="line"/>
      <point x="338" y="370" type="line" smooth="yes"/>
      <point x="436" y="370"/>
      <point x="475" y="331"/>
      <point x="475" y="264" type="curve" smooth="yes"/>
      <point x="475" y="142"/>
      <point x="393" y="84"/>
      <point x="277" y="84" type="curve" smooth="yes"/>
    </contour>
  </outline>
</glyph>
<glyph name="Yeru-cy" format="2">
  <advance width="600"/>
  <unicode hex="042B"/>
  <outline>
    <contour>
      <point x="428" y="0" type="line"/>
      <point x="514" y="0" type="line"/>
      <point x="665" y="710" type="line"/>
      <point x="579" y="710" type="line"/>
    </contour>
    <contour>
      <point x="-26" y="0" type="line"/>
      <point x="140" y="0" type="line" smooth="yes"/>
      <point x="330" y="0"/>
      <point x="435" y="108"/>
      <point x="435" y="276" type="curve" smooth="yes"/>
      <point x="435" y="390"/>
      <point x="362" y="454"/>
      <point x="236" y="454" type="curve" smooth="yes"/>
      <point x="157" y="454" type="line"/>
      <point x="211" y="710" type="line"/>
      <point x="125" y="710" type="line"/>
    </contour>
    <contour>
      <point x="78" y="84" type="line"/>
      <point x="139" y="370" type="line"/>
      <point x="218" y="370" type="line" smooth="yes"/>
      <point x="310" y="370"/>
      <point x="345" y="331"/>
      <point x="345" y="264" type="curve" smooth="yes"/>
      <point x="345" y="142"/>
      <point x="273" y="84"/>
      <point x="157" y="84" type="curve" smooth="yes"/>
    </contour>
  </outline>
</glyph>
<glyph name="Softsign-cy" format="2">
  <advance width="600"/>
  <unicode hex="042C"/>
  <outline>
    <contour>
      <point x="24" y="0" type="line"/>
      <point x="250" y="0" type="line" smooth="yes"/>
      <point x="440" y="0"/>
      <point x="555" y="108"/>
      <point x="555" y="276" type="curve" smooth="yes"/>
      <point x="555" y="390"/>
      <point x="478" y="454"/>
      <point x="346" y="454" type="curve" smooth="yes"/>
      <point x="207" y="454" type="line"/>
      <point x="261" y="710" type="line"/>
      <point x="175" y="710" type="line"/>
    </contour>
    <contour>
      <point x="128" y="84" type="line"/>
      <point x="189" y="370" type="line"/>
      <point x="328" y="370" type="line" smooth="yes"/>
      <point x="426" y="370"/>
      <point x="465" y="331"/>
      <point x="465" y="264" type="curve" smooth="yes"/>
      <point x="465" y="142"/>
      <point x="383" y="84"/>
      <point x="267" y="84" type="curve" smooth="yes"/>
    </contour>
  </outline>
</glyph>
<glyph name="Yu-cy" format="2">
  <advance width="600"/>
  <unicode hex="042E"/>
  <outline>
    <contour>
      <point x="323" y="-16" type="curve" smooth="yes"/>
      <point x="495" y="-16"/>
      <point x="615" y="244"/>
      <point x="615" y="544" type="curve" smooth="yes"/>
      <point x="615" y="667"/>
      <point x="570" y="726"/>
      <point x="480" y="726" type="curve" smooth="yes"/>
      <point x="308" y="726"/>
      <point x="188" y="467"/>
      <point x="188" y="167" type="curve" smooth="yes"/>
      <point x="188" y="43"/>
      <point x="233" y="-16"/>
    </contour>
    <contour>
      <point x="-36" y="0" type="line"/>
      <point x="50" y="0" type="line"/>
      <point x="201" y="710" type="line"/>
      <point x="115" y="710" type="line"/>
    </contour>
    <contour>
      <point x="89" y="315" type="line"/>
      <point x="248" y="315" type="line"/>
      <point x="266" y="399" type="line"/>
      <point x="107" y="399" type="line"/>
    </contour>
    <contour>
      <point x="338" y="68" type="curve" smooth="yes"/>
      <point x="297" y="68"/>
      <point x="276" y="90"/>
      <point x="276" y="180" type="curve" smooth="yes"/>
      <point x="276" y="444"/>
      <point x="375" y="642"/>
      <point x="465" y="642" type="curve" smooth="yes"/>
      <point x="506" y="642"/>
      <point x="527" y="620"/>
      <point x="527" y="530" type="curve" smooth="yes"/>
      <point x="527" y="266"/>
      <point x="428" y="68"/>
    </contour>
  </outline>
</glyph>
<glyph name="Ya-cy" format="2">
  <advance width="600"/>
  <unicode hex="042F"/>
  <outline>
    <contour>
      <point x="398" y="0" type="line"/>
      <point x="484" y="0" type="line"/>
      <point x="634" y="710" type="line"/>
      <point x="404" y="710" type="line" smooth="yes"/>
      <point x="177" y="710"/>
      <point x="108" y="570"/>
      <point x="108" y="450" type="curve" smooth="yes"/>
      <point x="108" y="339"/>
      <point x="204" y="282"/>
      <point x="313" y="282" type="curve" smooth="yes"/>
      <point x="457" y="282" type="line"/>
    </contour>
    <contour>
      <point x="4" y="0" type="line"/>
      <point x="99" y="0" type="line"/>
      <point x="336" y="290" type="line"/>
      <point x="251" y="303" type="line"/>
    </contour>
    <contour>
      <point x="329" y="366" type="line" smooth="yes"/>
      <point x="236" y="366"/>
      <point x="198" y="393"/>
      <point x="198" y="461" type="curve" smooth="yes"/>
      <point x="198" y="568"/>
      <point x="275" y="626"/>
      <point x="387" y="626" type="curve" smooth="yes"/>
      <point x="531" y="626" type="line"/>
      <point x="475" y="366" type="line"/>
    </contour>
  </outline>
</glyph>
<glyph name="be-cy" format="2">
  <advance width="600"/>
  <unicode hex="0431"/>
  <outline>
    <contour>
      <point x="249" y="-12" type="curve" smooth="yes"/>
      <point x="430" y="-12"/>
      <point x="540" y="142"/>
      <point x="540" y="316" type="curve" smooth="yes"/>
      <point x="540" y="424"/>
      <point x="478" y="488"/>
      <point x="370" y="488" type="curve" smooth="yes"/>
      <point x="272" y="488"/>
      <point x="198" y="438"/>
      <point x="164" y="374" type="curve"/>
      <point x="174" y="370" type="line"/>
      <point x="192" y="498"/>
      <point x="256" y="576"/>
      <point x="404" y="588" type="curve" smooth="yes"/>
      <point x="516" y="597"/>
      <point x="551" y="624"/>
      <point x="580" y="710" type="curve"/>
      <point x="498" y="710" type="line"/>
      <point x="487" y="680"/>
      <point x="474" y="667"/>
      <point x="414" y="664" type="curve" smooth="yes"/>
      <point x="158" y="652"/>
      <point x="67" y="452"/>
      <point x="67" y="192" type="curve" smooth="yes"/>
      <point x="67" y="56"/>
      <point x="130" y="-12"/>
    </contour>
    <contour>
      <point x="263" y="68" type="curve" smooth="yes"/>
      <point x="189" y="68"/>
      <point x="155" y="105"/>
      <point x="155" y="190" type="curve" smooth="yes"/>
      <point x="155" y="314"/>
      <point x="234" y="408"/>
      <point x="345" y="408" type="curve" smooth="yes"/>
      <point x="417" y="408"/>
      <point x="452" y="368"/>
      <point x="452" y="296" type="curve" smooth="yes"/>
      <point x="452" y="166"/>
      <point x="372" y="68"/>
    </contour>
  </outline>
</glyph>
<glyph name="ve-cy" format="2">
  <advance width="600"/>
  <unicode hex="0432"/>
  <outline>
    <contour>
      <point x="34" y="0" type="line"/>
      <point x="290" y="0" type="line" smooth="yes"/>
      <point x="430" y="0"/>
      <point x="505" y="68"/>
      <point x="505" y="168" type="curve" smooth="yes"/>
      <point x="505" y="238"/>
      <point x="455" y="278"/>
      <point x="374" y="278" type="curve"/>
      <point x="371" y="266" type="line"/>
      <point x="459" y="266"/>
      <point x="533" y="322"/>
      <point x="533" y="410" type="curve" smooth="yes"/>
      <point x="533" y="482"/>
      <point x="487" y="530"/>
      <point x="388" y="530" type="curve" smooth="yes"/>
      <point x="146" y="530" type="line"/>
    </contour>
    <contour>
      <point x="133" y="74" type="line"/>
      <point x="167" y="232" type="line"/>
      <point x="329" y="232" type="line" smooth="yes"/>
      <point x="389" y="232"/>
      <point x="417" y="209"/>
      <point x="417" y="162" type="curve" smooth="yes"/>
      <point x="417" y="107"/>
      <point x="374" y="74"/>
      <point x="305" y="74" type="curve" smooth="yes"/>
    </contour>
    <contour>
      <point x="183" y="306" type="line"/>
      <point x="215" y="456" type="line"/>
      <point x="374" y="456" type="line" smooth="yes"/>
      <point x="423" y="456"/>
      <point x="445" y="434"/>
      <point x="445" y="394" type="curve" smooth="yes"/>
      <point x="445" y="338"/>
      <point x="395" y="306"/>
      <point x="329" y="306" type="curve" smooth="yes"/>
    </contour>
  </outline>
</glyph>
<glyph name="ge-cy" format="2">
  <advance width="600"/>
  <unicode hex="0433"/>
  <anchor x="357" y="530" name="top"/>
  <outline>
    <contour>
      <point x="74" y="0" type="line"/>
      <point x="158" y="0" type="line"/>
      <point x="262" y="490" type="line"/>
      <point x="214" y="456" type="line"/>
      <point x="561" y="456" type="line"/>
      <point x="576" y="530" type="line"/>
      <point x="186" y="530" type="line"/>
    </contour>
  </outline>
</glyph>
<glyph name="de-cy" format="2">
  <advance width="600"/>
  <unicode hex="0434"/>
  <outline>
    <contour>
      <point x="26" y="60" type="curve"/>
      <point x="90" y="32" type="line"/>
      <point x="118" y="52"/>
      <point x="183" y="81"/>
      <point x="233" y="232" type="curve" smooth="yes"/>
      <point x="306" y="456" type="line"/>
      <point x="452" y="456" type="line"/>
      <point x="362" y="30" type="line"/>
      <point x="446" y="30" type="line"/>
      <point x="552" y="530" type="line"/>
      <point x="252" y="530" type="line"/>
      <point x="158" y="240" type="line" smooth="yes"/>
      <point x="117" y="113"/>
      <point x="68" y="78"/>
    </contour>
    <contour>
      <point x="-50" y="-110" type="line"/>
      <point x="34" y="-110" type="line"/>
      <point x="57" y="0" type="line"/>
      <point x="429" y="0" type="line"/>
      <point x="406" y="-110" type="line"/>
      <point x="490" y="-110" type="line"/>
      <point x="529" y="74" type="line"/>
      <point x="-11" y="74" type="line"/>
    </contour>
  </outline>
</glyph>
<glyph name="zhe-cy" format="2">
  <advance width="600"/>
  <unicode hex="0436"/>
  <outline>
    <contour>
      <point x="202" y="0" type="line"/>
      <point x="286" y="0" type="line"/>
      <point x="398" y="530" type="line"/>
      <point x="314" y="530" type="line"/>
    </contour>
    <contour>
      <point x="434" y="0" type="line"/>
      <point x="524" y="0" type="line"/>
      <point x="414" y="264" type="line"/>
      <point x="624" y="530" type="line"/>
      <point x="530" y="530" type="line"/>
      <point x="332" y="267" type="line"/>
    </contour>
    <contour>
      <point x="58" y="0" type="line"/>
      <point x="268" y="263" type="line"/>
      <point x="178" y="530" type="line"/>
      <point x="88" y="530" type="line"/>
      <point x="186" y="266" type="line"/>
      <point x="-36" y="0" type="line"/>
    </contour>
  </outline>
</glyph>
<glyph name="ze-cy" format="2">
  <advance width="600"/>
  <unicode hex="0437"/>
  <outline>
    <contour>
      <point x="243" y="-12" type="curve" smooth="yes"/>
      <point x="401" y="-12"/>
      <point x="493" y="56"/>
      <point x="493" y="170" type="curve" smooth="yes"/>
      <point x="493" y="233"/>
      <point x="450" y="273"/>
      <point x="377" y="280" type="curve"/>
      <point x="375" y="264" type="line"/>
      <point x="463" y="273"/>
      <point x="526" y="322"/>
      <point x="526" y="398" type="curve" smooth="yes"/>
      <point x="526" y="484"/>
      <point x="465" y="542"/>
      <point x="343" y="542" type="curve" smooth="yes"/>
      <point x="197" y="542"/>
      <point x="143" y="486"/>
      <point x="110" y="398" type="curve"/>
      <point x="197" y="392" type="line"/>
      <point x="215" y="434"/>
      <point x="239" y="464"/>
      <point x="329" y="464" type="curve" smooth="yes"/>
      <point x="416" y="464"/>
      <point x="436" y="434"/>
      <point x="436" y="390" type="curve" smooth="yes"/>
      <point x="436" y="338"/>
      <point x="403" y="308"/>
      <point x="339" y="308" type="curve" smooth="yes"/>
      <point x="240" y="308" type="line"/>
      <point x="224" y="234" type="line"/>
      <point x="321" y="234" type="line" smooth="yes"/>
      <point x="385" y="234"/>
      <point x="405" y="207"/>
      <point x="405" y="164" type="curve" smooth="yes"/>
      <point x="405" y="97"/>
      <point x="353" y="66"/>
      <point x="259" y="66" type="curve" smooth="yes"/>
      <point x="178" y="66"/>
      <point x="153" y="88"/>
      <point x="153" y="158" type="curve"/>
      <point x="64" y="154" type="line"/>
      <point x="64" y="50"/>
      <point x="124" y="-12"/>
    </contour>
  </outline>
</glyph>
<glyph name="ii-cy" format="2">
  <advance width="600"/>
  <unicode hex="0438"/>
  <anchor x="357" y="530" name="top"/>
  <outline>
    <contour>
      <point x="24" y="0" type="line"/>
      <point x="114" y="0" type="line"/>
      <point x="494" y="436" type="line"/>
      <point x="474" y="443" type="line"/>
      <point x="380" y="0" type="line"/>
      <point x="464" y="0" type="line"/>
      <point x="576" y="530" type="line"/>
      <point x="486" y="530" type="line"/>
      <point x="106" y="94" type="line"/>
      <point x="126" y="88" type="line"/>
      <point x="220" y="530" type="line"/>
      <point x="136" y="530" type="line"/>
    </contour>
  </outline>
</glyph>
<glyph name="ka-cy" format="2">
  <advance width="600"/>
  <unicode hex="043A"/>
  <anchor x="334" y="530" name="top"/>
  <outline>
    <contour>
      <point x="360" y="0" type="line"/>
      <point x="464" y="0" type="line"/>
      <point x="248" y="266" type="line"/>
      <point x="564" y="530" type="line"/>
      <point x="454" y="530" type="line"/>
      <point x="152" y="265" type="line"/>
    </contour>
    <contour>
      <point x="24" y="0" type="line"/>
      <point x="108" y="0" type="line"/>
      <point x="220" y="530" type="line"/>
      <point x="136" y="530" type="line"/>
    </contour>
  </outline>
</glyph>
<glyph name="el-cy" format="2">
  <advance width="600"/>
  <unicode hex="043B"/>
  <outline>
    <contour>
      <point x="3" y="-4" type="line"/>
      <point x="33" y="-4" type="line" smooth="yes"/>
      <point x="118" y="-4"/>
      <point x="151" y="38"/>
      <point x="177" y="116" type="curve" smooth="yes"/>
      <point x="287" y="456" type="line"/>
      <point x="496" y="456" type="line"/>
      <point x="399" y="0" type="line"/>
      <point x="483" y="0" type="line"/>
      <point x="596" y="530" type="line"/>
      <point x="231" y="530" type="line"/>
      <point x="101" y="126" type="line" smooth="yes"/>
      <point x="87" y="82"/>
      <point x="69" y="70"/>
      <point x="43" y="70" type="curve" smooth="yes"/>
      <point x="19" y="70" type="line"/>
    </contour>
  </outline>
</glyph>
<glyph name="em-cy" format="2">
  <advance width="600"/>
  <unicode hex="043C"/>
  <outline>
    <contour>
      <point x="-26" y="0" type="line"/>
      <point x="58" y="0" type="line"/>
      <point x="147" y="421" type="line"/>
      <point x="133" y="418" type="line"/>
      <point x="198" y="0" type="line"/>
      <point x="290" y="0" type="line"/>
      <point x="533" y="418" type="line"/>
      <point x="519" y="421" type="line"/>
      <point x="430" y="0" type="line"/>
      <point x="514" y="0" type="line"/>
      <point x="626" y="530" type="line"/>
      <point x="518" y="530" type="line"/>
      <point x="240" y="50" type="line"/>
      <point x="268" y="50" type="line"/>
      <point x="194" y="530" type="line"/>
      <point x="86" y="530" type="line"/>
    </contour>
  </outline>
</glyph>
